<?xml version="1.0" standalone="no"?>
<!DOCTYPE svg PUBLIC "-//W3C//DTD SVG 1.1//EN" "http://www.w3.org/Graphics/SVG/1.1/DTD/svg11.dtd" >
<svg xmlns="http://www.w3.org/2000/svg" xmlns:xlink="http://www.w3.org/1999/xlink" version="1.1">
<metadata></metadata>
<defs>
<font id="gt_haptikbold" horiz-adv-x="640" >
<font-face units-per-em="1000" ascent="800" descent="-200" />
<missing-glyph horiz-adv-x="284" />
<glyph unicode="&#xfb01;" horiz-adv-x="682" d="M550 559q-36 0 -60 24t-24 60q0 37 24 61t60 24q37 0 61 -24t24 -61q0 -36 -24 -60t-61 -24zM256 389v-389h-133v389h-108v111h108v25q0 93 50 139.5t131 46.5q40 0 99 -9v-122q-51 8 -76 8q-39 0 -55 -18.5t-16 -58.5v-11h141v-111h-141zM616 500v-500h-132v500h132z " />
<glyph unicode="&#xfb02;" horiz-adv-x="666" d="M256 389v-389h-133v389h-108v111h108v25q0 93 50 139.5t131 46.5q40 0 99 -9v-122q-51 8 -76 8q-39 0 -55 -18.5t-16 -58.5v-11h141v-111h-141zM609 700v-700h-133v700h133z" />
<glyph horiz-adv-x="0" />
<glyph horiz-adv-x="333" />
<glyph unicode="&#xd;" horiz-adv-x="600" />
<glyph unicode=" "  horiz-adv-x="284" />
<glyph unicode="&#x09;" horiz-adv-x="284" />
<glyph unicode="&#xa0;" horiz-adv-x="284" />
<glyph unicode="!" horiz-adv-x="338" d="M99 242v458h140v-458h-140zM168 190q41 0 68.5 -27.5t27.5 -67.5t-27.5 -67.5t-68.5 -27.5q-40 0 -67 27t-27 68t27 68t67 27z" />
<glyph unicode="&#x22;" horiz-adv-x="431" d="M186 700v-282h-116v282h116zM361 700v-282h-116v282h116z" />
<glyph unicode="#" horiz-adv-x="609" d="M340 196h-109l-29 -196h-94l29 196h-107l14 93h107l19 133h-107l14 93h107l27 185h95l-28 -185h109l27 185h95l-28 -185h98l-14 -93h-97l-20 -133h98l-14 -93h-98l-29 -196h-94zM373 422h-108l-20 -133h109z" />
<glyph unicode="$" horiz-adv-x="561" d="M315 410q89 -31 137.5 -78.5t48.5 -128.5q0 -84 -51 -137.5t-137 -63.5v-82h-65v81q-82 7 -136 53t-71 123l126 52q17 -74 81 -87v143l-14 5q-89 31 -137.5 78.5t-48.5 128.5q0 87 54.5 141t145.5 61v81h65v-82q77 -10 127.5 -55.5t67.5 -119.5l-126 -52q-15 68 -69 84 v-144q1 -1 2 -1zM188 499q0 -23 13.5 -37t46.5 -28v124q-60 -9 -60 -59zM313 144q48 12 48 57q0 21 -11 34.5t-37 25.5v-117z" />
<glyph unicode="%" horiz-adv-x="824" d="M657 725l65 -54l-562 -696l-65 54zM197 700q69 0 115.5 -46.5t46.5 -115.5t-46.5 -115.5t-115.5 -46.5t-115.5 46.5t-46.5 115.5t46.5 115.5t115.5 46.5zM268 538q0 31 -20 51t-51 20t-51 -20t-20 -51t20 -51t51 -20t51 20t20 51zM465 162q0 69 46.5 115.5t115.5 46.5 t115.5 -46.5t46.5 -115.5t-46.5 -115.5t-115.5 -46.5t-115.5 46.5t-46.5 115.5zM627 233q-31 0 -51 -20t-20 -51t20 -51t51 -20t51 20t20 51t-20 51t-51 20z" />
<glyph unicode="&#x26;" horiz-adv-x="753" d="M304 -12q-105 0 -167 57.5t-62 152.5q0 66 31 111t88 82l-9 10q-60 69 -60 140q0 73 51.5 122.5t138.5 49.5q83 0 133.5 -47.5t50.5 -126.5q0 -103 -101 -173l102 -109q27 44 50 97l111 -65q-34 -79 -69 -129l67 -72l-97 -93l-61 66q-88 -73 -197 -73zM311 456 q56 37 56 81q0 26 -14.5 40.5t-37.5 14.5t-38 -14.5t-15 -37.5q0 -30 29 -61zM307 119q57 0 102 39l-131 143q-35 -23 -52 -44.5t-17 -51.5q0 -39 25.5 -62.5t72.5 -23.5z" />
<glyph unicode="'" horiz-adv-x="256" d="M186 700v-282h-116v282h116z" />
<glyph unicode="(" horiz-adv-x="358" d="M73 321q0 138 49.5 259.5t141.5 215.5l92 -81q-76 -90 -115 -183t-39 -211q0 -228 154 -410l-93 -81q-90 93 -140 224.5t-50 266.5z" />
<glyph unicode=")" horiz-adv-x="358" d="M94 796q192 -194 192 -475q0 -135 -50.5 -266.5t-140.5 -224.5l-92 81q154 183 154 410q0 117 -39 210.5t-116 183.5z" />
<glyph unicode="*" horiz-adv-x="459" d="M281 720v-114l108 35l32 -97l-108 -35l66 -92l-82 -61l-68 92l-67 -92l-83 61l67 92l-108 35l32 97l108 -35v114h103z" />
<glyph unicode="+" d="M390 589v-200h200v-140h-200v-199h-140v199h-200v140h200v200h140z" />
<glyph unicode="," horiz-adv-x="363" d="M190 187l103 -57l-184 -330l-103 55z" />
<glyph unicode="-" horiz-adv-x="601" d="M534 370v-140h-466v140h466z" />
<glyph unicode="." horiz-adv-x="325" d="M162 190q41 0 68.5 -27.5t27.5 -67.5t-27.5 -67.5t-68.5 -27.5q-40 0 -67 27t-27 68t27 68t67 27z" />
<glyph unicode="/" horiz-adv-x="685" d="M559 791l109 -73l-543 -794l-109 74z" />
<glyph unicode="0" horiz-adv-x="763" d="M382 0q-142 0 -238 98t-96 252t96 252t238 98t238 -98t96 -252t-96 -252t-238 -98zM382 140q85 0 139.5 57.5t54.5 152.5t-54.5 152.5t-139.5 57.5q-86 0 -140 -57t-54 -153t54 -153t140 -57zM382 269q-34 0 -57.5 23.5t-23.5 57.5t23.5 57.5t57.5 23.5t57.5 -23.5 t23.5 -57.5t-23.5 -57.5t-57.5 -23.5z" />
<glyph unicode="1" horiz-adv-x="489" d="M391 700v-700h-140v483l-133 -131l-97 101l252 247h118z" />
<glyph unicode="2" horiz-adv-x="567" d="M32 549q39 69 103.5 110t143.5 41q104 0 169 -61.5t65 -161.5q0 -108 -83 -188l-153 -149h236v-140h-461v112l268 260q53 52 53 97q0 41 -27.5 66t-69.5 25q-41 0 -77.5 -26t-61.5 -71z" />
<glyph unicode="3" horiz-adv-x="558" d="M32 587q32 50 93.5 81.5t135.5 31.5q106 0 171.5 -53t65.5 -141q0 -55 -27 -96.5t-71 -59.5q45 -17 71.5 -59t26.5 -97q0 -90 -64.5 -142t-172.5 -52q-75 0 -137 32t-93 84l96 104q42 -80 135 -80q45 0 70.5 18.5t25.5 52.5q0 33 -25 51.5t-68 19.5h-53v137h53 q43 1 68 19.5t25 51.5t-26 51.5t-70 18.5q-90 0 -135 -79z" />
<glyph unicode="4" horiz-adv-x="673" d="M534 700v-449h104v-140h-104v-111h-140v111h-364v120l389 469h115zM394 453l-166 -202h166v202z" />
<glyph unicode="5" horiz-adv-x="565" d="M256 0q-122 0 -221 63l59 126q80 -49 161 -49q53 0 85.5 26.5t32.5 74.5q0 100 -141 100q-69 0 -152 -22v381h434v-140h-294v-84q36 4 40 4q119 0 186.5 -63t67.5 -173q0 -114 -71 -179t-187 -65z" />
<glyph unicode="6" horiz-adv-x="578" d="M298 0q-140 0 -206 108q-47 80 -47 214q0 178 77 278t215 100q89 0 169 -43l-55 -127q-60 30 -122 30q-55 0 -92 -33.5t-42 -87.5q56 33 111 33q101 0 164.5 -65t63.5 -168q0 -106 -66 -172.5t-170 -66.5zM293 140q44 0 72.5 27t28.5 70t-28 69t-73 26t-73.5 -26.5 t-28.5 -69.5t28.5 -69.5t73.5 -26.5z" />
<glyph unicode="7" horiz-adv-x="541" d="M51 0l294 560h-308v140h477v-117l-305 -583h-158z" />
<glyph unicode="8" horiz-adv-x="566" d="M283 0q-102 0 -165.5 52.5t-63.5 139.5q0 109 93 158q-43 23 -68 64t-25 94q0 87 63.5 139.5t165.5 52.5t165.5 -52.5t63.5 -138.5q0 -52 -25 -93.5t-69 -65.5q94 -50 94 -158q0 -87 -63.5 -139.5t-165.5 -52.5zM283 420q39 0 64 19t25 52q0 31 -24.5 50t-64.5 19 t-64.5 -19t-24.5 -50q0 -33 25 -52t64 -19zM283 140q40 0 64.5 19t24.5 50q0 33 -25 52t-64 19t-64 -19t-25 -52q0 -31 24.5 -50t64.5 -19z" />
<glyph unicode="9" horiz-adv-x="579" d="M251 0q-87 0 -177 42l50 127q66 -29 128 -29q56 0 93 33.5t42 88.5q-54 -34 -111 -34q-100 0 -163 64.5t-63 166.5q0 107 67.5 174t176.5 67q122 0 187 -89q58 -82 58 -238q0 -182 -74 -277.5t-214 -95.5zM291 368q45 0 73.5 27t28.5 70q0 42 -29 68.5t-73 26.5 q-45 0 -73 -27t-28 -70t28 -69t73 -26z" />
<glyph unicode=":" horiz-adv-x="325" d="M162 512q41 0 68.5 -27.5t27.5 -67.5t-27.5 -67.5t-68.5 -27.5q-40 0 -67 27t-27 68t27 68t67 27zM162 190q41 0 68.5 -27.5t27.5 -67.5t-27.5 -67.5t-68.5 -27.5q-40 0 -67 27t-27 68t27 68t67 27z" />
<glyph unicode=";" horiz-adv-x="404" d="M239 322q-41 0 -68 27t-27 68t27 68t68 27t68 -27t27 -68t-27 -68t-68 -27zM109 -200l-103 55l184 332l103 -57z" />
<glyph unicode="&#x3c;" d="M516 587l57 -136l-333 -132l333 -133l-57 -136l-450 190v157z" />
<glyph unicode="=" d="M592 487v-140h-544v140h544zM592 253v-140h-544v140h544z" />
<glyph unicode="&#x3e;" d="M573 397v-157l-450 -190l-57 136l333 133l-333 132l57 136z" />
<glyph unicode="?" horiz-adv-x="539" d="M177 231v39q0 34 17.5 65t34 46.5t46.5 39.5q18 14 27.5 23t18.5 23t9 29q0 28 -17.5 46t-52.5 18q-80 0 -80 -86h-136q0 108 58.5 167t160.5 59q96 0 152 -54.5t56 -141.5q0 -54 -20.5 -88t-58.5 -68q-4 -3 -18.5 -15t-19 -16t-14 -14.5t-13 -18t-7 -18.5t-3.5 -23v-12 h-140zM252 190q41 0 68.5 -27.5t27.5 -67.5t-27.5 -67.5t-68.5 -27.5q-40 0 -67 27t-27 68t27 68t67 27z" />
<glyph unicode="@" horiz-adv-x="965" d="M493 -109q-191 0 -307 117.5t-116 293.5q0 174 115.5 292t307.5 118q182 0 292 -101.5t110 -259.5q0 -118 -53.5 -189t-142.5 -71q-87 0 -111 77q-48 -77 -137 -77q-63 0 -102.5 38.5t-39.5 94.5q0 54 37 86.5t91 38.5l116 12q0 32 -16 46.5t-51 14.5q-69 0 -91 -54 l-83 52q44 101 177 101q87 0 130 -44t43 -119v-120q0 -45 36 -45t56 40.5t20 109.5q0 108 -73.5 181t-208.5 73q-141 0 -221 -83.5t-80 -211.5q0 -131 81 -214t221 -83q96 0 192 30l14 -112q-98 -32 -206 -32zM467 188q35 0 61 21t26 56v13l-95 -13q-18 -2 -29 -13t-11 -27 q0 -37 48 -37z" />
<glyph unicode="A" horiz-adv-x="792" d="M631 0l-51 111h-368l-51 -111h-154l324 700h130l324 -700h-154zM277 251h238l-119 257z" />
<glyph unicode="B" horiz-adv-x="621" d="M74 0v700h298q97 0 153 -55t56 -142q0 -110 -87 -153q87 -44 87 -153q0 -87 -56 -142t-153 -55h-298zM214 420h155q32 0 52 20t20 52q0 30 -19.5 49t-52.5 19h-155v-140zM214 140h155q33 0 52.5 18.5t19.5 49.5q0 33 -20 52.5t-52 19.5h-155v-140z" />
<glyph unicode="C" horiz-adv-x="646" d="M382 0q-147 0 -247.5 100.5t-100.5 250.5q0 149 100.5 249t249.5 100q151 0 253 -96l-67 -129q-80 85 -187 85q-91 0 -150 -59t-59 -151t59 -151t149 -59q71 0 137 33l29 -137q-85 -36 -166 -36z" />
<glyph unicode="D" horiz-adv-x="705" d="M74 0v700h254q148 0 245.5 -99t97.5 -251t-97.5 -251t-245.5 -99h-254zM214 140h114q89 0 146 59.5t57 150.5t-57 150.5t-146 59.5h-114v-420z" />
<glyph unicode="E" horiz-adv-x="581" d="M74 0v700h452v-140h-312v-140h312v-140h-312v-140h312v-140h-452z" />
<glyph unicode="F" horiz-adv-x="559" d="M74 0v700h452v-140h-312v-140h312v-140h-312v-280h-140z" />
<glyph unicode="G" horiz-adv-x="649" d="M386 0q-154 0 -253 98.5t-99 250.5t99 251.5t254 99.5q148 0 250 -96l-67 -129q-80 85 -185 85q-94 0 -152.5 -58.5t-58.5 -151.5t59 -151.5t153 -58.5q14 0 28 3v114h-132v140h272v-369q-92 -28 -168 -28z" />
<glyph unicode="H" horiz-adv-x="734" d="M74 0v700h140v-280h307v280h140v-700h-140v280h-307v-280h-140z" />
<glyph unicode="I" horiz-adv-x="288" d="M74 0v700h140v-700h-140z" />
<glyph unicode="J" horiz-adv-x="525" d="M235 0q-104 0 -163.5 63.5t-59.5 153.5l127 57q0 -134 97 -134q85 0 85 102v458h140v-459q0 -116 -63 -178.5t-163 -62.5z" />
<glyph unicode="K" horiz-adv-x="705" d="M74 0v700h140v-295l294 295h197l-304 -306l305 -394h-178l-226 294l-88 -88v-206h-140z" />
<glyph unicode="L" horiz-adv-x="541" d="M74 0v700h140v-560h318v-140h-458z" />
<glyph unicode="M" horiz-adv-x="1007" d="M74 0v700h135l295 -517l294 517h135v-700h-140v407l-232 -407h-115l-232 407v-407h-140z" />
<glyph unicode="N" horiz-adv-x="788" d="M74 0v700h122l378 -460v460h140v-700h-122l-378 460v-460h-140z" />
<glyph unicode="O" horiz-adv-x="768" d="M384 0q-150 0 -250 100t-100 250t100 250t250 100t250 -100t100 -250t-100 -250t-250 -100zM384 140q92 0 151 59t59 151t-59 151t-151 59t-151 -59t-59 -151t59 -151t151 -59z" />
<glyph unicode="P" horiz-adv-x="618" d="M74 0v700h274q107 0 176.5 -69.5t69.5 -175.5t-69.5 -175t-176.5 -69h-134v-211h-140zM214 351h134q49 0 77.5 29t28.5 75q0 47 -28.5 76t-77.5 29h-134v-209z" />
<glyph unicode="Q" horiz-adv-x="809" d="M745 -112l-168 168q-84 -56 -193 -56q-150 0 -250 100t-100 250t100 250t250 100t250 -100t100 -250q0 -111 -58 -197l165 -165zM384 140q51 0 88 21l-152 152l96 102l155 -156q23 40 23 91q0 92 -59 151t-151 59t-151 -59t-59 -151t59 -151t151 -59z" />
<glyph unicode="R" horiz-adv-x="687" d="M672 0l-162 -1l-132 212h-164v-211h-140v700h306q108 0 177.5 -69t69.5 -175q0 -67 -29.5 -121.5t-81.5 -86.5zM214 351h76l-21 34l117 70l55 -88q46 28 46 89q0 46 -28.5 75t-78.5 29h-166v-209z" />
<glyph unicode="S" horiz-adv-x="541" d="M272 0q-93 0 -154.5 46.5t-80.5 130.5l126 52q20 -89 109 -89q85 0 85 61q0 31 -25.5 47.5t-101.5 41.5q-89 31 -137.5 78.5t-48.5 128.5q0 93 61.5 148t163.5 55q93 0 154.5 -46.5t80.5 -130.5l-126 -52q-20 89 -109 89q-85 0 -85 -61q0 -31 25.5 -47.5t101.5 -41.5 q89 -31 137.5 -78.5t48.5 -128.5q0 -93 -61.5 -148t-163.5 -55z" />
<glyph unicode="T" horiz-adv-x="656" d="M258 0v560h-253v140h646v-140h-253v-560h-140z" />
<glyph unicode="U" horiz-adv-x="767" d="M384 0q-141 0 -233.5 90.5t-92.5 233.5v376h140v-376q0 -84 52.5 -134t133.5 -50t133 50t52 134v376h140v-376q0 -143 -92 -233.5t-233 -90.5z" />
<glyph unicode="V" horiz-adv-x="783" d="M330 0l-331 700h155l238 -503l237 503h155l-331 -700h-123z" />
<glyph unicode="W" horiz-adv-x="1240" d="M281 0l-271 700h150l189 -488l202 488h138l202 -488l189 488h150l-271 -700h-131l-208 499l-208 -499h-131z" />
<glyph unicode="X" horiz-adv-x="765" d="M9 0l283 350l-283 350h180l193 -238l193 238h181l-283 -350l283 -350h-181l-193 238l-192 -238h-181z" />
<glyph unicode="Y" horiz-adv-x="710" d="M285 0v271l-286 429h169l187 -280l187 280h169l-286 -429v-271h-140z" />
<glyph unicode="Z" horiz-adv-x="643" d="M36 0v101l362 459h-362v140h571v-101l-362 -459h362v-140h-571z" />
<glyph unicode="[" horiz-adv-x="338" d="M338 761v-115h-119v-665h119v-115h-240v895h240z" />
<glyph unicode="\" horiz-adv-x="685" d="M126 791l543 -793l-109 -74l-543 794z" />
<glyph unicode="]" horiz-adv-x="338" d="M241 761v-895h-241v115h119v665h-119v115h241z" />
<glyph unicode="^" horiz-adv-x="477" d="M310 714l147 -270l-115 -59l-104 193l-104 -193l-114 59l147 270h143z" />
<glyph unicode="_" horiz-adv-x="520" d="M520 -84v-115l-520 -1v116h520z" />
<glyph unicode="`" horiz-adv-x="383" d="M109 768l224 -136l-58 -93l-225 136z" />
<glyph unicode="a" horiz-adv-x="538" d="M42 398q48 113 223 113q111 0 165 -50t54 -153v-309h-132v68q-51 -78 -154 -78q-74 0 -121.5 43.5t-47.5 112.5q0 65 43.5 107.5t116.5 49.5l137 12q26 3 26 20v8q0 50 -87 50q-100 0 -125 -64zM352 222l-124 -15q-62 -8 -62 -55q0 -25 19 -39t52 -14q49 0 82 29.5 t33 73.5v20z" />
<glyph unicode="b" horiz-adv-x="611" d="M190 700v-272q61 85 168 85q100 0 163 -73.5t63 -189.5q0 -117 -63.5 -190t-164.5 -73q-108 0 -166 83v-70h-132v700h132zM448 250q0 59 -36.5 96.5t-94.5 37.5t-94.5 -37t-36.5 -97t36.5 -97t94.5 -37t94.5 37.5t36.5 96.5z" />
<glyph unicode="c" horiz-adv-x="502" d="M27 250q0 116 74.5 189t192.5 73q117 0 190 -73l-75 -106q-50 50 -115 50q-58 0 -94.5 -37t-36.5 -96q0 -58 36.5 -95.5t94.5 -37.5q65 0 118 51l73 -106q-74 -74 -193 -74q-118 0 -191.5 73t-73.5 189z" />
<glyph unicode="d" horiz-adv-x="611" d="M553 700v-700h-132v70q-60 -83 -167 -83q-101 0 -164 73t-63 190q0 116 62.5 189.5t162.5 73.5q108 0 169 -85v272h132zM294 384q-58 0 -94.5 -37.5t-36.5 -96.5t36.5 -96.5t94.5 -37.5t94 37t36 97t-36 97t-94 37z" />
<glyph unicode="e" horiz-adv-x="557" d="M27 250q0 113 70 187.5t186 74.5q114 0 180.5 -72.5t66.5 -193.5v-36h-368l1 -2q11 -47 49 -71.5t85 -24.5q83 0 142 51l55 -109q-80 -66 -199 -66q-124 0 -196 73.5t-72 188.5zM386 306q-5 42 -32.5 68t-74.5 26q-98 0 -118 -94h225z" />
<glyph unicode="f" horiz-adv-x="418" d="M256 389v-389h-133v389h-108v111h108v25q0 93 50 139.5t131 46.5q40 0 99 -9v-122q-51 8 -76 8q-39 0 -55 -18.5t-16 -58.5v-11h141v-111h-141z" />
<glyph unicode="g" horiz-adv-x="614" d="M27 252q0 115 64.5 187.5t166.5 72.5q52 0 95.5 -22t67.5 -60v70h132v-467q0 -120 -69.5 -183t-202.5 -63q-137 0 -221 78l65 109q65 -63 152 -63q146 0 146 129v32q-53 -77 -161 -77q-106 0 -170.5 70.5t-64.5 186.5zM424 250q0 60 -35.5 97t-93.5 37t-95 -37.5 t-37 -96.5t37 -96.5t95 -37.5t93.5 37t35.5 97z" />
<glyph unicode="h" horiz-adv-x="585" d="M190 700v-275q55 87 158 87q85 0 131 -52t46 -150v-310h-135v277q0 108 -91 108q-109 0 -109 -146v-239h-132v700h132z" />
<glyph unicode="i" horiz-adv-x="264" d="M132 559q-36 0 -60 24t-24 60q0 37 24 61t60 24q37 0 61 -24t24 -61q0 -36 -24 -60t-61 -24zM198 500v-500h-132v500h132z" />
<glyph unicode="j" horiz-adv-x="278" d="M144 559q-36 0 -60 24t-24 60q0 37 24 61t60 24q37 0 61 -24t24 -61q0 -36 -24 -60t-61 -24zM210 500v-515q0 -190 -209 -190q-23 0 -37 1v122h14q58 0 79 18.5t21 60.5v503h132z" />
<glyph unicode="k" horiz-adv-x="553" d="M242 196l-52 -51v-145h-132v700h132v-393l181 193h175l-216 -215l216 -285h-170z" />
<glyph unicode="l" horiz-adv-x="248" d="M191 700v-700h-133v700h133z" />
<glyph unicode="m" horiz-adv-x="914" d="M497 419q52 93 168 93q87 0 138 -54.5t51 -153.5v-304h-133v277q0 108 -90 108q-110 0 -110 -146v-239h-132v277q0 108 -91 108q-108 0 -108 -146v-239h-132v500h128v-77q50 89 156 89q112 0 155 -93z" />
<glyph unicode="n" horiz-adv-x="585" d="M58 0v500h128v-76q58 88 163 88q84 0 130 -52t46 -147v-313h-135v277q0 108 -93 108q-107 0 -107 -146v-239h-132z" />
<glyph unicode="o" horiz-adv-x="592" d="M27 250q0 116 76 189t193 73t193 -73t76 -189t-76 -189t-193 -73t-193 73t-76 189zM429 250q0 59 -38 96t-95 37t-95 -37t-38 -96t38 -96t95 -37t95 37t38 96z" />
<glyph unicode="p" horiz-adv-x="611" d="M58 -200v700h132v-69q59 82 166 82q101 0 164.5 -73t63.5 -190q0 -116 -63 -189.5t-163 -73.5q-107 0 -168 85v-272h-132zM317 116q58 0 94.5 37.5t36.5 96.5t-36.5 96.5t-94.5 37.5t-94.5 -37t-36.5 -97t36.5 -97t94.5 -37z" />
<glyph unicode="q" horiz-adv-x="614" d="M421 -200v272q-61 -85 -169 -85q-100 0 -162.5 73.5t-62.5 189.5q0 117 63 190t164 73q107 0 167 -82v69h132v-700h-132zM163 250q0 -59 36.5 -96.5t94.5 -37.5t94 37t36 97t-36 97t-94 37t-94.5 -37.5t-36.5 -96.5z" />
<glyph unicode="r" horiz-adv-x="386" d="M185 418q44 94 142 94q21 0 49 -7v-142q-24 8 -60 8q-126 0 -126 -145v-226h-132v500h127v-82z" />
<glyph unicode="s" horiz-adv-x="478" d="M46 353q0 76 56 117.5t155 41.5q128 0 199 -74l-74 -96q-22 24 -59 37.5t-77 13.5q-63 0 -63 -35q0 -17 20 -25t96 -25q79 -18 119.5 -52.5t40.5 -104.5q0 -163 -216 -163q-155 0 -222 83l77 100q56 -65 159 -65q66 0 66 38q0 18 -20.5 27t-90.5 24q-34 7 -59.5 17 t-52 27.5t-40.5 46.5t-14 67z" />
<glyph unicode="t" horiz-adv-x="394" d="M358 10q-62 -15 -108 -15q-72 0 -109.5 37.5t-37.5 120.5v236h-91v111h91v134h132v-134h127v-111h-127v-217q0 -45 50 -45q25 0 73 8v-125z" />
<glyph unicode="u" horiz-adv-x="578" d="M518 500v-500h-128v76q-59 -88 -159 -88q-85 0 -129 53.5t-44 147.5v311h135v-278q0 -107 84 -107q54 0 81 39.5t27 106.5v239h133z" />
<glyph unicode="v" horiz-adv-x="544" d="M222 0l-225 500h148l127 -310l128 310h147l-225 -500h-100z" />
<glyph unicode="w" horiz-adv-x="851" d="M200 0l-203 500h144l112 -298l119 298h107l120 -298l111 298h144l-203 -500h-100l-125 297l-126 -297h-100z" />
<glyph unicode="x" horiz-adv-x="563" d="M281 151l-115 -151h-159l195 256l-187 244h159l107 -140l107 140h160l-187 -244l195 -256h-159z" />
<glyph unicode="y" horiz-adv-x="538" d="M87 -200l122 272l-212 428h154l127 -274l124 274h140l-315 -700h-140z" />
<glyph unicode="z" horiz-adv-x="485" d="M453 500v-103l-253 -275h261v-122h-440v103l251 275h-234v122h415z" />
<glyph unicode="{" horiz-adv-x="368" d="M368 761v-116h-46q-26 0 -42 -14t-16 -40v-160q0 -94 -80 -115q80 -21 80 -111v-169q0 -26 16 -40t42 -14h46v-116h-47q-178 0 -178 159v159q0 34 -24.5 50.5t-80.5 17.5v121q105 3 105 76v154q0 158 178 158h47z" />
<glyph unicode="|" horiz-adv-x="322" d="M222 761v-895h-122v895h122z" />
<glyph unicode="}" horiz-adv-x="368" d="M47 761q178 0 178 -158v-154q0 -73 106 -76v-121q-56 -1 -81 -17.5t-25 -50.5v-159q0 -159 -178 -159h-47v116h46q26 0 42 14t16 40v169q0 90 80 111q-80 21 -80 115v160q0 26 -16 40t-42 14h-46v116h47z" />
<glyph unicode="~" horiz-adv-x="755" d="M70 328q107 95 190 95q42 0 87.5 -20.5t83 -41t61.5 -20.5q41 0 113 63l80 -91q-111 -109 -192 -109q-51 0 -128 41t-103 41q-38 0 -112 -63z" />
<glyph unicode="&#xa1;" horiz-adv-x="338" d="M168 310q-40 0 -67 27t-27 68t27 68t67 27q41 0 68.5 -27.5t27.5 -67.5t-27.5 -67.5t-68.5 -27.5zM99 258h140v-458h-140v458z" />
<glyph unicode="&#xa2;" horiz-adv-x="502" d="M485 62q-65 -65 -168 -73v-66h-65v67q-102 13 -163.5 84t-61.5 176t62 175.5t163 83.5v70h65v-68q101 -6 167 -72l-75 -106q-40 40 -92 48v-262q52 7 95 49zM163 250q0 -46 24 -80t65 -47v254q-41 -12 -65 -46t-24 -81z" />
<glyph unicode="&#xa3;" horiz-adv-x="614" d="M601 92q-38 -44 -84 -68t-125 -24h-333v126q79 11 79 85v120h-84v72h84v93q0 91 54 147.5t155 56.5q119 0 198 -103l-93 -99q-41 64 -97 64q-77 0 -77 -81v-78h172v-72h-172v-111q0 -58 -38 -82h152q49 0 81.5 18t63.5 54z" />
<glyph unicode="&#xa4;" horiz-adv-x="533" d="M70 103l-46 46l70 71q-39 53 -39 124q0 70 41 127l-73 73l45 46l74 -73q56 40 124 40q70 0 124 -40l74 74l46 -46l-74 -73q42 -56 42 -128q0 -68 -38 -123l70 -71l-46 -46l-69 71q-55 -44 -129 -44q-67 0 -126 41zM266 255q37 0 63.5 26t26.5 63t-26.5 63t-63.5 26 q-36 0 -62 -26t-26 -63t26 -63t62 -26z" />
<glyph unicode="&#xa5;" horiz-adv-x="710" d="M711 700l-258 -387h137v-75h-165v-55h165v-75h-165v-108h-140v108h-165v75h165v55h-165v75h137l-258 387h169l187 -280l187 280h169z" />
<glyph unicode="&#xa6;" horiz-adv-x="322" d="M222 761v-388h-122v388h122zM222 284v-418h-122v418h122z" />
<glyph unicode="&#xa7;" horiz-adv-x="552" d="M284 712q125 0 211 -93l-86 -99q-20 25 -55.5 43.5t-72.5 18.5q-31 0 -48.5 -13.5t-17.5 -33.5q0 -23 29.5 -41t71.5 -33.5t84 -36t71.5 -60t29.5 -94.5q0 -91 -75 -138q50 -48 50 -120q0 -79 -55.5 -130t-151.5 -51q-125 0 -212 93l87 98q19 -25 54 -43t73 -18 q32 0 49 13.5t17 34.5q0 24 -29.5 42t-71.5 33t-84 35.5t-71.5 59.5t-29.5 94q0 93 77 138q-52 47 -52 121q0 80 56.5 130t151.5 50zM252 342q-27 -8 -44.5 -24t-17.5 -37q0 -24 23 -39.5t72 -34.5q10 -4 16 -6q26 8 43.5 24t17.5 37q0 25 -22 39.5t-73 34.5z" />
<glyph unicode="&#xa8;" horiz-adv-x="462" d="M50 644q0 33 22.5 55.5t55.5 22.5t55.5 -22.5t22.5 -55.5t-22.5 -55.5t-55.5 -22.5t-55.5 22.5t-22.5 55.5zM256 644q0 33 22.5 55.5t55.5 22.5t55.5 -22.5t22.5 -55.5t-22.5 -55.5t-55.5 -22.5t-55.5 22.5t-22.5 55.5z" />
<glyph unicode="&#xa9;" horiz-adv-x="824" d="M50 350q0 155 103 258.5t259 103.5t259 -103.5t103 -258.5t-103 -258.5t-259 -103.5t-259 103.5t-103 258.5zM687 350q0 121 -77 198t-198 77t-197.5 -77t-76.5 -198t76.5 -197.5t197.5 -76.5t198 76.5t77 197.5zM223 352q0 84 56.5 140.5t140.5 56.5q87 0 146 -65 l-39 -67q-50 52 -108 52q-49 0 -82.5 -32.5t-33.5 -84.5q0 -53 33.5 -85.5t83.5 -32.5q55 0 107 50l39 -67q-58 -63 -145 -63q-85 0 -141.5 56.5t-56.5 141.5z" />
<glyph unicode="&#xaa;" horiz-adv-x="458" d="M183 322q-60 0 -96.5 34t-36.5 90q0 57 37.5 86.5t95.5 35.5l121 13q0 54 -74 54q-76 0 -102 -48l-73 68q54 74 176 74q177 0 177 -160v-239h-104v55q-43 -63 -121 -63zM215 417q37 0 63 22t26 54v8l-99 -13q-39 -6 -39 -35q0 -36 49 -36z" />
<glyph unicode="&#xab;" horiz-adv-x="645" d="M274 498l88 -80l-150 -158l150 -158l-88 -79l-224 237zM534 498l88 -80l-150 -158l150 -158l-88 -79l-224 237z" />
<glyph unicode="&#xac;" d="M583 457v-319h-140v179h-387v140h527z" />
<glyph unicode="&#xad;" horiz-adv-x="530" d="M450 370v-140h-370v140h370z" />
<glyph unicode="&#xae;" horiz-adv-x="824" d="M412 712q156 0 259 -103.5t103 -258.5t-103 -258.5t-259 -103.5t-259 103.5t-103 258.5t103 258.5t259 103.5zM412 76q121 0 198 76.5t77 197.5t-77 198t-198 77t-197.5 -77t-76.5 -198t76.5 -197.5t197.5 -76.5zM566 420q0 -42 -21.5 -72t-60.5 -41l83 -136h-84l-75 130 h-53v-130h-70v368h155q56 0 91 -33.5t35 -85.5zM355 470v-100h83q23 0 38.5 13.5t15.5 36.5q0 21 -15 35.5t-39 14.5h-83z" />
<glyph unicode="&#xaf;" horiz-adv-x="400" d="M350 695v-99h-300v99h300z" />
<glyph unicode="&#xb0;" horiz-adv-x="395" d="M50 590q0 62 42 102.5t106 40.5q63 0 105 -41t42 -102t-42 -101.5t-105 -40.5q-64 0 -106 40.5t-42 101.5zM260 590q0 27 -17 44.5t-45 17.5q-29 0 -45.5 -17.5t-16.5 -44.5t16.5 -44.5t45.5 -17.5q28 0 45 17.5t17 44.5z" />
<glyph unicode="&#xb1;" d="M389 606v-111h201v-139h-201v-110h-138v110h-201v139h201v111h138zM590 187v-139h-540v139h540z" />
<glyph unicode="&#xb2;" horiz-adv-x="367" d="M29 731q51 89 153 89q66 0 105 -37t39 -98q0 -67 -53 -118l-76 -70h129v-97h-286v76l155 146q34 32 34 57q0 20 -13.5 32t-36.5 12q-47 0 -79 -50z" />
<glyph unicode="&#xb3;" horiz-adv-x="363" d="M24 763q46 57 143 57q72 0 111 -32t39 -84q0 -38 -19 -62t-45 -32q26 -8 45 -32t19 -62q0 -52 -39 -84t-111 -32q-96 0 -143 58l62 73q29 -34 81 -34q54 0 54 33t-53 33h-34v94h34q53 2 53 33q0 33 -54 33q-51 0 -81 -34z" />
<glyph unicode="&#xb4;" horiz-adv-x="383" d="M275 767l58 -92l-225 -136l-58 92z" />
<glyph unicode="&#xb5;" d="M91 -200v700h135v-278q0 -107 84 -107q54 0 80.5 39.5t26.5 106.5v239h133v-500h-128v76q-59 -88 -158 -88q-27 0 -45 9v-197h-128z" />
<glyph unicode="&#xb6;" horiz-adv-x="579" d="M537 700v-834h-117v722h-104v-722h-117v452q-77 7 -126 62.5t-49 133.5q0 80 57.5 133t144.5 53h311z" />
<glyph unicode="&#xb7;" horiz-adv-x="390" d="M195 260q-38 0 -64.5 26t-26.5 65t26.5 65t64.5 26q39 0 65 -26t26 -65t-26 -65t-65 -26z" />
<glyph unicode="&#xb8;" horiz-adv-x="299" d="M189 18q60 -50 60 -108q0 -48 -31.5 -77t-84.5 -29q-36 0 -83 18v103q50 -15 66 -15q23 0 23 22q0 36 -53 86h103z" />
<glyph unicode="&#xb9;" horiz-adv-x="319" d="M253 820v-420h-96v268l-72 -69l-67 70l155 151h80z" />
<glyph unicode="&#xba;" horiz-adv-x="518" d="M50 525q0 89 59 146.5t150 57.5t150 -57.5t59 -146.5t-59 -146.5t-150 -57.5t-150 57.5t-59 146.5zM358 525q0 43 -28 71.5t-71 28.5t-71 -28.5t-28 -71.5t28 -71.5t71 -28.5t71 28.5t28 71.5z" />
<glyph unicode="&#xbb;" horiz-adv-x="646" d="M111 23l-87 79l150 158l-150 158l87 80l225 -238zM371 23l-87 79l150 158l-150 158l87 80l225 -238z" />
<glyph unicode="&#xbc;" horiz-adv-x="895" d="M714 725l65 -54l-562 -696l-65 54zM189 280v268l-72 -69l-67 70l155 151h80v-420h-96zM845 155v-96h-53v-59h-97v59h-213v82l230 279h80v-265h53zM619 155h76v95z" />
<glyph unicode="&#xbd;" horiz-adv-x="912" d="M207 -25l-65 54l562 696l65 -54zM189 280v268l-72 -69l-67 70l155 151h80v-420h-96zM575 0v76l155 146q34 30 34 57q0 20 -13.5 32t-36.5 12q-47 0 -79 -50l-71 58q51 89 153 89q66 0 105.5 -37t39.5 -98q0 -66 -54 -118l-76 -70h130v-97h-287z" />
<glyph unicode="&#xbe;" horiz-adv-x="901" d="M729 725l65 -54l-561 -696l-65 54zM344 396q0 -52 -39.5 -84t-111.5 -32q-96 0 -143 58l63 73q27 -34 81 -34q53 0 53 33t-53 33h-34v94h34q53 1 53 33q0 33 -53 33q-52 0 -81 -34l-63 74q46 57 143 57q72 0 111.5 -32t39.5 -84q0 -38 -19 -62t-46 -32q27 -8 46 -32 t19 -62zM851 155v-96h-53v-59h-97v59h-213v82l230 279h80v-265h53zM625 155h76v95z" />
<glyph unicode="&#xbf;" horiz-adv-x="557" d="M305 310q-41 0 -68.5 27.5t-27.5 67.5t27.5 67.5t68.5 27.5q40 0 67 -27t27 -68t-27 -68t-67 -27zM380 269v-39q0 -34 -17.5 -65t-34 -46.5t-46.5 -39.5q-18 -14 -27.5 -23t-18.5 -23t-9 -29q0 -28 17.5 -46t52.5 -18q80 0 80 86h136q0 -108 -58.5 -167t-160.5 -59 q-96 0 -152 54.5t-56 141.5q0 54 20.5 88t58.5 68q4 3 18.5 15t19 16t14 14.5t13 18t7 18.5t3.5 23v12h140z" />
<glyph unicode="&#xc0;" horiz-adv-x="792" d="M526 803l-59 -93l-225 137l59 92zM631 0l-51 111h-368l-51 -111h-154l324 700h130l324 -700h-154zM277 251h238l-119 257z" />
<glyph unicode="&#xc1;" horiz-adv-x="792" d="M559 846l-225 -136l-59 92l225 136zM631 0l-51 111h-368l-51 -111h-154l324 700h130l324 -700h-154zM277 251h238l-119 257z" />
<glyph unicode="&#xc2;" horiz-adv-x="792" d="M396 813l-116 -100l-68 73l184 157l185 -157l-68 -73zM631 0l-51 111h-368l-51 -111h-154l324 700h130l324 -700h-154zM277 251h238l-119 257z" />
<glyph unicode="&#xc3;" horiz-adv-x="792" d="M332 775q-22 0 -66 -42l-65 67q69 79 129 79q30 0 72 -22t57 -22q24 0 66 42l65 -68q-66 -78 -128 -78q-30 0 -72.5 22t-57.5 22zM631 0l-51 111h-368l-51 -111h-154l324 700h130l324 -700h-154zM277 251h238l-119 257z" />
<glyph unicode="&#xc4;" horiz-adv-x="792" d="M293 729q-33 0 -55.5 22t-22.5 56q0 33 22.5 55.5t55.5 22.5t55.5 -22.5t22.5 -55.5q0 -34 -22.5 -56t-55.5 -22zM499 729q-33 0 -55.5 22t-22.5 56q0 33 22.5 55.5t55.5 22.5t55.5 -22.5t22.5 -55.5q0 -34 -22.5 -56t-55.5 -22zM631 0l-51 111h-368l-51 -111h-154 l324 700h130l324 -700h-154zM277 251h238l-119 257z" />
<glyph unicode="&#xc5;" horiz-adv-x="792" d="M631 0l-51 111h-368l-51 -111h-154l301 651q-44 37 -44 100q0 57 38 95t94 38t94 -38t38 -95q0 -63 -44 -100l301 -651h-154zM396 803q-22 0 -36.5 -14.5t-14.5 -37.5q0 -22 14.5 -36.5t36.5 -14.5t36.5 14.5t14.5 36.5t-14.5 37t-36.5 15zM277 251h238l-119 257z" />
<glyph unicode="&#xc6;" horiz-adv-x="1050" d="M7 0l462 700h526v-140h-312v-140h312v-140h-312v-140h312v-140h-452v110h-296l-72 -110h-168zM340 250h203v311z" />
<glyph unicode="&#xc7;" horiz-adv-x="646" d="M384 700q151 0 253 -96l-67 -129q-80 85 -187 85q-91 0 -150 -59t-59 -151t59 -151t149 -59q71 0 137 33l29 -137q-58 -24 -115 -33q44 -44 44 -93q0 -48 -31.5 -77t-84.5 -29q-36 0 -83 18v103q50 -15 66 -15q23 0 23 22q0 32 -39 72q-128 19 -211 115.5t-83 231.5 q0 149 100.5 249t249.5 100z" />
<glyph unicode="&#xc8;" horiz-adv-x="581" d="M369 710l-225 137l59 92l225 -136zM74 0v700h452v-140h-312v-140h312v-140h-312v-140h312v-140h-452z" />
<glyph unicode="&#xc9;" horiz-adv-x="581" d="M236 710l-59 92l225 136l59 -92zM74 0v700h452v-140h-312v-140h312v-140h-312v-140h312v-140h-452z" />
<glyph unicode="&#xca;" horiz-adv-x="581" d="M182 713l-68 73l184 157l185 -157l-68 -73l-117 100zM74 0v700h452v-140h-312v-140h312v-140h-312v-140h312v-140h-452z" />
<glyph unicode="&#xcb;" horiz-adv-x="581" d="M195 729q-33 0 -55.5 22t-22.5 56q0 33 22.5 55.5t55.5 22.5t55.5 -22.5t22.5 -55.5q0 -34 -22.5 -56t-55.5 -22zM401 729q-33 0 -55.5 22t-22.5 56q0 33 22.5 55.5t55.5 22.5t55.5 -22.5t22.5 -55.5q0 -34 -22.5 -56t-55.5 -22zM74 0v700h452v-140h-312v-140h312v-140 h-312v-140h312v-140h-452z" />
<glyph unicode="&#xcc;" horiz-adv-x="288" d="M139 727l-114 146l86 61l114 -146zM74 0v700h140v-700h-140z" />
<glyph unicode="&#xcd;" horiz-adv-x="288" d="M161 727l-86 61l114 146l86 -61zM74 0v700h140v-700h-140z" />
<glyph unicode="&#xce;" horiz-adv-x="288" d="M59 716l-69 60l153 157l152 -157l-69 -60l-83 87zM74 0v700h140v-700h-140z" />
<glyph unicode="&#xcf;" horiz-adv-x="288" d="M55 729q-33 0 -55.5 22t-22.5 56q0 33 22.5 55.5t55.5 22.5t55.5 -22.5t22.5 -55.5q0 -34 -22.5 -56t-55.5 -22zM233 729q-33 0 -55.5 22t-22.5 56q0 33 22.5 55.5t55.5 22.5t55.5 -22.5t22.5 -55.5q0 -34 -22.5 -56t-55.5 -22zM74 0v700h140v-700h-140z" />
<glyph unicode="&#xd0;" horiz-adv-x="702" d="M325 700q148 0 245.5 -99t97.5 -251t-97.5 -251t-245.5 -99h-254v285h-74v140h74v275h254zM325 140q89 0 146 59.5t57 150.5t-57 150.5t-146 59.5h-114v-135h142v-140h-142v-145h114z" />
<glyph unicode="&#xd1;" horiz-adv-x="788" d="M460 731q-30 0 -73 22t-57 22q-22 0 -66 -42l-65 67q69 79 129 79q30 0 72 -22t57 -22q24 0 66 42l65 -68q-66 -78 -128 -78zM74 0v700h122l378 -460v460h140v-700h-122l-378 460v-460h-140z" />
<glyph unicode="&#xd2;" horiz-adv-x="768" d="M455 710l-225 137l59 92l225 -136zM384 0q-150 0 -250 100t-100 250t100 250t250 100t250 -100t100 -250t-100 -250t-250 -100zM384 140q92 0 151 59t59 151t-59 151t-151 59t-151 -59t-59 -151t59 -151t151 -59z" />
<glyph unicode="&#xd3;" horiz-adv-x="768" d="M322 710l-59 92l225 136l59 -92zM384 0q-150 0 -250 100t-100 250t100 250t250 100t250 -100t100 -250t-100 -250t-250 -100zM384 140q92 0 151 59t59 151t-59 151t-151 59t-151 -59t-59 -151t59 -151t151 -59z" />
<glyph unicode="&#xd4;" horiz-adv-x="768" d="M268 713l-68 73l184 157l185 -157l-68 -73l-117 100zM384 0q-150 0 -250 100t-100 250t100 250t250 100t250 -100t100 -250t-100 -250t-250 -100zM384 140q92 0 151 59t59 151t-59 151t-151 59t-151 -59t-59 -151t59 -151t151 -59z" />
<glyph unicode="&#xd5;" horiz-adv-x="768" d="M450 731q-30 0 -73 22t-57 22q-22 0 -66 -42l-65 67q69 79 129 79q30 0 72 -22t57 -22q24 0 66 42l65 -68q-66 -78 -128 -78zM384 0q-150 0 -250 100t-100 250t100 250t250 100t250 -100t100 -250t-100 -250t-250 -100zM384 140q92 0 151 59t59 151t-59 151t-151 59 t-151 -59t-59 -151t59 -151t151 -59z" />
<glyph unicode="&#xd6;" horiz-adv-x="768" d="M281 729q-33 0 -55.5 22t-22.5 56q0 33 22.5 55.5t55.5 22.5t55.5 -22.5t22.5 -55.5q0 -34 -22.5 -56t-55.5 -22zM487 729q-33 0 -55.5 22t-22.5 56q0 33 22.5 55.5t55.5 22.5t55.5 -22.5t22.5 -55.5q0 -34 -22.5 -56t-55.5 -22zM384 0q-150 0 -250 100t-100 250t100 250 t250 100t250 -100t100 -250t-100 -250t-250 -100zM384 140q92 0 151 59t59 151t-59 151t-151 59t-151 -59t-59 -151t59 -151t151 -59z" />
<glyph unicode="&#xd7;" d="M480 578l99 -98l-161 -161l161 -160l-99 -99l-160 161l-161 -161l-98 99l161 160l-161 161l98 98l161 -161z" />
<glyph unicode="&#xd8;" horiz-adv-x="768" d="M639 595q95 -100 95 -245q0 -150 -100 -250t-250 -100q-110 0 -196 56l-52 -62l-54 45l51 62q-99 99 -99 249t100 250t250 100q113 0 201 -60l55 66l53 -46zM174 350q0 -85 50 -141l270 323q-48 28 -110 28q-92 0 -151 -59t-59 -151zM384 140q92 0 151 59t59 151 q0 80 -46 137l-269 -322q47 -25 105 -25z" />
<glyph unicode="&#xd9;" horiz-adv-x="767" d="M455 710l-225 137l59 92l225 -136zM384 0q-141 0 -233.5 90.5t-92.5 233.5v376h140v-376q0 -84 52.5 -134t133.5 -50t133 50t52 134v376h140v-376q0 -143 -92 -233.5t-233 -90.5z" />
<glyph unicode="&#xda;" horiz-adv-x="767" d="M322 710l-59 92l225 136l59 -92zM384 0q-141 0 -233.5 90.5t-92.5 233.5v376h140v-376q0 -84 52.5 -134t133.5 -50t133 50t52 134v376h140v-376q0 -143 -92 -233.5t-233 -90.5z" />
<glyph unicode="&#xdb;" horiz-adv-x="767" d="M268 713l-68 73l184 157l185 -157l-68 -73l-117 100zM384 0q-141 0 -233.5 90.5t-92.5 233.5v376h140v-376q0 -84 52.5 -134t133.5 -50t133 50t52 134v376h140v-376q0 -143 -92 -233.5t-233 -90.5z" />
<glyph unicode="&#xdc;" horiz-adv-x="767" d="M281 729q-33 0 -55.5 22t-22.5 56q0 33 22.5 55.5t55.5 22.5t55.5 -22.5t22.5 -55.5q0 -34 -22.5 -56t-55.5 -22zM487 729q-33 0 -55.5 22t-22.5 56q0 33 22.5 55.5t55.5 22.5t55.5 -22.5t22.5 -55.5q0 -34 -22.5 -56t-55.5 -22zM384 0q-141 0 -233.5 90.5t-92.5 233.5 v376h140v-376q0 -84 52.5 -134t133.5 -50t133 50t52 134v376h140v-376q0 -143 -92 -233.5t-233 -90.5z" />
<glyph unicode="&#xdd;" horiz-adv-x="710" d="M293 710l-59 92l225 136l59 -92zM285 0v271l-286 429h169l187 -280l187 280h169l-286 -429v-271h-140z" />
<glyph unicode="&#xde;" horiz-adv-x="623" d="M214 105v-105h-140v700h140v-105h113q110 0 179.5 -69.5t69.5 -175.5t-69.5 -175.5t-179.5 -69.5h-113zM214 455v-210h113q48 0 78 29.5t30 75.5t-30 75.5t-78 29.5h-113z" />
<glyph unicode="&#xdf;" horiz-adv-x="575" d="M58 471q0 108 58.5 174.5t169.5 66.5q99 0 153.5 -51t54.5 -126q0 -50 -26 -92t-68 -54q68 -10 108 -59t40 -125q0 -100 -65 -156t-173 -56q-26 0 -69 5v126q48 -3 56 -3q55 0 86.5 25.5t31.5 73.5q0 47 -32 74t-94 26h-38v112h23q43 0 66.5 22t23.5 60q0 32 -22.5 52 t-62.5 20q-43 0 -67.5 -29.5t-24.5 -85.5v-545h-129v545z" />
<glyph unicode="&#xe0;" horiz-adv-x="538" d="M186 768l224 -136l-58 -93l-225 136zM42 398q48 113 223 113q111 0 165 -50t54 -153v-309h-132v68q-51 -78 -154 -78q-74 0 -121.5 43.5t-47.5 112.5q0 65 43.5 107.5t116.5 49.5l137 12q26 3 26 20v8q0 50 -87 50q-100 0 -125 -64zM352 222l-124 -15q-62 -8 -62 -55 q0 -25 19 -39t52 -14q49 0 82 29.5t33 73.5v20z" />
<glyph unicode="&#xe1;" horiz-adv-x="538" d="M350 767l58 -92l-225 -136l-58 92zM42 398q48 113 223 113q111 0 165 -50t54 -153v-309h-132v68q-51 -78 -154 -78q-74 0 -121.5 43.5t-47.5 112.5q0 65 43.5 107.5t116.5 49.5l137 12q26 3 26 20v8q0 50 -87 50q-100 0 -125 -64zM352 222l-124 -15q-62 -8 -62 -55 q0 -25 19 -39t52 -14q49 0 82 29.5t33 73.5v20z" />
<glyph unicode="&#xe2;" horiz-adv-x="538" d="M269 768l185 -157l-69 -73l-116 100l-117 -100l-68 73zM42 398q48 113 223 113q111 0 165 -50t54 -153v-309h-132v68q-51 -78 -154 -78q-74 0 -121.5 43.5t-47.5 112.5q0 65 43.5 107.5t116.5 49.5l137 12q26 3 26 20v8q0 50 -87 50q-100 0 -125 -64zM352 222l-124 -15 q-62 -8 -62 -55q0 -25 19 -39t52 -14q49 0 82 29.5t33 73.5v20z" />
<glyph unicode="&#xe3;" horiz-adv-x="538" d="M334 552q-29 0 -71.5 22t-57.5 22q-22 0 -66 -42l-65 68q69 78 129 78q29 0 71.5 -22t57.5 -22q22 0 66 42l65 -68q-69 -78 -129 -78zM42 398q48 113 223 113q111 0 165 -50t54 -153v-309h-132v68q-51 -78 -154 -78q-74 0 -121.5 43.5t-47.5 112.5q0 65 43.5 107.5 t116.5 49.5l137 12q26 3 26 20v8q0 50 -87 50q-100 0 -125 -64zM352 222l-124 -15q-62 -8 -62 -55q0 -25 19 -39t52 -14q49 0 82 29.5t33 73.5v20z" />
<glyph unicode="&#xe4;" horiz-adv-x="538" d="M88 644q0 33 22.5 55.5t55.5 22.5t55.5 -22.5t22.5 -55.5t-22.5 -55.5t-55.5 -22.5t-55.5 22.5t-22.5 55.5zM294 644q0 33 22.5 55.5t55.5 22.5t55.5 -22.5t22.5 -55.5t-22.5 -55.5t-55.5 -22.5t-55.5 22.5t-22.5 55.5zM42 398q48 113 223 113q111 0 165 -50t54 -153 v-309h-132v68q-51 -78 -154 -78q-74 0 -121.5 43.5t-47.5 112.5q0 65 43.5 107.5t116.5 49.5l137 12q26 3 26 20v8q0 50 -87 50q-100 0 -125 -64zM352 222l-124 -15q-62 -8 -62 -55q0 -25 19 -39t52 -14q49 0 82 29.5t33 73.5v20z" />
<glyph unicode="&#xe5;" horiz-adv-x="538" d="M137 683q0 57 38 94.5t94 37.5t94 -37.5t38 -94.5t-38 -94.5t-94 -37.5t-94 37.5t-38 94.5zM320 683q0 22 -14.5 36.5t-36.5 14.5q-23 0 -37 -14t-14 -37q0 -22 14.5 -36.5t36.5 -14.5t36.5 14.5t14.5 36.5zM42 398q48 113 223 113q111 0 165 -50t54 -153v-309h-132v68 q-51 -78 -154 -78q-74 0 -121.5 43.5t-47.5 112.5q0 65 43.5 107.5t116.5 49.5l137 12q26 3 26 20v8q0 50 -87 50q-100 0 -125 -64zM352 222l-124 -15q-62 -8 -62 -55q0 -25 19 -39t52 -14q49 0 82 29.5t33 73.5v20z" />
<glyph unicode="&#xe6;" horiz-adv-x="879" d="M623 -12q-140 0 -207 98q-36 -45 -89.5 -71t-115.5 -26q-81 0 -131.5 43.5t-50.5 113.5q0 66 44.5 107.5t115.5 48.5l137 12q26 3 26 20v8q0 23 -22 36.5t-65 13.5q-100 0 -125 -64l-98 70q22 54 80.5 83.5t134.5 29.5q119 0 173 -76q66 77 180 77q110 0 176 -72.5 t66 -193.5v-36h-368v-2q12 -48 50 -72t87 -24q77 0 139 51l56 -109q-79 -66 -193 -66zM483 306h225q-5 42 -33 68t-76 26q-46 0 -76 -24t-40 -70zM237 99q50 0 82.5 30.5t32.5 72.5v20l-124 -15q-62 -9 -62 -55q0 -24 18.5 -38.5t52.5 -14.5z" />
<glyph unicode="&#xe7;" horiz-adv-x="502" d="M485 62q-52 -52 -128 -67q35 -42 35 -85q0 -48 -31.5 -77t-84.5 -29q-36 0 -83 18v103q50 -15 66 -15q23 0 23 22q0 25 -27 58q-103 11 -165.5 82t-62.5 178q0 116 74.5 189t192.5 73q117 0 190 -73l-75 -106q-50 50 -115 50q-58 0 -94.5 -37t-36.5 -96q0 -58 36.5 -95.5 t94.5 -37.5q65 0 118 51z" />
<glyph unicode="&#xe8;" horiz-adv-x="557" d="M201 768l224 -136l-58 -93l-225 136zM27 250q0 113 70 187.5t186 74.5q114 0 180.5 -72.5t66.5 -193.5v-36h-368l1 -2q11 -47 49 -71.5t85 -24.5q83 0 142 51l55 -109q-80 -66 -199 -66q-124 0 -196 73.5t-72 188.5zM386 306q-5 42 -32.5 68t-74.5 26q-98 0 -118 -94h225 z" />
<glyph unicode="&#xe9;" horiz-adv-x="557" d="M365 767l58 -92l-225 -136l-58 92zM27 250q0 113 70 187.5t186 74.5q114 0 180.5 -72.5t66.5 -193.5v-36h-368l1 -2q11 -47 49 -71.5t85 -24.5q83 0 142 51l55 -109q-80 -66 -199 -66q-124 0 -196 73.5t-72 188.5zM386 306q-5 42 -32.5 68t-74.5 26q-98 0 -118 -94h225z " />
<glyph unicode="&#xea;" horiz-adv-x="557" d="M284 768l185 -157l-69 -73l-116 100l-117 -100l-68 73zM27 250q0 113 70 187.5t186 74.5q114 0 180.5 -72.5t66.5 -193.5v-36h-368l1 -2q11 -47 49 -71.5t85 -24.5q83 0 142 51l55 -109q-80 -66 -199 -66q-124 0 -196 73.5t-72 188.5zM386 306q-5 42 -32.5 68t-74.5 26 q-98 0 -118 -94h225z" />
<glyph unicode="&#xeb;" horiz-adv-x="557" d="M103 644q0 33 22.5 55.5t55.5 22.5t55.5 -22.5t22.5 -55.5t-22.5 -55.5t-55.5 -22.5t-55.5 22.5t-22.5 55.5zM309 644q0 33 22.5 55.5t55.5 22.5t55.5 -22.5t22.5 -55.5t-22.5 -55.5t-55.5 -22.5t-55.5 22.5t-22.5 55.5zM27 250q0 113 70 187.5t186 74.5 q114 0 180.5 -72.5t66.5 -193.5v-36h-368l1 -2q11 -47 49 -71.5t85 -24.5q83 0 142 51l55 -109q-80 -66 -199 -66q-124 0 -196 73.5t-72 188.5zM386 306q-5 42 -32.5 68t-74.5 26q-98 0 -118 -94h225z" />
<glyph unicode="&#xec;" horiz-adv-x="264" d="M67 785l130 -187l-92 -55l-131 186zM198 500v-500h-132v500h132z" />
<glyph unicode="&#xed;" horiz-adv-x="264" d="M191 785l93 -56l-131 -186l-92 55zM198 500v-500h-132v500h132z" />
<glyph unicode="&#xee;" horiz-adv-x="264" d="M132 768l168 -162l-69 -68l-99 96l-99 -96l-69 68zM198 500v-500h-132v500h132z" />
<glyph unicode="&#xef;" horiz-adv-x="264" d="M-35 644q0 33 22.5 55.5t55.5 22.5t55.5 -22.5t22.5 -55.5t-22.5 -55.5t-55.5 -22.5t-55.5 22.5t-22.5 55.5zM143 644q0 33 22.5 55.5t55.5 22.5t55.5 -22.5t22.5 -55.5t-22.5 -55.5t-55.5 -22.5t-55.5 22.5t-22.5 55.5zM198 500v-500h-132v500h132z" />
<glyph unicode="&#xf0;" horiz-adv-x="609" d="M293 -12q-118 0 -192 74t-74 190q0 114 71 187t181 73q111 0 167 -88q-10 113 -113 190l-70 -63l-69 59l54 47q-43 17 -100 25l30 115q85 -10 158 -44l56 53l67 -60l-43 -41q64 -47 105 -124q56 -104 56 -251q0 -178 -87 -265q-75 -77 -197 -77zM429 248q0 61 -37 98 t-96 37q-60 0 -96.5 -36t-36.5 -95t37.5 -97t95.5 -38q59 0 96 36.5t37 94.5z" />
<glyph unicode="&#xf1;" horiz-adv-x="585" d="M358 552q-29 0 -71.5 22t-57.5 22q-22 0 -66 -42l-65 68q69 78 129 78q29 0 71.5 -22t57.5 -22q22 0 66 42l65 -68q-69 -78 -129 -78zM58 0v500h128v-76q58 88 163 88q84 0 130 -52t46 -147v-313h-135v277q0 108 -93 108q-107 0 -107 -146v-239h-132z" />
<glyph unicode="&#xf2;" horiz-adv-x="592" d="M213 768l224 -136l-58 -93l-225 136zM27 250q0 116 76 189t193 73t193 -73t76 -189t-76 -189t-193 -73t-193 73t-76 189zM429 250q0 59 -38 96t-95 37t-95 -37t-38 -96t38 -96t95 -37t95 37t38 96z" />
<glyph unicode="&#xf3;" horiz-adv-x="592" d="M377 767l58 -92l-225 -136l-58 92zM27 250q0 116 76 189t193 73t193 -73t76 -189t-76 -189t-193 -73t-193 73t-76 189zM429 250q0 59 -38 96t-95 37t-95 -37t-38 -96t38 -96t95 -37t95 37t38 96z" />
<glyph unicode="&#xf4;" horiz-adv-x="592" d="M296 768l185 -157l-69 -73l-116 100l-117 -100l-68 73zM27 250q0 116 76 189t193 73t193 -73t76 -189t-76 -189t-193 -73t-193 73t-76 189zM429 250q0 59 -38 96t-95 37t-95 -37t-38 -96t38 -96t95 -37t95 37t38 96z" />
<glyph unicode="&#xf5;" horiz-adv-x="592" d="M361 552q-29 0 -71.5 22t-57.5 22q-22 0 -66 -42l-65 68q69 78 129 78q29 0 71.5 -22t57.5 -22q22 0 66 42l65 -68q-69 -78 -129 -78zM27 250q0 116 76 189t193 73t193 -73t76 -189t-76 -189t-193 -73t-193 73t-76 189zM429 250q0 59 -38 96t-95 37t-95 -37t-38 -96 t38 -96t95 -37t95 37t38 96z" />
<glyph unicode="&#xf6;" horiz-adv-x="592" d="M115 644q0 33 22.5 55.5t55.5 22.5t55.5 -22.5t22.5 -55.5t-22.5 -55.5t-55.5 -22.5t-55.5 22.5t-22.5 55.5zM321 644q0 33 22.5 55.5t55.5 22.5t55.5 -22.5t22.5 -55.5t-22.5 -55.5t-55.5 -22.5t-55.5 22.5t-22.5 55.5zM27 250q0 116 76 189t193 73t193 -73t76 -189 t-76 -189t-193 -73t-193 73t-76 189zM429 250q0 59 -38 96t-95 37t-95 -37t-38 -96t38 -96t95 -37t95 37t38 96z" />
<glyph unicode="&#xf7;" d="M316 434q-40 0 -67 27t-27 67q0 41 27 68t67 27q41 0 68 -26.5t27 -68.5q0 -40 -27 -67t-68 -27zM36 249v140h568v-140h-568zM316 20q-40 0 -67 27t-27 67q0 41 27 68t67 27t67.5 -27.5t27.5 -67.5t-27 -67t-68 -27z" />
<glyph unicode="&#xf8;" horiz-adv-x="592" d="M496 432q69 -74 69 -182q0 -116 -76 -189t-193 -73q-81 0 -146 37l-33 -39l-52 44l32 37q-70 73 -70 183q0 116 76 189t193 73q80 0 147 -38l34 40l51 -45zM163 250q0 -46 23 -78l169 199q-27 12 -59 12q-57 0 -95 -37t-38 -96zM296 117q57 0 95 37t38 96q0 44 -22 77 l-169 -198q27 -12 58 -12z" />
<glyph unicode="&#xf9;" horiz-adv-x="578" d="M206 768l224 -136l-58 -93l-225 136zM518 500v-500h-128v76q-59 -88 -159 -88q-85 0 -129 53.5t-44 147.5v311h135v-278q0 -107 84 -107q54 0 81 39.5t27 106.5v239h133z" />
<glyph unicode="&#xfa;" horiz-adv-x="578" d="M370 767l58 -92l-225 -136l-58 92zM518 500v-500h-128v76q-59 -88 -159 -88q-85 0 -129 53.5t-44 147.5v311h135v-278q0 -107 84 -107q54 0 81 39.5t27 106.5v239h133z" />
<glyph unicode="&#xfb;" horiz-adv-x="578" d="M289 768l185 -157l-69 -73l-116 100l-117 -100l-68 73zM518 500v-500h-128v76q-59 -88 -159 -88q-85 0 -129 53.5t-44 147.5v311h135v-278q0 -107 84 -107q54 0 81 39.5t27 106.5v239h133z" />
<glyph unicode="&#xfc;" horiz-adv-x="578" d="M108 644q0 33 22.5 55.5t55.5 22.5t55.5 -22.5t22.5 -55.5t-22.5 -55.5t-55.5 -22.5t-55.5 22.5t-22.5 55.5zM314 644q0 33 22.5 55.5t55.5 22.5t55.5 -22.5t22.5 -55.5t-22.5 -55.5t-55.5 -22.5t-55.5 22.5t-22.5 55.5zM518 500v-500h-128v76q-59 -88 -159 -88 q-85 0 -129 53.5t-44 147.5v311h135v-278q0 -107 84 -107q54 0 81 39.5t27 106.5v239h133z" />
<glyph unicode="&#xfd;" horiz-adv-x="538" d="M350 767l58 -92l-225 -136l-58 92zM87 -200l122 272l-212 428h154l127 -274l124 274h140l-315 -700h-140z" />
<glyph unicode="&#xfe;" horiz-adv-x="611" d="M58 -200v900h132v-269q59 82 166 82q97 0 162.5 -70.5t65.5 -192.5t-65 -192.5t-161 -70.5q-108 0 -168 85v-272h-132zM317 116q57 0 94 37t37 97t-37 97t-94 37t-94 -36.5t-37 -97.5q0 -60 37 -97t94 -37z" />
<glyph unicode="&#xff;" horiz-adv-x="538" d="M88 644q0 33 22.5 55.5t55.5 22.5t55.5 -22.5t22.5 -55.5t-22.5 -55.5t-55.5 -22.5t-55.5 22.5t-22.5 55.5zM294 644q0 33 22.5 55.5t55.5 22.5t55.5 -22.5t22.5 -55.5t-22.5 -55.5t-55.5 -22.5t-55.5 22.5t-22.5 55.5zM87 -200l122 272l-212 428h154l127 -274l124 274 h140l-315 -700h-140z" />
<glyph unicode="&#x131;" horiz-adv-x="264" d="M198 500v-500h-132v500h132z" />
<glyph unicode="&#x13f;" horiz-adv-x="541" d="M74 0v700h140v-560h318v-140h-458zM397 288q-38 0 -64.5 26t-26.5 65t26.5 65t64.5 26q39 0 65 -26t26 -65t-26 -65t-65 -26z" />
<glyph unicode="&#x140;" horiz-adv-x="328" d="M191 700v-700h-133v700h133zM314 300q-38 0 -64.5 26t-26.5 65t26.5 65t64.5 26q39 0 65 -26t26 -65t-26 -65t-65 -26z" />
<glyph unicode="&#x152;" horiz-adv-x="891" d="M836 560h-312v-140h312v-140h-312v-140h312v-140h-452q-150 0 -250 100t-100 250t100 250t250 100h452v-140zM384 140v420q-92 0 -151 -59t-59 -151t59 -151t151 -59z" />
<glyph unicode="&#x153;" horiz-adv-x="955" d="M693 -12q-129 0 -197 90q-72 -90 -200 -90q-117 0 -193 73t-76 189t76 189t193 73q128 0 199 -90q64 90 186 90q114 0 180.5 -72.5t66.5 -193.5v-36h-368l1 -2q11 -47 49 -71.5t85 -24.5q83 0 142 51l56 -109q-82 -66 -200 -66zM784 306q-5 42 -32.5 68t-74.5 26 q-98 0 -118 -94h225zM429 250q0 59 -38 96t-95 37t-95 -37t-38 -96t38 -96t95 -37t95 37t38 96z" />
<glyph unicode="&#x178;" horiz-adv-x="710" d="M252 729q-33 0 -55.5 22t-22.5 56q0 33 22.5 55.5t55.5 22.5t55.5 -22.5t22.5 -55.5q0 -34 -22.5 -56t-55.5 -22zM458 729q-33 0 -55.5 22t-22.5 56q0 33 22.5 55.5t55.5 22.5t55.5 -22.5t22.5 -55.5q0 -34 -22.5 -56t-55.5 -22zM285 0v271l-286 429h169l187 -280 l187 280h169l-286 -429v-271h-140z" />
<glyph unicode="&#x237;" horiz-adv-x="278" d="M210 500v-515q0 -190 -209 -190q-23 0 -37 1v122h14q58 0 79 18.5t21 60.5v503h132z" />
<glyph unicode="&#x2c6;" horiz-adv-x="470" d="M235 768l185 -157l-69 -73l-116 100l-117 -100l-68 73z" />
<glyph unicode="&#x2dc;" horiz-adv-x="489" d="M310 552q-29 0 -71.5 22t-57.5 22q-22 0 -66 -42l-65 68q69 78 129 78q29 0 71.5 -22t57.5 -22q22 0 66 42l65 -68q-69 -78 -129 -78z" />
<glyph unicode="&#x2000;" horiz-adv-x="471" />
<glyph unicode="&#x2001;" horiz-adv-x="943" />
<glyph unicode="&#x2002;" horiz-adv-x="471" />
<glyph unicode="&#x2003;" horiz-adv-x="943" />
<glyph unicode="&#x2004;" horiz-adv-x="314" />
<glyph unicode="&#x2005;" horiz-adv-x="235" />
<glyph unicode="&#x2006;" horiz-adv-x="157" />
<glyph unicode="&#x2007;" horiz-adv-x="157" />
<glyph unicode="&#x2008;" horiz-adv-x="117" />
<glyph unicode="&#x2009;" horiz-adv-x="188" />
<glyph unicode="&#x200a;" horiz-adv-x="52" />
<glyph unicode="&#x2010;" horiz-adv-x="601" d="M534 370v-140h-466v140h466z" />
<glyph unicode="&#x2011;" horiz-adv-x="601" d="M534 370v-140h-466v140h466z" />
<glyph unicode="&#x2012;" horiz-adv-x="601" d="M534 370v-140h-466v140h466z" />
<glyph unicode="&#x2013;" horiz-adv-x="898" d="M831 370v-140h-763v140h763z" />
<glyph unicode="&#x2014;" horiz-adv-x="1309" d="M1242 370v-140h-1174v140h1174z" />
<glyph unicode="&#x2018;" horiz-adv-x="282" d="M174 712l68 -38l-72 -119q25 -11 40.5 -34t15.5 -51q0 -39 -27 -66.5t-66 -27.5t-66 27t-27 67q0 26 19 57z" />
<glyph unicode="&#x2019;" horiz-adv-x="282" d="M108 376l-68 38l72 119q-25 11 -40.5 34t-15.5 51q0 39 27 66.5t66 27.5t66 -27t27 -67q0 -26 -19 -57z" />
<glyph unicode="&#x201a;" horiz-adv-x="282" d="M108 -149l-68 38l72 119q-25 11 -40.5 34t-15.5 51q0 39 27 66.5t66 27.5t66 -27t27 -67q0 -26 -19 -57z" />
<glyph unicode="&#x201c;" horiz-adv-x="511" d="M174 712l68 -38l-72 -119q25 -11 40.5 -34t15.5 -51q0 -39 -27 -66.5t-66 -27.5t-66 27t-27 67q0 26 19 57zM403 712l68 -38l-72 -119q25 -11 40.5 -34t15.5 -51q0 -39 -27 -66.5t-66 -27.5t-66 27t-27 67q0 26 19 57z" />
<glyph unicode="&#x201d;" horiz-adv-x="511" d="M108 376l-68 38l72 119q-25 11 -40.5 34t-15.5 51q0 39 27 66.5t66 27.5t66 -27t27 -67q0 -26 -19 -57zM338 376l-68 38l72 119q-25 11 -40.5 34t-15.5 51q0 39 27 66.5t66 27.5t66 -27t27 -67q0 -26 -19 -57z" />
<glyph unicode="&#x201e;" horiz-adv-x="511" d="M117 -150l-68 38l72 119q-25 11 -40.5 34t-15.5 51q0 39 27 66.5t66 27.5t66 -27t27 -67q0 -26 -19 -57zM347 -150l-68 38l72 119q-25 11 -40.5 34t-15.5 51q0 39 27 66.5t66 27.5t66 -27t27 -67q0 -26 -19 -57z" />
<glyph unicode="&#x2022;" horiz-adv-x="456" d="M228 182q-60 0 -99 39t-39 98q0 60 39 99t99 39t99 -39t39 -99q0 -59 -39 -98t-99 -39z" />
<glyph unicode="&#x2026;" horiz-adv-x="970" d="M182 0q-40 0 -67 27t-27 68t27 68t67 27q41 0 68.5 -27.5t27.5 -67.5t-27.5 -67.5t-68.5 -27.5zM485 0q-41 0 -68 27t-27 68t27 68t68 27t68 -27t27 -68t-27 -68t-68 -27zM787 0q-41 0 -68 27t-27 68t27 68t68 27t68 -27t27 -68t-27 -68t-68 -27z" />
<glyph unicode="&#x202f;" horiz-adv-x="188" />
<glyph unicode="&#x2039;" horiz-adv-x="386" d="M274 498l88 -80l-150 -158l150 -158l-88 -79l-224 237z" />
<glyph unicode="&#x203a;" horiz-adv-x="386" d="M111 23l-87 79l150 158l-150 158l87 80l225 -238z" />
<glyph unicode="&#x2044;" horiz-adv-x="274" d="M386 725l65 -54l-562 -696l-65 54z" />
<glyph unicode="&#x205f;" horiz-adv-x="235" />
<glyph unicode="&#x2070;" horiz-adv-x="485" d="M41 610q0 94 57.5 152t143.5 58q87 0 144.5 -58t57.5 -152t-57.5 -152t-144.5 -58q-86 0 -143.5 58t-57.5 152zM348 610q0 54 -29 83.5t-77 29.5q-47 0 -76 -30t-29 -83t29 -83t76 -30q48 0 77 29.5t29 83.5z" />
<glyph unicode="&#x2074;" horiz-adv-x="426" d="M338 820v-265h53v-96h-53v-59h-97v59h-213v82l230 279h80zM241 650l-76 -95h76v95z" />
<glyph unicode="&#x2075;" horiz-adv-x="366" d="M323 820v-97h-173v-32q3 0 8 0.5t7 0.5q74 0 116 -38t42 -105q0 -70 -42.5 -109.5t-116.5 -39.5q-73 0 -140 36l39 87q50 -26 99 -26q29 0 46.5 13.5t17.5 35.5q0 50 -83 50q-47 0 -90 -9v233h270z" />
<glyph unicode="&#x2076;" horiz-adv-x="365" d="M188 400q-89 0 -129 68q-29 51 -29 130q0 98 44 160t138 62q48 0 104 -23l-34 -90q-42 16 -75 16q-32 0 -51.5 -15t-22.5 -37v-1q32 17 61 17q58 0 97 -38t39 -103q0 -66 -40 -106t-102 -40zM182 590q-23 0 -37 -12.5t-14 -34.5q0 -21 14.5 -33.5t36.5 -12.5 q23 0 37 12.5t14 34.5q0 20 -14.5 33t-36.5 13z" />
<glyph unicode="&#x2077;" horiz-adv-x="350" d="M321 820v-78l-181 -342h-108l171 323h-171v97h289z" />
<glyph unicode="&#x2078;" horiz-adv-x="378" d="M46 706q0 52 39.5 83t103.5 31q63 0 103 -31t40 -83q0 -30 -15.5 -56t-44.5 -40q29 -14 44.5 -40t15.5 -56q0 -52 -40 -83t-103 -31q-64 0 -103.5 31t-39.5 83q0 68 59 96q-28 13 -43.5 39.5t-15.5 56.5zM235 691q0 14 -12.5 23t-33.5 9t-33.5 -9t-12.5 -23q0 -32 46 -32 t46 32zM235 529q0 32 -46 32t-46 -32q0 -14 12.5 -23t33.5 -9t33.5 9t12.5 23z" />
<glyph unicode="&#x2079;" horiz-adv-x="370" d="M40 673q0 67 41.5 107t108.5 40q74 0 112 -51q38 -53 38 -149q0 -103 -44 -161.5t-134 -58.5q-52 0 -110 24l33 89q36 -16 78 -16q31 0 50 15t23 37v1q-36 -17 -61 -17q-58 0 -96.5 37.5t-38.5 102.5zM239 677q0 21 -14 33.5t-37 12.5t-37 -12.5t-14 -33.5t14 -34t37 -13 t37 13t14 34z" />
<glyph unicode="&#x207c;" horiz-adv-x="440" d="M391 703v-96h-341v96h341zM391 558v-97h-341v97h341z" />
<glyph unicode="&#x207d;" horiz-adv-x="242" d="M45 595q0 168 115 285l65 -57q-92 -109 -92 -228q0 -132 91 -243l-65 -55q-54 56 -84 136.5t-30 161.5z" />
<glyph unicode="&#x207e;" horiz-adv-x="242" d="M82 880q115 -117 115 -285q0 -81 -30 -161.5t-84 -136.5l-65 55q91 111 91 243q0 118 -91 228z" />
<glyph unicode="&#x2080;" horiz-adv-x="485" d="M41 60q0 94 57.5 152t143.5 58q87 0 144.5 -58t57.5 -152t-57.5 -152t-144.5 -58q-86 0 -143.5 58t-57.5 152zM348 60q0 54 -29 83.5t-77 29.5q-47 0 -76 -30t-29 -83t29 -83t76 -30q48 0 77 29.5t29 83.5z" />
<glyph unicode="&#x2081;" horiz-adv-x="319" d="M253 270v-420h-96v268l-72 -69l-67 70l155 151h80z" />
<glyph unicode="&#x2082;" horiz-adv-x="367" d="M29 181q51 89 153 89q66 0 105 -37t39 -98q0 -67 -53 -118l-76 -70h129v-97h-286v76l155 146q34 32 34 57q0 20 -13.5 32t-36.5 12q-47 0 -79 -50z" />
<glyph unicode="&#x2083;" horiz-adv-x="363" d="M24 213q46 57 143 57q72 0 111 -32t39 -84q0 -38 -19 -62t-45 -32q26 -8 45 -32t19 -62q0 -53 -39 -84.5t-111 -31.5q-98 0 -143 58l62 73q29 -34 81 -34q54 0 54 33t-53 33h-34v94h34q53 2 53 33q0 33 -54 33q-51 0 -81 -34z" />
<glyph unicode="&#x2084;" horiz-adv-x="426" d="M338 270v-265h53v-96h-53v-59h-97v59h-213v81l230 280h80zM241 100l-76 -95h76v95z" />
<glyph unicode="&#x2085;" horiz-adv-x="366" d="M323 270v-97h-173v-32q3 0 8 0.5t7 0.5q74 0 116 -38t42 -105q0 -70 -42.5 -109.5t-116.5 -39.5q-73 0 -140 36l39 87q50 -26 99 -26q29 0 46.5 13t17.5 35q0 51 -83 51q-47 0 -90 -9v233h270z" />
<glyph unicode="&#x2086;" horiz-adv-x="365" d="M188 -150q-89 0 -129 68q-29 49 -29 130q0 98 44 160t138 62q48 0 104 -23l-34 -90q-42 16 -75 16q-32 0 -51.5 -15t-22.5 -37v-1q32 17 61 17q58 0 97 -38.5t39 -103.5q0 -66 -40 -105.5t-102 -39.5zM182 40q-23 0 -37 -12.5t-14 -34.5q0 -21 14.5 -33.5t36.5 -12.5 q23 0 37 12.5t14 33.5t-14 34t-37 13z" />
<glyph unicode="&#x2087;" horiz-adv-x="350" d="M321 270v-78l-181 -342h-108l171 323h-171v97h289z" />
<glyph unicode="&#x2088;" horiz-adv-x="378" d="M46 156q0 52 39.5 83t103.5 31q63 0 103 -31t40 -83q0 -67 -60 -96q29 -14 44.5 -40t15.5 -56q0 -52 -40 -83t-103 -31q-64 0 -103.5 31t-39.5 83q0 68 59 96q-28 13 -43.5 39.5t-15.5 56.5zM235 141q0 14 -12.5 23t-33.5 9t-33.5 -9t-12.5 -23q0 -32 46 -32t46 32z M235 -21q0 32 -46 32t-46 -32q0 -14 12.5 -23t33.5 -9t33.5 9t12.5 23z" />
<glyph unicode="&#x2089;" horiz-adv-x="370" d="M40 123q0 67 41.5 107t108.5 40q74 0 112 -51q38 -53 38 -149q0 -103 -44 -161.5t-134 -58.5q-52 0 -110 24l33 89q36 -16 78 -16q31 0 50 15t23 37v1q-36 -17 -61 -17q-58 0 -96.5 37.5t-38.5 102.5zM239 127q0 21 -14 33.5t-37 12.5t-37 -12.5t-14 -33.5t14 -34t37 -13 t37 13t14 34z" />
<glyph unicode="&#x208a;" horiz-adv-x="440" d="M269 208v-118h117v-96h-117v-118h-98v118h-117v96h117v118h98z" />
<glyph unicode="&#x208c;" horiz-adv-x="440" d="M391 153v-96h-341v96h341zM391 8v-97h-341v97h341z" />
<glyph unicode="&#x208d;" horiz-adv-x="242" d="M45 45q0 168 115 285l65 -57q-92 -109 -92 -228q0 -132 91 -243l-65 -56q-54 57 -84 138t-30 161z" />
<glyph unicode="&#x208e;" horiz-adv-x="242" d="M82 330q115 -117 115 -285q0 -80 -30 -161t-84 -138l-65 56q91 111 91 243q0 118 -91 228z" />
<glyph unicode="&#x20ac;" horiz-adv-x="702" d="M468 140q90 0 158 59l65 -129q-94 -70 -221 -70q-125 0 -214.5 70t-118.5 185h-91l34 70h47q-1 8 -1 25t1 26h-75l34 70h52q28 114 117.5 184t214.5 70q127 0 221 -70l-65 -128q-69 58 -158 58q-66 0 -113.5 -30.5t-70.5 -83.5h310l-37 -70h-290q-1 -8 -1 -26 q0 -17 1 -25h262l-36 -70h-209q23 -54 70.5 -84.5t113.5 -30.5z" />
<glyph unicode="&#x2116;" horiz-adv-x="1317" d="M84 0v700h122l378 -460v460h140v-700h-122l-378 460v-460h-140zM1277 417q0 -101 -68 -167t-168 -66q-101 0 -169 66t-68 167q0 100 68 166t169 66q100 0 168 -66t68 -166zM1095 362q24 23 25 54.5t-23 57.5q-24 24 -55.5 23t-55.5 -25t-25 -55t23 -57q25 -25 56 -24 t55 26zM1256 114v-114h-430v114h430z" />
<glyph unicode="&#x2122;" horiz-adv-x="1017" d="M417 700v-104h-134v-293h-104v293h-135v104h373zM973 700v-397h-104v200l-113 -200h-79l-114 200v-200h-104v397h103l154 -265l154 265h103z" />
<glyph unicode="&#x25fc;" horiz-adv-x="500" d="M0 500h500v-500h-500v500z" />
<glyph unicode="&#xfb03;" horiz-adv-x="1052" d="M921 559q-36 0 -60 24t-24 60t24 60.5t60 24.5t60 -24.5t24 -60.5t-24 -60t-60 -24zM110 0v389h-101v111h101v25q0 93 49.5 139.5t131.5 46.5q39 0 98 -9v-122q-50 8 -76 8q-39 0 -55 -18.5t-16 -58.5v-11h263v25q0 93 49.5 139.5t131.5 46.5q39 0 98 -9v-122 q-50 8 -76 8q-39 0 -55 -18.5t-16 -58.5v-11h142v-111h-142v-389h-132v389h-263v-389h-132zM855 0v500h132v-500h-132z" />
<glyph unicode="&#xfb04;" horiz-adv-x="1044" d="M505 389h-263v-389h-132v389h-101v111h101v25q0 93 49.5 139.5t131.5 46.5q39 0 98 -9v-122q-50 8 -76 8q-39 0 -55 -18.5t-16 -58.5v-11h263v25q0 93 49.5 139.5t131.5 46.5q39 0 98 -9v-122q-50 8 -76 8q-39 0 -55 -18.5t-16 -58.5v-11h142v-111h-142v-389h-132v389z M981 700v-700h-133v700h133z" />
<glyph horiz-adv-x="776" d="M609 619q113 -100 113 -269q0 -154 -96 -252t-238 -98q-93 0 -171 45l-39 -57l-58 39l41 60q-107 101 -107 263q0 154 96 252t238 98q91 0 164 -41l36 53l57 -40zM194 350q0 -89 47 -145l231 337q-38 18 -84 18q-86 0 -140 -57t-54 -153zM388 140q85 0 139.5 57.5 t54.5 152.5q0 93 -53 152l-233 -341q40 -21 92 -21z" />
<glyph d="M50 350q0 168 76 259t194 91t194 -91.5t76 -258.5q0 -168 -76 -259t-194 -91t-194 91t-76 259zM450 350q0 108 -35 159t-95 51t-95 -51t-35 -159q0 -109 35 -159.5t95 -50.5t95 50.5t35 159.5zM238 350q0 34 24 57.5t58 23.5t57.5 -23.5t23.5 -57.5t-23.5 -57.5 t-57.5 -23.5t-58 23.5t-24 57.5z" />
<glyph d="M67 0v140h219v343l-136 -131l-97 101l255 247h118v-560h165v-140h-524z" />
<glyph d="M73 549q86 151 255 151q107 0 171 -61t64 -159q0 -110 -97 -205l-142 -135h240v-140h-465v112l261 250q63 63 63 111q0 38 -27.5 62.5t-71.5 24.5q-48 0 -85.5 -27.5t-61.5 -69.5z" />
<glyph d="M79 585q30 51 93.5 83t144.5 32q112 0 176 -53t64 -141q0 -59 -28.5 -99t-69.5 -57q41 -17 69.5 -57t28.5 -99q0 -88 -64 -141t-176 -53q-81 0 -144.5 32t-93.5 83l95 104q23 -38 62 -58.5t82 -20.5q47 0 73 18.5t26 52.5q0 32 -26 51t-74 19h-54v138h54q49 0 74.5 19 t25.5 52t-26 51.5t-73 18.5q-44 0 -83 -20.5t-62 -58.5z" />
<glyph d="M509 700v-449h87v-140h-87v-111h-140v111h-326v120l351 469h115zM369 443l-138 -192h138v192z" />
<glyph d="M559 700v-140h-293v-84q24 4 40 4q118 0 185.5 -63t67.5 -173q0 -112 -68.5 -178t-185.5 -66q-124 0 -224 62l59 126q82 -48 163 -48q53 0 84.5 27.5t31.5 73.5q0 100 -141 100q-67 0 -152 -20v379h433z" />
<glyph d="M75 322q0 60 9 113.5t31 102.5t55 84.5t83.5 56.5t113.5 21q77 0 169 -43l-55 -127q-65 30 -122 30q-58 0 -93.5 -35t-39.5 -85q56 32 111 32q97 0 162 -63.5t65 -169.5q0 -107 -67 -173t-169 -66q-140 0 -206 108q-47 78 -47 214zM424 237q0 43 -28 69t-73 26t-73.5 -27 t-28.5 -69q0 -44 29 -70t73 -26t72.5 27t28.5 70z" />
<glyph d="M565 700v-117l-305 -583h-158l294 560h-308v140h477z" />
<glyph d="M87 509q0 86 65 138.5t168 52.5t168 -52.5t65 -138.5q0 -109 -97 -159q47 -24 72 -66t25 -92q0 -87 -65 -139.5t-168 -52.5t-168 52.5t-65 139.5q0 50 25 92t72 66q-97 50 -97 159zM413 491q0 31 -25.5 50t-67.5 19t-67.5 -19t-25.5 -50q0 -32 26 -51.5t67 -19.5t67 19 t26 52zM413 209q0 33 -26 52t-67 19t-67 -19t-26 -52q0 -31 25.5 -50t67.5 -19t67.5 19t25.5 50z" />
<glyph d="M75 459q0 108 68.5 174.5t175.5 66.5q121 0 187 -89q58 -81 58 -238q0 -81 -15.5 -146t-48 -117t-90 -81t-135.5 -29q-86 0 -176 42l50 127q64 -29 128 -29q61 0 96 35.5t38 83.5q-55 -31 -110 -31q-97 0 -161.5 62.5t-64.5 168.5zM417 465q0 43 -28.5 69t-72.5 26 t-72.5 -27t-28.5 -70t28 -69t72 -26q45 0 73.5 27t28.5 70z" />
<glyph d="M362 410q41 -13 71 -27.5t58 -38.5t43 -59.5t15 -82.5q0 -88 -53.5 -140t-143.5 -61v-81h-65v82q-77 8 -132 51.5t-72 123.5l125 54q16 -73 79 -87v145q-1 0 -2.5 0.5t-2.5 0.5q-38 11 -68 25.5t-60.5 38.5t-47 61.5t-16.5 85.5q0 85 53.5 137t143.5 60v82h65v-82 q79 -8 133 -53t72 -122l-127 -51q-17 71 -78 85v-144zM230 499q0 -40 57 -64v122q-57 -10 -57 -58zM352 142q57 10 57 60q0 42 -57 66v-126z" />
<glyph d="M498 169l70 -110q-82 -65 -189 -69v-67h-65v69q-103 13 -166 84t-63 175t63 175t166 84v69h65v-67q107 -4 189 -69l-70 -109q-59 44 -119 49v-264q58 5 119 50zM221 251q0 -48 24.5 -82t68.5 -46v256q-44 -12 -68.5 -46t-24.5 -82z" />
<glyph d="M590 92q-37 -44 -83 -68t-125 -24h-331v126q38 5 57 25t19 60v102h-80v90h80v81q0 96 57 156t164 60q129 0 213 -103l-93 -99q-46 64 -112 64q-43 0 -66 -24.5t-23 -68.5v-66h179v-90h-179v-93q0 -57 -38 -82h153q49 0 81.5 18t63.5 54z" />
<glyph d="M635 700l-221 -387h141v-75h-165v-55h165v-75h-165v-108h-140v108h-165v75h165v55h-165v75h141l-221 387h169l146 -286l146 286h169z" />
<glyph d="M542 36q-72 -36 -140 -36q-110 0 -191 69t-106 186h-84l33 70h41q-1 8 -1 25t1 26h-68l34 70h43q26 117 107.5 185.5t192.5 68.5q127 0 216 -76l-67 -129q-62 65 -149 65q-54 0 -94 -30.5t-59 -83.5h278l-37 -70h-257q-1 -9 -1 -26q0 -9 2 -25h228l-37 -70h-177 q18 -54 58 -84.5t93 -30.5q58 0 112 34z" />
<glyph horiz-adv-x="525" d="M329 710l-59 92l225 136l59 -92zM235 0q-104 0 -163.5 63.5t-59.5 153.5l127 57q0 -134 97 -134q85 0 85 102v458h140v-459q0 -116 -63 -178.5t-163 -62.5z" />
<glyph horiz-adv-x="668" d="M44 351q0 149 100.5 249t250.5 100q149 0 252 -95l-67 -128q-81 83 -186 83q-92 0 -151 -58.5t-59 -151.5q0 -92 59 -151t149 -59q115 0 197 89l69 -130q-108 -99 -264 -99q-149 0 -249.5 100.5t-100.5 250.5z" />
<glyph horiz-adv-x="668" d="M453 4q44 -44 44 -94q0 -48 -31.5 -77t-84.5 -29q-36 0 -83 18v103q50 -15 66 -15q23 0 23 22q0 30 -38 71q-133 15 -219 112.5t-86 235.5q0 149 100.5 249t250.5 100q149 0 252 -95l-67 -128q-81 83 -186 83q-92 0 -151 -58.5t-59 -151.5q0 -92 59 -151t149 -59 q115 0 197 89l69 -130q-86 -79 -205 -95z" />
<glyph horiz-adv-x="746" d="M34 349q0 153 99 252t257 99q157 0 257 -99l-68 -130q-77 89 -196 89q-92 0 -150.5 -58.5t-58.5 -151.5q0 -94 59 -152.5t154 -58.5q61 0 111 31.5t62 89.5h-196v140h357v-46q0 -166 -94.5 -260t-236.5 -94q-157 0 -256.5 98.5t-99.5 250.5z" />
<glyph horiz-adv-x="642" d="M622 0h-171l-150 234h-87v-234h-140v700h298q100 0 166.5 -67t66.5 -166q0 -77 -41 -135.5t-109 -82.5zM214 560v-186h158q40 0 66.5 26t26.5 67t-26 67t-67 26h-158z" />
<glyph horiz-adv-x="278" d="M203 785l93 -56l-131 -186l-92 55zM210 500v-515q0 -190 -209 -190q-23 0 -37 1v122h14q58 0 79 18.5t21 60.5v503h132z" />
<glyph horiz-adv-x="348" d="M125 393q-44 0 -72.5 26t-28.5 68q0 40 26.5 65t68.5 29l81 8q15 1 15 11v2q0 22 -47 22q-57 0 -73 -32l-65 50q33 65 140 65q135 0 135 -127v-181h-90v40q-31 -46 -90 -46zM154 466q27 0 44 15.5t17 39.5v8l-65 -8q-32 -5 -32 -28q0 -27 36 -27z" />
<glyph horiz-adv-x="388" d="M230 392q-62 0 -98 49v-41h-91v420h91v-162q35 50 100 50q55 0 93 -42t38 -116t-38.5 -116t-94.5 -42zM200 482q29 0 49 18.5t20 49.5t-20 49.5t-49 18.5q-30 0 -49.5 -18.5t-19.5 -49.5t19.5 -49.5t49.5 -18.5z" />
<glyph horiz-adv-x="322" d="M187 393q-70 0 -115.5 43t-45.5 114t45.5 114t115.5 43q72 0 116 -44l-50 -73q-26 28 -64 28q-30 0 -50 -19t-20 -49t19.5 -49t49.5 -19q37 0 65 28l50 -74q-45 -43 -116 -43z" />
<glyph horiz-adv-x="388" d="M158 392q-56 0 -94 41.5t-38 116.5t37.5 116.5t93.5 41.5q64 0 99 -50v162h91v-420h-91v41q-36 -49 -98 -49zM188 482q30 0 49.5 18.5t19.5 49.5t-19.5 49.5t-49.5 18.5q-29 0 -49 -18.5t-20 -49.5t20 -49.5t49 -18.5z" />
<glyph horiz-adv-x="357" d="M189 393q-77 0 -120 45t-43 113t42.5 112t113.5 44q68 0 109 -43t41 -117v-25h-213v-1q18 -43 73 -43q46 0 81 25l36 -76q-45 -34 -120 -34zM117 587h115q-2 19 -17 31.5t-38 12.5q-47 0 -60 -44z" />
<glyph horiz-adv-x="273" d="M76 400v225h-62v75h62v14q0 55 31.5 84t82.5 29q22 0 64 -6v-84q-30 6 -48 6q-38 0 -38 -40v-3h84v-75h-84v-225h-92z" />
<glyph horiz-adv-x="392" d="M177 272q-78 0 -131 36l38 79q41 -28 87 -28q87 0 87 69v16q-32 -45 -93 -45q-60 0 -99.5 40t-39.5 113t39.5 114t96.5 41q64 0 94 -50v43h92v-278q0 -67 -40.5 -108.5t-130.5 -41.5zM189 482q30 0 49.5 18.5t19.5 49.5t-19.5 49.5t-49.5 18.5q-29 0 -49 -18.5t-20 -49.5 t20 -49.5t49 -18.5z" />
<glyph horiz-adv-x="372" d="M41 400v420h91v-164q35 51 95 51q50 0 76.5 -30.5t26.5 -86.5v-190h-93v161q0 58 -48 58q-57 0 -57 -73v-146h-91z" />
<glyph horiz-adv-x="184" d="M92 731q-24 0 -39 15.5t-15 39.5q0 23 15 38.5t39 15.5q23 0 39 -15.5t16 -38.5t-16 -39t-39 -16zM47 400v300h91v-300h-91z" />
<glyph horiz-adv-x="191" d="M99 731q-23 0 -38.5 16t-15.5 39t15.5 38.5t38.5 15.5t39 -15.5t16 -38.5t-16 -39t-39 -16zM17 276q-18 0 -31 2v83h12q32 0 44 10t12 33v296h91v-307q0 -117 -128 -117z" />
<glyph horiz-adv-x="361" d="M41 400v420h91v-223l97 103h120l-130 -129l129 -171h-116l-75 111l-25 -25v-86h-91z" />
<glyph horiz-adv-x="174" d="M41 400v420h92v-420h-92z" />
<glyph horiz-adv-x="565" d="M41 400v300h89v-44q33 51 93 51q65 0 90 -54q28 54 97 54q49 0 80.5 -32t31.5 -88v-187h-92v161q0 58 -47 58q-56 0 -56 -73v-146h-91v161q0 58 -48 58q-56 0 -56 -73v-146h-91z" />
<glyph horiz-adv-x="373" d="M41 400v300h89v-44q36 51 97 51q50 0 76.5 -30.5t26.5 -86.5v-190h-93v161q0 58 -48 58q-57 0 -57 -73v-146h-91z" />
<glyph horiz-adv-x="377" d="M188 393q-71 0 -116.5 43.5t-45.5 113.5q0 71 45.5 114t116.5 43t117 -43t46 -114q0 -70 -46 -113.5t-117 -43.5zM188 482q29 0 49.5 18.5t20.5 49.5t-20.5 49.5t-49.5 18.5t-49 -18.5t-20 -49.5t20 -49.5t49 -18.5z" />
<glyph horiz-adv-x="388" d="M41 280v420h91v-41q36 49 98 49q56 0 94.5 -42t38.5 -116t-38 -116t-93 -42q-65 0 -100 50v-162h-91zM200 482q29 0 49 18.5t20 49.5t-20 49.5t-49 18.5q-30 0 -49.5 -18.5t-19.5 -49.5t19.5 -49.5t49.5 -18.5z" />
<glyph horiz-adv-x="388" d="M256 280v162q-35 -50 -99 -50q-56 0 -93.5 41.5t-37.5 116.5t38 116.5t94 41.5q62 0 98 -49v41h91v-420h-91zM188 482q30 0 49.5 18.5t19.5 49.5t-19.5 49.5t-49.5 18.5q-29 0 -49 -18.5t-20 -49.5t20 -49.5t49 -18.5z" />
<glyph horiz-adv-x="255" d="M41 400v300h88v-51q25 58 83 58q14 0 29 -5v-97q-18 5 -38 5q-71 0 -71 -76v-134h-91z" />
<glyph horiz-adv-x="310" d="M155 393q-92 0 -133 41l47 74q39 -35 97 -35q31 0 31 15q0 7 -11.5 11t-55.5 14q-94 20 -94 96q0 47 35 72.5t98 25.5q73 0 120 -36l-46 -70q-30 25 -83 25q-29 0 -29 -13q0 -7 11 -11t58 -14q44 -9 67.5 -31t23.5 -65q0 -99 -136 -99z" />
<glyph horiz-adv-x="264" d="M159 397q-90 0 -90 98v130h-52v75h52v80h91v-80h74v-75h-74v-112q0 -24 28 -24q12 0 42 5v-87q-42 -10 -71 -10z" />
<glyph horiz-adv-x="369" d="M142 393q-48 0 -74.5 30.5t-26.5 86.5v190h93v-162q0 -57 44 -57q26 0 41 19.5t15 54.5v145h91v-300h-88v46q-35 -53 -95 -53z" />
<glyph horiz-adv-x="351" d="M141 400l-136 300h100l70 -168l71 168h100l-136 -300h-69z" />
<glyph horiz-adv-x="527" d="M126 400l-121 300h98l59 -161l64 161h75l64 -161l59 161h98l-121 -300h-69l-68 163l-69 -163h-69z" />
<glyph horiz-adv-x="368" d="M14 400l116 155l-109 145h108l56 -73l54 73h109l-109 -145l116 -155h-109l-62 82l-62 -82h-108z" />
<glyph horiz-adv-x="346" d="M58 280l73 164l-126 256h105l69 -149l66 149h95l-186 -420h-96z" />
<glyph horiz-adv-x="321" d="M23 400v69l144 148h-132v83h259v-69l-146 -147h151v-84h-276z" />
<glyph horiz-adv-x="776" d="M388 0q-142 0 -238 98t-96 252t96 252t238 98t238 -98t96 -252t-96 -252t-238 -98zM388 140q85 0 139.5 57.5t54.5 152.5t-54.5 152.5t-139.5 57.5q-86 0 -140 -57t-54 -153t54 -153t140 -57z" />
<glyph horiz-adv-x="485" d="M41 210q0 94 57.5 152t143.5 58q87 0 144.5 -58t57.5 -152t-57.5 -152t-144.5 -58q-86 0 -143.5 58t-57.5 152zM348 210q0 54 -29 83.5t-77 29.5q-47 0 -76 -30t-29 -83t29 -83t76 -30q48 0 77 29.5t29 83.5z" />
<glyph horiz-adv-x="319" d="M253 420v-420h-96v268l-72 -69l-67 70l155 151h80z" />
<glyph horiz-adv-x="367" d="M29 331q51 89 153 89q66 0 105 -37t39 -98q0 -67 -53 -118l-76 -70h129v-97h-286v76l155 146q34 32 34 57q0 20 -13.5 32t-36.5 12q-47 0 -79 -50z" />
<glyph horiz-adv-x="363" d="M24 363q46 57 143 57q72 0 111 -32t39 -84q0 -38 -19 -62t-45 -32q26 -8 45 -32t19 -62q0 -52 -39 -84t-111 -32q-96 0 -143 58l62 73q29 -34 81 -34q54 0 54 33t-53 33h-34v94h34q53 2 53 33q0 33 -54 33q-51 0 -81 -34z" />
<glyph horiz-adv-x="426" d="M338 420v-265h53v-96h-53v-59h-97v59h-213v82l230 279h80zM241 250l-76 -95h76v95z" />
<glyph horiz-adv-x="366" d="M323 420v-97h-173v-32l6 1h9q73 0 115.5 -37t42.5 -106q0 -71 -43.5 -110t-115.5 -39t-140 36l39 87q54 -26 99 -26q28 0 46 12.5t18 36.5q0 50 -83 50q-33 0 -90 -9v233h270z" />
<glyph horiz-adv-x="365" d="M188 0q-89 0 -129 68q-29 51 -29 130q0 98 44 160t138 62q48 0 104 -23l-34 -90q-42 16 -75 16q-32 0 -51.5 -15t-22.5 -37v-1q32 17 61 17q58 0 97 -38t39 -103q0 -66 -40 -106t-102 -40zM233 144q0 20 -14.5 33t-36.5 13q-23 0 -37 -12.5t-14 -34.5q0 -21 14.5 -33.5 t36.5 -12.5q23 0 37 12.5t14 34.5z" />
<glyph horiz-adv-x="350" d="M321 420v-78l-181 -342h-108l171 323h-171v97h289z" />
<glyph horiz-adv-x="378" d="M46 306q0 52 39.5 83t103.5 31q63 0 103 -31t40 -83q0 -67 -60 -96q29 -14 44.5 -40t15.5 -56q0 -52 -40 -83t-103 -31q-64 0 -103.5 31t-39.5 83q0 68 59 96q-28 13 -43.5 39.5t-15.5 56.5zM235 291q0 14 -12.5 23t-33.5 9t-33.5 -9t-12.5 -23q0 -32 46 -32t46 32z M235 129q0 32 -46 32t-46 -32q0 -14 12.5 -23t33.5 -9t33.5 9t12.5 23z" />
<glyph horiz-adv-x="370" d="M40 273q0 67 41.5 107t108.5 40q74 0 112 -51q38 -53 38 -149q0 -103 -44 -161.5t-134 -58.5q-52 0 -110 24l33 89q36 -16 78 -16q31 0 50 15t23 37v1q-36 -17 -61 -17q-58 0 -96.5 37.5t-38.5 102.5zM239 277q0 21 -14 33.5t-37 12.5t-37 -12.5t-14 -33.5t14 -34t37 -13 t37 13t14 34z" />
<glyph horiz-adv-x="485" d="M242 280q-86 0 -143.5 58t-57.5 152t57.5 152t143.5 58q87 0 144.5 -58t57.5 -152t-57.5 -152t-144.5 -58zM242 377q48 0 77 29.5t29 83.5t-29 83.5t-77 29.5q-47 0 -76 -30t-29 -83t29 -83t76 -30z" />
<glyph horiz-adv-x="319" d="M253 700v-420h-96v268l-72 -69l-67 70l155 151h80z" />
<glyph horiz-adv-x="367" d="M40 280v76l155 146q34 32 34 57q0 20 -13.5 32t-36.5 12q-47 0 -79 -50l-71 58q51 89 153 89q66 0 105 -37t39 -98q0 -67 -53 -118l-76 -70h129v-97h-286z" />
<glyph horiz-adv-x="363" d="M167 280q-96 0 -143 58l62 73q29 -34 81 -34q54 0 54 33t-53 33h-34v94h34q53 2 53 33q0 33 -54 33q-51 0 -81 -34l-62 74q46 57 143 57q72 0 111 -32t39 -84q0 -38 -19 -62t-45 -32q26 -8 45 -32t19 -62q0 -52 -39 -84t-111 -32z" />
<glyph horiz-adv-x="426" d="M241 280v59h-213v82l230 279h80v-265h53v-96h-53v-59h-97zM165 435h76v95z" />
<glyph horiz-adv-x="366" d="M164 280q-74 0 -140 36l39 87q52 -26 99 -26q29 0 46.5 13t17.5 36q0 50 -83 50q-35 0 -90 -9v233h270v-97h-173v-32q3 0 8 0.5t7 0.5q73 0 115.5 -37t42.5 -106q0 -70 -43 -109.5t-116 -39.5z" />
<glyph horiz-adv-x="365" d="M188 280q-89 0 -129 68q-29 51 -29 130q0 98 44 160t138 62q48 0 104 -23l-34 -90q-42 16 -75 16q-32 0 -51.5 -15t-22.5 -37v-1q32 17 61 17q58 0 97 -38t39 -103q0 -66 -40 -106t-102 -40zM182 377q23 0 37 12.5t14 34.5q0 20 -14.5 33t-36.5 13q-23 0 -37 -12.5 t-14 -34.5q0 -21 14.5 -33.5t36.5 -12.5z" />
<glyph horiz-adv-x="350" d="M32 280l171 323h-171v97h289v-78l-181 -342h-108z" />
<glyph horiz-adv-x="378" d="M189 280q-64 0 -103.5 31t-39.5 83q0 68 59 96q-28 13 -43.5 39.5t-15.5 56.5q0 52 39.5 83t103.5 31q63 0 103 -31t40 -83q0 -30 -15.5 -56t-44.5 -40q29 -14 44.5 -40t15.5 -56q0 -52 -40 -83t-103 -31zM189 539q46 0 46 32q0 14 -12.5 23t-33.5 9t-33.5 -9t-12.5 -23 q0 -32 46 -32zM189 377q21 0 33.5 9t12.5 23q0 32 -46 32t-46 -32q0 -14 12.5 -23t33.5 -9z" />
<glyph horiz-adv-x="370" d="M162 280q-52 0 -110 24l33 89q36 -16 78 -16q31 0 50 15t23 37v1q-36 -17 -61 -17q-58 0 -96.5 37.5t-38.5 102.5q0 67 41.5 107t108.5 40q74 0 112 -51q38 -53 38 -149q0 -103 -44 -161.5t-134 -58.5zM188 510q23 0 37 13t14 34t-14 33.5t-37 12.5t-37 -12.5t-14 -33.5 t14 -34t37 -13z" />
<glyph horiz-adv-x="325" d="M162 556q41 0 68.5 -27.5t27.5 -67.5t-27.5 -67.5t-68.5 -27.5q-40 0 -67 27t-27 68t27 68t67 27zM162 234q41 0 68.5 -27.5t27.5 -67.5t-27.5 -67.5t-68.5 -27.5q-40 0 -67 27t-27 68t27 68t67 27z" />
<glyph horiz-adv-x="362" d="M276 605q0 -41 -27 -68t-68 -27t-68 27t-27 68t27 68t68 27t68 -27t27 -68zM111 0v458h140v-458h-140z" />
<glyph horiz-adv-x="535" d="M288 510q-41 0 -68.5 27.5t-27.5 67.5t27.5 67.5t68.5 27.5q40 0 67.5 -27t27.5 -68t-27.5 -68t-67.5 -27zM277 0q-96 0 -152 54.5t-56 141.5q0 54 20.5 88t58.5 68q2 2 18 15t19 16t14 14.5t13.5 18t6 18t3.5 23.5v12h140v-38q0 -34 -17 -65.5t-33.5 -47t-46.5 -39.5 q-56 -42 -56 -75q0 -28 18 -46t53 -18q39 0 59.5 22.5t20.5 63.5h136q0 -108 -58.5 -167t-160.5 -59z" />
<glyph horiz-adv-x="404" d="M239 556q41 0 68 -27t27 -68t-27 -68t-68 -27t-68 27t-27 68t27 68t68 27zM109 -200l-103 55l184 332l103 -57z" />
<glyph horiz-adv-x="320" d="M160 512q40 0 67.5 -27t27.5 -68t-27.5 -68t-67.5 -27t-67.5 27t-27.5 68t27.5 68t67.5 27zM160 190q40 0 67.5 -27t27.5 -68t-27.5 -68t-67.5 -27t-67.5 27t-27.5 68t27.5 68t67.5 27z" />
<glyph horiz-adv-x="320" d="M200 187l103 -57l-184 -330l-103 55z" />
<glyph horiz-adv-x="320" d="M160 190q40 0 67.5 -27t27.5 -68t-27.5 -68t-67.5 -27t-67.5 27t-27.5 68t27.5 68t67.5 27z" />
<glyph horiz-adv-x="320" d="M229 322q-41 0 -68 27t-27 68t27 68t68 27t68 -27t27 -68t-27 -68t-68 -27zM98 -200l-103 55l184 332l104 -57z" />
<glyph d="M537 791l109 -73l-543 -794l-109 74z" />
<glyph d="M580 -84v-115l-520 -1v116h520z" />
<glyph horiz-adv-x="368" d="M368 801v-116h-46q-26 0 -42 -14t-16 -40v-160q0 -94 -80 -115q80 -21 80 -111v-169q0 -26 16 -40t42 -14h46v-116h-47q-178 0 -178 159v159q0 34 -24.5 50.5t-80.5 17.5v121q105 3 105 76v154q0 158 178 158h47z" />
<glyph horiz-adv-x="368" d="M47 801q178 0 178 -158v-154q0 -73 106 -76v-121q-56 -1 -81 -17.5t-25 -50.5v-159q0 -159 -178 -159h-47v116h46q26 0 42 14t16 40v169q0 90 80 111q-80 21 -80 115v160q0 26 -16 40t-42 14h-46v116h47z" />
<glyph horiz-adv-x="338" d="M338 791v-115h-119v-665h119v-115h-240v895h240z" />
<glyph horiz-adv-x="338" d="M241 791v-895h-241v115h119v665h-119v115h241z" />
<glyph horiz-adv-x="358" d="M73 345q0 138 49.5 259.5t141.5 215.5l92 -81q-76 -90 -115 -183.5t-39 -210.5q0 -228 154 -410l-93 -82q-90 94 -140 226t-50 266z" />
<glyph horiz-adv-x="358" d="M94 819q192 -194 192 -475q0 -135 -50.5 -266t-140.5 -225l-92 81q154 183 154 410q0 118 -39.5 211.5t-115.5 182.5z" />
<glyph d="M178 321q0 281 192 475l92 -81q-77 -90 -116 -183.5t-39 -210.5q0 -227 154 -410l-92 -81q-90 93 -140.5 224.5t-50.5 266.5z" />
<glyph d="M270 796q192 -194 192 -475q0 -135 -50.5 -266.5t-140.5 -224.5l-92 81q154 183 154 410q0 117 -39 210.5t-116 183.5z" />
<glyph horiz-adv-x="1309" d="M1242 420v-140h-1174v140h1174z" />
<glyph horiz-adv-x="898" d="M831 420v-140h-763v140h763z" />
<glyph horiz-adv-x="601" d="M534 420v-140h-466v140h466z" />
<glyph horiz-adv-x="646" d="M274 548l88 -80l-150 -158l150 -158l-88 -79l-224 237zM534 548l88 -80l-150 -158l150 -158l-88 -79l-224 237z" />
<glyph horiz-adv-x="646" d="M111 73l-87 79l150 158l-150 158l87 80l225 -238zM371 73l-87 79l150 158l-150 158l87 80l225 -238z" />
<glyph horiz-adv-x="386" d="M274 548l88 -80l-150 -158l150 -158l-88 -79l-224 237z" />
<glyph horiz-adv-x="386" d="M111 73l-87 79l150 158l-150 158l87 80l225 -238z" />
<glyph horiz-adv-x="242" d="M45 195q0 168 115 285l65 -57q-92 -109 -92 -228q0 -132 91 -243l-65 -56q-54 57 -84 138t-30 161z" />
<glyph horiz-adv-x="242" d="M197 195q0 -80 -30 -161t-84 -138l-65 56q91 111 91 243q0 118 -91 228l64 57q115 -117 115 -285z" />
<glyph horiz-adv-x="242" d="M159 177q-54 56 -84 136.5t-30 161.5q0 168 115 285l65 -57q-92 -109 -92 -228q0 -132 91 -243z" />
<glyph horiz-adv-x="242" d="M82 760q115 -117 115 -285q0 -81 -30 -161.5t-84 -136.5l-65 55q91 111 91 243q0 118 -91 228z" />
<glyph d="M390 606v-199h200v-140h-200v-200h-140v200h-200v140h200v199h140z" />
<glyph d="M480 596l99 -99l-161 -161l161 -160l-99 -98l-160 161l-161 -161l-98 98l161 160l-161 161l98 98l161 -161z" />
<glyph d="M316 452q-40 0 -67 27t-27 67q0 41 27 68t67 27q41 0 68 -26.5t27 -68.5q0 -40 -27 -67t-68 -27zM36 267v140h568v-140h-568zM316 38q-40 0 -67 27t-27 67q0 41 27 68t67 27t67.5 -27.5t27.5 -67.5t-27 -67t-68 -27z" />
<glyph d="M592 504v-140h-544v140h544zM592 271v-140h-544v140h544z" />
<glyph d="M573 421v-157l-450 -191l-57 137l333 133l-333 132l57 136z" />
<glyph d="M516 611l57 -136l-333 -132l333 -133l-57 -137l-450 191v157z" />
<glyph d="M389 648v-110h201v-139h-201v-111h-138v111h-201v139h201v110h138zM590 229v-139h-540v139h540z" />
<glyph d="M583 482v-319h-140v179h-387v140h527z" />
<glyph horiz-adv-x="965" d="M493 -59q-191 0 -307 117.5t-116 293.5q0 174 115.5 292t307.5 118q182 0 292 -101.5t110 -259.5q0 -118 -53.5 -189t-142.5 -71q-87 0 -111 77q-48 -77 -137 -77q-63 0 -102.5 38.5t-39.5 94.5q0 54 37 86.5t91 38.5l116 12q0 32 -16 46.5t-51 14.5q-69 0 -91 -54 l-83 52q44 101 177 101q87 0 130 -44t43 -119v-120q0 -45 36 -45t56 40.5t20 109.5q0 108 -73.5 181t-208.5 73q-141 0 -221 -83.5t-80 -211.5q0 -131 81 -214t221 -83q96 0 192 30l14 -112q-98 -32 -206 -32zM467 238q35 0 61 21t26 56v13l-95 -13q-18 -2 -29 -13t-11 -27 q0 -37 48 -37z" />
<glyph horiz-adv-x="322" d="M222 801v-895h-122v895h122z" />
<glyph horiz-adv-x="322" d="M222 801v-388h-122v388h122zM222 324v-418h-122v418h122z" />
<glyph horiz-adv-x="320" d="M221 761v-895h-122v895h122z" />
<glyph horiz-adv-x="440" d="M269 358v-118h117v-96h-117v-118h-98v118h-117v96h117v118h98z" />
<glyph horiz-adv-x="440" d="M391 303v-96h-341v96h341zM391 158v-97h-341v97h341z" />
<glyph horiz-adv-x="440" d="M269 638v-118h117v-96h-117v-118h-98v118h-117v96h117v118h98z" />
<glyph horiz-adv-x="440" d="M391 583v-96h-341v96h341zM391 438v-97h-341v97h341z" />
<glyph horiz-adv-x="440" d="M269 758v-118h117v-96h-117v-118h-98v118h-117v96h117v118h98z" />
</font>
</defs>
</svg>
