<?xml version="1.0" standalone="no"?>
<!DOCTYPE svg PUBLIC "-//W3C//DTD SVG 1.1//EN" "http://www.w3.org/Graphics/SVG/1.1/DTD/svg11.dtd" >
<svg xmlns="http://www.w3.org/2000/svg" xmlns:xlink="http://www.w3.org/1999/xlink" version="1.1">
<metadata></metadata>
<defs>
<font id="gt_sectraregular" horiz-adv-x="620" >
<font-face units-per-em="1000" ascent="750" descent="-250" />
<missing-glyph horiz-adv-x="240" />
<glyph unicode="&#xfb01;" horiz-adv-x="598" d="M48 -1l-5 34l70 10v370h-88v17l30 35h58v10q0 77 55 140l84 95h252v-95h-25l-70 15h-160l-19 -25q-22 -29 -22 -110v-35h172l73 9l50 4v-430l75 -10l-5 -34l-115 3l-95 -3l-5 37l50 7v337l5 40l-35 -7h-170v-370l75 -7l-5 -37l-115 3z" />
<glyph unicode="&#xfb02;" horiz-adv-x="603" d="M48 -1l-5 34l70 10v370h-88v17l30 35h58v10q0 77 55 140l84 95h147l80 4h34v-671l75 -10l-5 -34l-115 3l-105 -3l-5 34l60 10v370h-210v-370l85 -7l-5 -37l-125 3zM208 460h210v190l-57 -20h-112l-19 -25q-22 -30 -22 -110v-35z" />
<glyph unicode="Th" horiz-adv-x="1081" d="M139 -1l-5 35l120 13v606l-150 -3l-46 -125h-39v177l287 -2l246 2l108 12h33v-324l147 95q92 0 120.5 -37.5t28.5 -137.5v-266l75 -10l-5 -35l-115 3l-94 -3l-5 35l49 10v286q0 75 -64 75q-36 0 -106 -45l-31 -19v-297l55 -10l-5 -35l-95 3l-105 -3l-5 35l60 10v612 l-35 -6l-204 3v-606l115 -13l-5 -35l-162 3z" />
<glyph unicode="fb" horiz-adv-x="873" d="M582 -15q-21 0 -38.5 1t-33 4.5t-25 5.5t-23.5 8t-18.5 7.5t-19 9.5t-16.5 9v620l-57 -20h-103l-19 -27q-21 -29 -21 -113v-30h125v-47h-125v-369l115 -7l-5 -38l-155 3l-115 -3l-5 35l70 10v369h-88v17l30 35h58v10q0 77 55 140l84 95h137l80 4h34v-324l126 95 q86 0 145 -62.5t59 -165.5q0 -235 -251 -272zM602 35q60 0 95.5 51.5t35.5 139.5q0 82 -29 130.5t-75 48.5q-45 0 -96 -41l-30 -24v-265q35 -40 99 -40z" />
<glyph unicode="ffb" horiz-adv-x="1178" d="M887 -15q-21 0 -38.5 1t-33 4.5t-25 5.5t-23.5 8t-18.5 7.5t-19 9.5t-16.5 9v620l-57 -20h-103l-19 -27q-21 -29 -21 -113v-30h125v-47h-125v-369l115 -7l-5 -38l-155 3l-95 -3l-5 34l50 10v370h-210v-370l85 -7l-5 -37l-125 3l-115 -3l-5 34l70 10v370h-88v17l30 35h58 v2q0 44 16 75.5t48 67.5l75 85h178l-66 -80h-116l-18 -25q-22 -30 -22 -105v-25h210v15q0 77 55 140l84 95h137l80 4h34v-324l126 95q86 0 145 -62.5t59 -165.5q0 -235 -251 -272zM907 35q60 0 95.5 51.5t35.5 139.5q0 82 -29 130.5t-75 48.5q-45 0 -96 -41l-30 -24v-265 q35 -40 99 -40z" />
<glyph unicode="ffh" horiz-adv-x="1205" d="M48 -1l-5 34l70 10v370h-88v17l30 35h58v2q0 44 16 75.5t48 67.5l75 85h178l-66 -80h-116l-18 -25q-22 -30 -22 -105v-25h210v15q0 77 55 140l84 95h147l80 4h34v-324l146 95q92 0 120.5 -37.5t28.5 -137.5v-266l75 -10l-5 -35l-115 3l-94 -3l-5 35l49 10v286 q0 75 -64 75q-34 0 -106 -45l-30 -19v-297l55 -10l-5 -35l-95 3l-105 -3l-5 35l60 10v606l-57 -20h-113l-19 -27q-21 -29 -21 -113v-30h125v-47h-125v-369l85 -7l-5 -38l-125 3l-95 -3l-5 34l50 10v370h-210v-370l85 -7l-5 -37l-125 3z" />
<glyph unicode="ffj" horiz-adv-x="865" d="M584 -235v88h96l10 22q19 42 19 110v395l5 40l-35 -7h-166v-370l85 -7l-5 -37l-125 3l-95 -3l-5 34l50 10v370h-210v-370l85 -7l-5 -37l-125 3l-115 -3l-5 34l70 10v370h-88v17l30 35h58v2q0 44 16 76t48 67l75 85h178l-66 -80h-116l-18 -25q-22 -30 -22 -105v-25h210v15 q0 77 55 140l84 95h248v-95h-25l-70 15h-156l-19 -25q-22 -30 -22 -110v-35h168l73 9l50 4v-473q0 -77 -55 -140l-84 -95h-81z" />
<glyph unicode="ffk" horiz-adv-x="1164" d="M48 -1l-5 34l70 10v370h-88v17l30 35h58q0 45 16 77.5t48 67.5l75 85h178l-66 -80h-116l-18 -25q-22 -30 -22 -105v-25h210v15q0 77 55 140l84 95h147l114 4v-442l27 12l162 142l-29 10v35l83 -3l75 3l5 -35l-53 -10l-189 -153l22 -13l193 -216l45 -10l-5 -35l-80 3 l-60 -3l-185 231l-11 25v-211l55 -10l-5 -35l-95 3l-115 -3l-5 35l70 10v606l-57 -20h-113l-19 -27q-21 -29 -21 -113v-30h125v-47h-125v-369l85 -7l-5 -38l-125 3l-115 -3l-5 35l70 10v369h-210v-370l85 -7l-5 -37l-125 3z" />
<glyph unicode="fh" horiz-adv-x="900" d="M48 -1l-5 35l70 10v369h-88v17l30 35h58v10q0 77 55 140l84 95h147l80 4h34v-324l146 95q92 0 120.5 -37.5t28.5 -137.5v-266l75 -10l-5 -35l-115 3l-94 -3l-5 35l49 10v286q0 75 -64 75q-34 0 -106 -45l-30 -19v-297l55 -10l-5 -35l-95 3l-105 -3l-5 35l60 10v606 l-57 -20h-113l-19 -27q-21 -29 -21 -113v-30h125v-47h-125v-369l85 -7l-5 -38l-125 3z" />
<glyph unicode="fj" horiz-adv-x="560" d="M279 -235v88h96l10 22q19 42 19 110v395l5 40l-35 -7h-166v-370l85 -7l-5 -37l-125 3l-115 -3l-5 34l70 10v370h-88v17l30 35h58v10q0 77 55 140l84 95h248v-95h-25l-70 15h-156l-19 -25q-22 -30 -22 -110v-35h168l73 9l50 4v-473q0 -77 -55 -140l-84 -95h-81z" />
<glyph unicode="fk" horiz-adv-x="859" d="M48 -1l-5 35l70 10v369h-88v17l30 35h58v10q0 77 55 140l84 95h147l114 4v-442l27 12l162 142l-29 10v35l83 -3l75 3l5 -35l-53 -10l-189 -153l22 -13l193 -216l45 -10l-5 -35l-80 3l-60 -3l-185 231l-11 25v-211l55 -10l-5 -35l-95 3l-115 -3l-5 35l70 10v606l-57 -20 h-113l-19 -27q-21 -29 -21 -113v-30h125v-47h-125v-369l85 -7l-5 -38l-125 3z" />
<glyph unicode="ft" horiz-adv-x="674" d="M545 -15q-127 0 -127 130v298h-210v-369l105 -7l-5 -38l-145 3l-115 -3l-5 35l70 10v369h-88v17l30 35h58v10q0 77 55 140l84 95h199l-76 -80h-127l-19 -27q-21 -31 -21 -113v-30h213v70l65 65h26v-137h151v-45h-150v-293q0 -60 53 -60q33 0 88 28l17 -34z" />
<glyph unicode="fy" horiz-adv-x="824" d="M362 -235v100h86l99 151l-40 -12l-167 419h-132v-379l115 -7l-5 -38l-155 3l-115 -3l-5 35l70 10v369h-88v17l30 35h58v10q0 77 55 140l84 95h126v-80h-130l-19 -27q-21 -29 -21 -113v-20h294l5 -34l-66 -10l111 -293l8 -69l124 362l-46 10l5 35l88 -3l83 3l5 -35 l-64 -10l-159 -409l-115 -252h-119z" />
<glyph unicode="gg" horiz-adv-x="1031" d="M218 -245q-198 0 -198 138v17l109 84q-48 18 -61.5 41t-13.5 63v6l100 69q-48 17 -76 51.5t-28 80.5q0 130 195 180q101 0 152 -61l54 61h40l13 -81h-53l-33 -16q10 -25 10 -48q0 -130 -195 -180q-27 0 -39 2l-54 -62q0 -16 10.5 -25.5t28.5 -9.5h155q66 0 98.5 -27.5 t32.5 -75.5q0 -61 -68 -117t-179 -90zM729 -245q-214 0 -214 138v17l106 84q-60 18 -76 40.5t-16 63.5v6l100 69q-48 17 -76 51.5t-28 80.5q0 130 195 180q101 0 152 -61l54 61h56v-81h-56l-33 -16q10 -25 10 -48q0 -130 -195 -180q-27 0 -39 2l-54 -62q0 -16 10.5 -25.5 t28.5 -9.5h183q66 0 98.5 -27.5t32.5 -75.5q0 -61 -65.5 -117t-173.5 -90zM248 207q40 0 62.5 25.5t22.5 69.5q0 31 -8 59.5t-32.5 53t-62.5 24.5q-40 0 -62.5 -28.5t-22.5 -77.5q0 -28 8 -54.5t32.5 -49t62.5 -22.5zM723 207q40 0 62.5 25.5t22.5 69.5q0 31 -8 59.5 t-32.5 53t-62.5 24.5q-40 0 -62.5 -28.5t-22.5 -77.5q0 -28 8 -54.5t32.5 -49t62.5 -22.5zM226 -186q59 0 101.5 35t42.5 85q0 27 -22 39t-73 12h-110q-55 -60 -55 -88q0 -36 32 -59.5t84 -23.5zM738 -186q55 0 95 35t40 85q0 27 -22 39t-73 12h-122q-51 -61 -51 -88 q0 -36 36.5 -59.5t96.5 -23.5z" />
<glyph unicode="ky" horiz-adv-x="995" d="M533 -235v100h86l99 151l-40 -12l-168 422l-40 -3l-189 -150l22 -13l193 -216l45 -10l-5 -35l-80 1l-60 -1l-185 231l-11 25v-211l55 -10l-5 -35l-95 3l-115 -3l-5 35l70 10v603l-70 -2l-5 34l120 31l50 4v-442l27 12l162 142l-29 12v32h313l5 -34l-66 -10l111 -293 l8 -69l124 362l-46 10l5 35l88 -3l83 3l5 -35l-64 -10l-162 -409l-112 -252h-119z" />
<glyph unicode="tt" horiz-adv-x="695" d="M229 -15q-127 0 -127 130v298h-97v17l35 35h65v65l65 65h26v-137h229v72l65 65h26v-137h171v-45h-170v-293q0 -60 53 -60q33 0 88 28l17 -34l-126 -69q-127 0 -127 130v298h-225v-293q0 -60 53 -60q28 0 84 27l17 -34z" />
<glyph unicode="ty" horiz-adv-x="833" d="M371 -235v100h86l99 151l-40 -12l-168 421h-151v-305q0 -60 53 -60q32 0 88 28l17 -34l-126 -69q-62 0 -94.5 33t-32.5 97v298h-97v17l35 35h65v65l65 65h26v-125h315l5 -34l-66 -10l111 -293l8 -69l124 362l-46 10l5 35l88 -3l83 3l5 -35l-64 -10l-162 -409l-112 -252 h-119z" />
<glyph horiz-adv-x="0" />
<glyph horiz-adv-x="333" />
<glyph unicode="&#xd;" horiz-adv-x="320" />
<glyph unicode=" "  horiz-adv-x="240" />
<glyph unicode="&#x09;" horiz-adv-x="240" />
<glyph unicode="&#xa0;" horiz-adv-x="240" />
<glyph unicode="!" horiz-adv-x="275" d="M119 235l-25 185l-5 290h95l-5 -289l-25 -186h-35zM115 -5l-30 5l-5 57l5 48l75 5l30 -5l5 -56l-5 -49z" />
<glyph unicode="&#x22;" horiz-adv-x="370" d="M92 456l-43 185l5 64h105l5 -64l-43 -185h-29zM252 456l-43 185l5 64h105l5 -64l-43 -185h-29z" />
<glyph unicode="#" horiz-adv-x="629" d="M146 0l23 195h-129l6 50h130l20 165h-128l6 50h128l24 195h55l-24 -195h145l24 195h55l-24 -195h132l-6 -50h-132l-20 -165h130l-6 -50h-131l-23 -195h-55l23 195h-145l-23 -195h-55zM231 245h145l20 165h-145z" />
<glyph unicode="$" horiz-adv-x="572" d="M525 206q0 -150 -198 -210v-76h-50v63l-4 -1q-121 0 -207 68l-22 135h70l35 -85q47 -57 128 -63v280l-76 33q-62 27 -96.5 65.5t-34.5 100.5q0 72 55.5 121t151.5 74v70h50v-64q96 -5 165 -57v-135h-50l-29 91q-37 38 -86 47v-249l51 -22q68 -29 107.5 -72.5t39.5 -113.5 zM263 442l14 -6v228q-51 -4 -79.5 -33t-28.5 -76q0 -72 94 -113zM327 41q47 10 73 43t26 80q0 86 -99 131v-254z" />
<glyph unicode="%" horiz-adv-x="786" d="M190 358q-69 0 -109.5 47t-40.5 122q0 76 41 120.5t133 58.5q70 0 110 -47t40 -122q0 -76 -41 -120t-133 -59zM124 -5l495 710h67l-495 -710h-67zM208 391q36 0 54.5 36.5t18.5 95.5q0 68 -21 109.5t-64 41.5q-36 0 -54.5 -37t-18.5 -95q0 -68 21 -109.5t64 -41.5z M572 -6q-69 0 -109.5 47t-40.5 122q0 76 41 120.5t133 58.5q70 0 110 -47t40 -122q0 -76 -41 -120t-133 -59zM590 27q36 0 54.5 36.5t18.5 95.5q0 68 -21 109.5t-64 41.5q-36 0 -54.5 -37t-18.5 -95q0 -68 21 -109.5t64 -41.5z" />
<glyph unicode="&#x26;" horiz-adv-x="722" d="M278 -18q-100 0 -166.5 51.5t-66.5 133.5q0 37 9.5 67.5t29.5 54t35 37.5t41.5 33t32.5 24q-47 50 -68.5 86.5t-21.5 75.5q0 61 45 101t147 72q70 0 115.5 -39.5t45.5 -93.5q0 -28 -10.5 -52t-36.5 -49t-44 -39t-59 -43l170 -189l70 113l-43 8l5 33l78 -3l96 3l5 -33 l-69 -10l-105 -149l121 -130l51 -10l-5 -35l-75 1l-65 -1l-87 95q-65 -72 -175 -113zM277 435q46 38 63.5 65.5t17.5 69.5t-21 70t-57 28q-35 0 -58.5 -25t-23.5 -68q0 -45 79 -140zM285 56q68 0 133 77l-193 216q-40 -32 -60 -66t-20 -90t40.5 -96.5t99.5 -40.5z" />
<glyph unicode="'" horiz-adv-x="205" d="M92 456l-43 181l5 68h105l5 -68l-43 -181h-29z" />
<glyph unicode="(" horiz-adv-x="274" d="M234 -238q-60 80 -89.5 125t-56 103.5t-35 117t-8.5 141.5q0 110 20 187.5t57 138.5t112 151l25 -23q-71 -98 -100 -200t-29 -252q0 -288 129 -466z" />
<glyph unicode=")" horiz-adv-x="274" d="M40 -238l-25 23q129 178 129 466q0 150 -29 252t-100 200l25 23q75 -90 112 -151t57 -138.5t20 -187.5q0 -83 -8.5 -141.5t-35 -117t-56 -103.5t-89.5 -125z" />
<glyph unicode="*" horiz-adv-x="413" d="M145 407l-61 44l86 94l-125 25l23 71l114 -51l-13 125h75l-12 -125l113 51l23 -71l-123 -25l84 -94l-61 -44l-62 106z" />
<glyph unicode="+" d="M277 0v220h-225v65h225v230h65v-230h225v-65h-225v-220h-65z" />
<glyph unicode="," horiz-adv-x="210" d="M110 -145l-37 15q37 86 37 126l-40 4l-5 57l5 48l75 5l30 -5l5 -56l-5 -49z" />
<glyph unicode="-" horiz-adv-x="370" d="M35 242v65h300v-65h-300z" />
<glyph unicode="." horiz-adv-x="225" d="M105 -5l-30 5l-5 57l5 48l75 5l30 -5l5 -56l-5 -49z" />
<glyph unicode="/" horiz-adv-x="498" d="M-10 -230l453 948h61l-451 -948h-63z" />
<glyph unicode="0" horiz-adv-x="590" d="M290 -15q-105 0 -177.5 68.5t-72.5 171.5q0 197 260 260q105 0 177.5 -68.5t72.5 -171.5q0 -197 -260 -260zM310 40q60 0 95 51.5t35 123.5q0 94 -40.5 154.5t-119.5 60.5q-60 0 -95 -51.5t-35 -123.5q0 -94 40.5 -154.5t119.5 -60.5z" />
<glyph unicode="1" horiz-adv-x="460" d="M40 -1l-5 35l155 17v319l5 18l-42 -20l-110 -24l-18 36l225 95h40v-424l155 -17l-5 -35l-200 3z" />
<glyph unicode="2" horiz-adv-x="522" d="M40 0l-20 43l177 134q74 56 106.5 92.5t32.5 75.5q0 37 -22 61t-68 24q-32 0 -63 -18l-36 -107h-74v109l189 71q83 0 131 -35.5t48 -94.5q0 -65 -42 -108t-138 -99l-148 -84l105 26h274v-30l-26 -60h-426z" />
<glyph unicode="3" horiz-adv-x="473" d="M25 -230v90h214q42 21 65.5 57.5t23.5 80.5q0 57 -50 90.5t-134 33.5l-10 28l46 20q62 27 90.5 64t28.5 91q0 46 -24.5 75.5t-61.5 29.5q-38 0 -68 -18l-36 -107h-74v109l189 71q81 0 128 -36.5t47 -98.5q0 -120 -136 -178q75 -5 122.5 -46.5t47.5 -100.5 q0 -76 -45.5 -123.5t-167.5 -98.5l-80 -33h-115z" />
<glyph unicode="4" horiz-adv-x="564" d="M315 -230v230h-270l-35 39l327 431h101v-36l-339 -384l39 15h177v106l69 59h26v-165h139v-65h-139v-230h-95z" />
<glyph unicode="5" horiz-adv-x="484" d="M45 -230v90h207q43 22 69.5 62.5t26.5 83.5q0 62 -40 100.5t-104 38.5q-50 0 -95 -19l-33 -13l-28 16l42 341h348v-31l-24 -58h-282l-26 -205l113 59q105 0 170 -53.5t65 -135.5q0 -85 -49 -139t-170 -104l-80 -33h-110z" />
<glyph unicode="6" horiz-adv-x="549" d="M304 448q91 0 145.5 -60t54.5 -159q0 -189 -242 -244q-97 0 -154.5 77.5t-57.5 206.5q0 309 366 452l15 -41q-144 -70 -204 -144.5t-66 -195.5zM282 34q53 0 87 48.5t34 126.5q0 70 -29.5 113.5t-77.5 43.5q-37 0 -94 -45l-42 -34q5 -253 122 -253z" />
<glyph unicode="7" horiz-adv-x="498" d="M101 -230v32l267 553l23 25h-371v90h440l18 -21l-285 -679h-92z" />
<glyph unicode="8" horiz-adv-x="560" d="M349 381q77 -46 118.5 -90t41.5 -101q0 -81 -60 -130t-180 -75q-94 0 -156.5 52.5t-62.5 129.5q0 125 148 193q-127 76 -127 175q0 130 218 180q92 0 148 -41t56 -106q0 -111 -144 -187zM276 665q-46 0 -74 -28.5t-28 -74.5q0 -44 38 -82t102 -78q41 29 58.5 60.5 t17.5 76.5q0 53 -29.5 89.5t-84.5 36.5zM281 35q51 0 88 33t37 87q0 17 -5.5 34t-12 29.5t-22 27.5t-23.5 23t-29.5 22t-27.5 17.5t-29.5 17.5t-24.5 14q-44 -29 -61.5 -62.5t-17.5 -87.5q0 -63 36.5 -109t91.5 -46z" />
<glyph unicode="9" horiz-adv-x="544" d="M282 485q97 0 154.5 -77t57.5 -205q0 -301 -361 -446l-15 41q139 69 196.5 140.5t66.5 191.5l-141 -106q-90 0 -145 59.5t-55 157.5q0 97 59 156.5t183 87.5zM342 151l41 32v6q0 247 -120 247q-56 0 -89 -48t-33 -124q0 -72 30.5 -115t77.5 -43q35 0 93 45z" />
<glyph unicode=":" horiz-adv-x="240" d="M110 365l-30 5l-5 57l5 48l75 5l30 -5l5 -56l-5 -49zM110 -5l-30 5l-5 57l5 48l75 5l30 -5l5 -56l-5 -49z" />
<glyph unicode=";" horiz-adv-x="260" d="M110 365l-30 5l-5 57l5 48l75 5l30 -5l5 -56l-5 -49zM119 -145l-37 15q37 86 37 126l-40 4l-5 57l5 48l75 5l30 -5l5 -56l-5 -49z" />
<glyph unicode="&#x3c;" d="M570 25l-520 231v60l520 232v-79l-427 -182l427 -182v-80z" />
<glyph unicode="=" d="M52 310v65h515v-65h-515zM52 115v65h515v-65h-515z" />
<glyph unicode="&#x3e;" d="M50 25v80l427 182l-427 182v79l520 -232v-60z" />
<glyph unicode="?" horiz-adv-x="409" d="M130 225l-6 136l39 22q42 24 65.5 63t23.5 81q0 127 -96 127l-19 -79h-72v119l91 11q102 -12 152.5 -61.5t50.5 -120.5q0 -66 -32 -106t-92 -68l-43 -20l-7 -104h-55zM141 -10l-30 5l-5 57l5 48l75 5l30 -5l5 -56l-5 -49z" />
<glyph unicode="@" horiz-adv-x="917" d="M452 -114q-179 0 -290.5 104.5t-111.5 267.5q0 143 95.5 255.5t252.5 159.5l91 27q181 0 282 -85.5t101 -219.5q0 -122 -92 -213.5t-207 -91.5l-59 62l45 122l-153 -186q-59 0 -100.5 39.5t-41.5 102.5q0 84 48 152.5t129 104.5l109 49l115 -66l-83 -344q73 0 142 74 t69 185q0 129 -72 197t-199 68q-94 0 -179.5 -41t-144 -128t-58.5 -203q0 -108 50.5 -185t129.5 -112.5t176 -35.5q79 0 178 48l16 -29q-124 -63 -238 -78zM430 174l116 126l34 127l-80 53q-56 -23 -91 -65t-45.5 -79t-10.5 -76q0 -40 21 -63t56 -23z" />
<glyph unicode="A" horiz-adv-x="745" d="M15 -1l-5 35l78 11l248 648l60 17l261 -665l78 -11l-5 -35l-138 3l-132 -3l-5 35l85 13l-68 187h-247l-65 -187l87 -13l-5 -35l-120 3zM241 281h213l-96 264l-7 54z" />
<glyph unicode="B" horiz-adv-x="645" d="M35 -1l-5 35l90 13v606l-90 13l5 35l138 -3l197 3q92 1 142.5 -44t50.5 -107q0 -59 -44.5 -107t-113.5 -66q95 -4 147.5 -52.5t52.5 -119.5q0 -95 -69.5 -141t-200.5 -65l-162 3zM225 390h83q65 0 106 43.5t41 106.5q0 54 -32.5 85.5t-92.5 32.5l-105 -5v-263zM315 42 q94 0 137 47.5t43 111.5t-42.5 104t-115.5 40h-112v-298z" />
<glyph unicode="C" horiz-adv-x="704" d="M400 -18q-95 0 -175.5 40t-132.5 123.5t-52 195.5q0 168 101 260.5t277 116.5q70 0 134 -24t105 -54v-135h-55l-32 93q-63 68 -166 68q-114 0 -181.5 -78.5t-67.5 -222.5q0 -83 31 -156.5t95 -122.5t148 -49q65 0 131 56l54 111h55l-26 -144q-128 -62 -243 -78z" />
<glyph unicode="D" horiz-adv-x="739" d="M35 -1l-5 35l90 13v606l-90 13l5 35l135 -3l199 3q155 1 242.5 -85.5t87.5 -245.5q0 -163 -85.5 -257.5t-254.5 -113.5l-189 3zM350 44q104 0 168.5 86t64.5 227q0 132 -67.5 216.5t-193.5 84.5l-97 -5v-599z" />
<glyph unicode="E" horiz-adv-x="630" d="M35 -1l-5 35l90 13v606l-90 13l5 35l138 -3l397 3l10 -180h-34l-56 130l-265 3v-266l140 4l40 105h35l-10 -125l10 -135h-35l-40 105l-140 4v-300l275 3l67 135h38l-35 -185l-397 3z" />
<glyph unicode="F" horiz-adv-x="595" d="M35 -1l-5 35l90 13v606l-90 13l5 35l138 -3l397 3l10 -180h-34l-56 130l-265 3v-280l140 4l40 105h35l-10 -125l10 -135h-35l-40 105l-140 4v-285l120 -13l-5 -35l-167 3z" />
<glyph unicode="G" horiz-adv-x="745" d="M390 -18q-147 0 -248.5 95.5t-101.5 262.5q0 320 370 378q72 0 139.5 -24.5t105.5 -53.5v-135h-50l-32 90q-27 28 -72.5 49.5t-104.5 21.5q-110 0 -175.5 -80t-65.5 -221q0 -85 32 -159.5t93.5 -121.5t139.5 -47q74 0 130 53v190l-90 13l5 35l138 -3l112 3l5 -35l-65 -13 v-220q-152 -60 -265 -78z" />
<glyph unicode="H" horiz-adv-x="765" d="M35 -1l-5 35l90 13v606l-90 13l5 35l138 -3l132 3l5 -35l-85 -13v-265h320v265l-90 13l5 35l138 -3l132 3l5 -35l-85 -13v-606l85 -13l-5 -35l-132 3l-138 -3l-5 35l90 13v291h-320v-291l85 -13l-5 -35l-132 3z" />
<glyph unicode="I" horiz-adv-x="345" d="M35 -1l-5 36l90 13v605l-90 13l5 35l138 -3l137 3l5 -35l-90 -13v-605l90 -13l-5 -36l-137 3z" />
<glyph unicode="J" horiz-adv-x="345" d="M0 -175v90h105l9 21q11 25 13.5 55t2.5 104v558l-110 13l5 35l158 -3l132 3l5 -35l-85 -13v-553q0 -65 -9.5 -100.5t-35.5 -64.5l-100 -110h-90z" />
<glyph unicode="K" horiz-adv-x="706" d="M35 -1l-5 35l90 13v606l-90 13l5 35l138 -3l122 3l5 -35l-75 -13v-280l28 15l276 265l-73 13l5 35l106 -3l100 3l5 -35l-77 -15l-280 -273l25 -14l303 -320l53 -10l-5 -35l-85 3l-78 -3l-288 326l-15 29v-307l75 -13l-5 -35l-122 3z" />
<glyph unicode="L" horiz-adv-x="590" d="M35 -1l-5 35l90 13v606l-90 13l5 35l138 -3l137 3l5 -35l-90 -13v-607l250 3l67 135h38l-35 -185l-372 3z" />
<glyph unicode="M" horiz-adv-x="940" d="M40 -1l-5 35l80 13v604l-85 15l5 35l103 -3l110 3l210 -529l8 -56l235 585l111 -3l93 3l5 -35l-85 -13v-606l80 -13l-5 -35l-120 3l-145 -3l-5 35l90 13v457l13 117l-253 -621h-62l-201 505l-37 116v-574l88 -13l-8 -35l-107 3z" />
<glyph unicode="N" horiz-adv-x="743" d="M580 -2l-378 544l-17 69v-564l85 -13l-5 -35l-107 3l-123 -3l-5 35l90 13v599l-86 20l5 35l93 -3l75 3l350 -495l21 -59v506l-85 13l5 35l107 -3l123 3l5 -35l-90 -13v-655h-63z" />
<glyph unicode="O" horiz-adv-x="780" d="M380 -18q-150 0 -245 100t-95 253q0 166 87.5 259t272.5 124q150 0 245 -100t95 -253q0 -166 -87.5 -259t-272.5 -124zM405 37q110 0 165 82.5t55 212.5q0 58 -13.5 114t-41.5 106t-78 80.5t-116 30.5q-110 0 -165.5 -82.5t-55.5 -212.5q0 -59 14 -115t42 -106t78.5 -80 t115.5 -30z" />
<glyph unicode="P" horiz-adv-x="595" d="M35 -1l-5 35l90 13v606l-90 13l5 35l135 -3l195 3q97 1 158.5 -45.5t61.5 -131.5q0 -92 -71 -146t-179 -77h-110v-254l120 -13l-5 -35l-167 3zM225 351h85q71 0 115.5 44.5t44.5 115.5q0 68 -37.5 108t-112.5 40l-95 -6v-302z" />
<glyph unicode="Q" horiz-adv-x="780" d="M537 -45l105 -76l57 -16l-4 -33h-152l-163 152q-150 0 -245 100t-95 253q0 166 87.5 259t272.5 124q150 0 245 -100t95 -253q0 -152 -73.5 -243t-228.5 -128zM155 368q0 -59 14 -115t42 -106t78.5 -80t115.5 -30q110 0 165 82.5t55 212.5q0 58 -13.5 114t-41.5 106 t-78 80.5t-116 30.5q-110 0 -165.5 -82.5t-55.5 -212.5z" />
<glyph unicode="R" horiz-adv-x="681" d="M622 47l54 -15l-4 -33l-82 3l-70 -3l-212 311l-11 11h-72v-274l85 -13l-5 -35l-132 3l-138 -3l-5 35l90 13v606l-90 13l5 35l138 -3l182 3q103 1 167 -43.5t64 -130.5q0 -143 -205 -196l69 -41zM225 653v-287h70q79 0 127 43t48 111q0 67 -40.5 102.5t-104.5 36.5z" />
<glyph unicode="S" horiz-adv-x="567" d="M269 -18q-121 0 -207 68l-22 135h70l35 -85q23 -28 61.5 -45.5t79.5 -17.5q63 0 99.5 35.5t36.5 91.5q0 88 -104 133l-121 53q-62 27 -96.5 65.5t-34.5 100.5q0 78 64 128.5t175 73.5q105 0 183 -58v-135h-50l-29 91q-47 49 -118 49q-59 0 -92.5 -29.5t-33.5 -80.5 q0 -72 94 -113l115 -50q68 -29 107.5 -72.5t39.5 -113.5q0 -77 -60 -137t-192 -87z" />
<glyph unicode="T" horiz-adv-x="605" d="M135 -1l-5 35l120 13v606l-150 -2l-46 -127h-39v177l287 -3l288 3v-177h-39l-46 127l-150 2v-606l115 -13l-5 -35l-162 3z" />
<glyph unicode="U" horiz-adv-x="724" d="M372 -18q-267 0 -267 265v406l-90 13l5 35l138 -3l137 3l5 -35l-85 -13v-421q0 -195 167 -195q78 0 120 51t42 147v418l-90 13l5 35l128 -3l117 3l5 -35l-85 -13v-408q0 -104 -55 -167t-197 -96z" />
<glyph unicode="V" horiz-adv-x="737" d="M348 -15l-265 670l-78 11l5 35l141 -3l132 3l5 -35l-85 -13l180 -489l5 -52l197 541l-87 13l5 35l117 -3l107 3l5 -35l-78 -11l-253 -650z" />
<glyph unicode="W" horiz-adv-x="985" d="M287 -15l-219 670l-58 11l5 35l121 -3l122 3l5 -35l-85 -13l150 -489l2 -56l130 432l-38 115l-63 11l5 35l126 -3l122 3l5 -35l-85 -13l150 -489l2 -56l165 547l-86 11l5 35l115 -3l87 3l5 -35l-58 -11l-207 -645l-69 -25l-139 423l-3 59l-143 -457z" />
<glyph unicode="X" horiz-adv-x="708" d="M15 -1l-5 36l78 11l216 297l-207 313l-78 11l5 35l143 -4l142 4l5 -35l-85 -13l123 -204l13 -38l164 241l-87 13l5 35l117 -3l117 3l5 -35l-78 -11l-205 -282l222 -327l73 -11l-5 -36l-137 3l-143 -3l-5 36l85 13l-134 214l-17 41l-175 -256l82 -12l-5 -36l-117 3z" />
<glyph unicode="Y" horiz-adv-x="711" d="M192 -1l-5 35l120 13v228l-224 381l-78 11l5 34l138 -3l132 3l5 -34l-85 -13l172 -290l8 -39l173 329l-87 13l5 34l119 -3l111 3l5 -33l-78 -11l-218 -386l2 -224l115 -13l-5 -35l-162 3z" />
<glyph unicode="Z" horiz-adv-x="576" d="M30 0l-10 50l380 570l40 35l-296 -5l-46 -125h-44v175h476l10 -45l-382 -574l-40 -36l328 5l67 134h48l-35 -184h-496z" />
<glyph unicode="[" horiz-adv-x="333" d="M85 -231v946l83 -3l130 3v-35l-133 -10q-5 -343 -5 -383q0 -61 5 -473l133 -10v-35l-130 3z" />
<glyph unicode="\" horiz-adv-x="434" d="M411 -230l-451 948h61l453 -948h-63z" />
<glyph unicode="]" horiz-adv-x="333" d="M35 -231v35l133 10q5 141 5 473q0 215 -5 383l-133 10v35l130 -3l83 3v-946l-83 3z" />
<glyph unicode="^" horiz-adv-x="391" d="M50 460l123 245h45l123 -245h-80l-65 157l-66 -157h-80z" />
<glyph unicode="_" horiz-adv-x="640" d="M43 -130v55h555v-55h-555z" />
<glyph unicode="`" horiz-adv-x="600" d="M258 551l-119 159h110l47 -159h-38z" />
<glyph unicode="a" horiz-adv-x="461" d="M177 -15q-66 0 -106.5 34.5t-40.5 93.5q0 44 35 92l225 75v50q0 51 -11 73.5t-48 22.5q-38 0 -82 -18l-17 -76h-86v73l181 80q95 0 126.5 -32t31.5 -127v-196q0 -48 17 -75h50l4 -35l-129 -25l-31 77zM183 55q27 0 65 26l42 29v130l-145 -60q-20 -20 -20 -56t16.5 -52.5 t41.5 -16.5z" />
<glyph unicode="b" horiz-adv-x="550" d="M259 -15q-21 0 -38.5 1t-33 4.5t-25 5.5t-23.5 8t-18.5 7.5t-19 9.5t-16.5 9v617l-70 -2l-5 34l120 31l50 4v-324l126 95q86 0 145 -62.5t59 -165.5q0 -235 -251 -272zM279 35q60 0 95.5 51.5t35.5 139.5q0 82 -29 130.5t-75 48.5q-45 0 -96 -41l-30 -24v-265 q35 -40 99 -40z" />
<glyph unicode="c" horiz-adv-x="451" d="M263 -15q-99 0 -161 63t-62 175q0 109 67 173t171 89q34 0 74.5 -15t63.5 -35v-100h-74l-23 81q-21 16 -58 16q-51 0 -85.5 -52t-34.5 -133q0 -82 42 -134.5t114 -52.5q49 0 113 42l16 -38q-68 -49 -163 -79z" />
<glyph unicode="d" horiz-adv-x="557" d="M243 -15q-95 0 -151.5 64.5t-56.5 168.5q0 117 65.5 184t179.5 83q29 0 85 -27v189l-70 -2l-5 34l120 31l50 4v-584q0 -48 17 -73h56l4 -37l-134 -25l-31 77zM239 65q45 0 96 41l30 24v265q-35 40 -99 40q-60 0 -95.5 -51.5t-35.5 -139.5q0 -82 29 -130.5t75 -48.5z" />
<glyph unicode="e" horiz-adv-x="475" d="M424 102l16 -38q-73 -50 -175 -79q-96 0 -163 65t-67 178q0 208 226 257q93 0 135 -51t42 -137v-42h-305q3 -92 46 -143.5t120 -51.5q57 0 125 42zM242 435q-44 0 -73 -37t-35 -101l200 8q0 65 -19 97.5t-73 32.5z" />
<glyph unicode="f" horiz-adv-x="353" d="M48 -1l-5 35l70 10v369h-88v17l30 35h58v10q0 77 55 140l84 95h126v-80h-130l-19 -27q-21 -29 -21 -113v-30h125v-47h-125v-369l115 -7l-5 -38l-155 3z" />
<glyph unicode="g" horiz-adv-x="516" d="M238 -245q-218 0 -218 138v17l109 84q-48 18 -61.5 41t-13.5 63v6l100 69q-48 17 -76 51.5t-28 80.5q0 130 195 180q101 0 152 -61l54 61h60v-81h-60l-33 -16q10 -25 10 -48q0 -130 -195 -180q-27 0 -39 2l-54 -62q0 -16 10.5 -25.5t28.5 -9.5h183q66 0 98.5 -27.5 t32.5 -75.5q0 -61 -70 -117t-185 -90zM248 207q40 0 62.5 25.5t22.5 69.5q0 31 -8 59.5t-32.5 53t-62.5 24.5q-40 0 -62.5 -28.5t-22.5 -77.5q0 -28 8 -54.5t32.5 -49t62.5 -22.5zM246 -186q62 0 107 35t45 85q0 27 -22 39t-73 12h-138q-55 -60 -55 -88q0 -36 37.5 -59.5 t98.5 -23.5z" />
<glyph unicode="h" horiz-adv-x="587" d="M40 -1l-5 35l70 10v603l-70 -2l-5 34l120 31l50 4v-324l146 95q92 0 120.5 -37.5t28.5 -137.5v-266l75 -10l-5 -35l-115 3l-95 -3l-5 35l50 10v286q0 75 -64 75q-34 0 -106 -45l-30 -19v-297l55 -10l-5 -35l-95 3z" />
<glyph unicode="i" horiz-adv-x="295" d="M124 580l-27 6l-6 56l10 48l72 5l28 -5l6 -56l-11 -48zM40 -1l-5 35l70 10v365l-70 -6l-5 35l120 31l50 4v-429l75 -10l-5 -35l-115 3z" />
<glyph unicode="j" horiz-adv-x="270" d="M128 580l-27 6l-6 56l10 48l72 5l28 -5l6 -56l-11 -48zM-20 -235v88h96l10 22q19 42 19 110v424l-70 -6l-5 35l120 31l50 4v-473q0 -77 -55 -140l-84 -95h-81z" />
<glyph unicode="k" horiz-adv-x="546" d="M40 -1l-5 35l70 10v602l-70 -2l-5 35l120 31l50 4v-442l27 12l162 142l-29 10v35l83 -3l75 3l5 -35l-53 -10l-189 -153l22 -13l193 -216l45 -10l-5 -35l-80 3l-60 -3l-185 231l-11 25v-211l55 -10l-5 -35l-95 3z" />
<glyph unicode="l" horiz-adv-x="290" d="M40 -1l-5 35l70 10v602l-70 -2l-5 35l120 31l50 4v-670l75 -10l-5 -35l-115 3z" />
<glyph unicode="m" horiz-adv-x="862" d="M40 -1l-5 35l70 10v365l-70 -6l-5 35l120 31l43 3l5 -83l138 96q71 0 103.5 -22.5t40.5 -75.5l141 98q92 0 120.5 -37.5t28.5 -137.5v-266l75 -10l-5 -35l-115 3l-96 -3l-5 35l50 10v286q0 75 -57 75q-39 0 -102 -45l-30 -21v-295l45 -10l-5 -35l-85 3l-91 -3l-5 35 l46 10v286q0 75 -58 75q-39 0 -102 -45l-30 -21v-295l50 -10l-5 -35l-90 3z" />
<glyph unicode="n" horiz-adv-x="588" d="M40 -1l-5 35l70 10v365l-70 -6l-5 35l120 31l43 3l5 -84l148 97q92 0 120.5 -34.5t28.5 -128.5v-278l76 -10l-5 -35l-115 3l-96 -3l-5 35l50 10v286q0 75 -66 75q-37 0 -104 -45l-30 -20v-296l55 -10l-5 -35l-95 3z" />
<glyph unicode="o" horiz-adv-x="539" d="M258 -15q-99 0 -161 68t-62 171q0 110 63.5 175.5t182.5 85.5q99 0 161 -68.5t62 -171.5q0 -110 -64 -175.5t-182 -84.5zM283 34q58 0 89.5 53t31.5 137q0 95 -41 153.5t-107 58.5q-59 0 -90 -53t-31 -138q0 -88 41.5 -149.5t106.5 -61.5z" />
<glyph unicode="p" horiz-adv-x="550" d="M25 -231l-5 35l70 10v596l-70 -6l-5 34l120 31l43 3l5 -83l128 96q96 0 150 -62t54 -171q0 -233 -251 -267q-42 0 -79 21v-192l105 -10l-5 -35l-145 3zM294 35q55 0 88 50.5t33 135.5q0 86 -29 137.5t-75 51.5q-35 0 -96 -46l-30 -23v-251q36 -55 109 -55z" />
<glyph unicode="q" horiz-adv-x="536" d="M266 -231l-5 35l105 10v253l-117 -82q-98 0 -156 64.5t-58 173.5q0 114 66 180.5t185 81.5q50 0 123 -42l35 37h17v-666l70 -10l-5 -35l-115 3zM252 60q30 0 58 19l56 39v252q-23 65 -94 65q-64 0 -100.5 -50t-36.5 -136t34 -137.5t83 -51.5z" />
<glyph unicode="r" horiz-adv-x="401" d="M40 -1l-5 35l70 10v365l-70 -6l-5 35l120 31l40 3l2 -132l114 140h80v-100h-74q-17 -4 -43.5 -24.5t-48.5 -46.5l-20 -24v-238l102 -10l-5 -38l-145 3z" />
<glyph unicode="s" horiz-adv-x="426" d="M201 -15q-74 0 -152 45l-19 113h64l34 -83q37 -25 82 -25q38 0 59 21.5t21 54.5q0 28 -16 44.5t-57 38.5l-79 41q-84 43 -84 116q0 51 45.5 83t135.5 51q38 0 77.5 -13.5t63.5 -31.5v-100h-53l-23 74q-37 22 -76 22q-31 0 -53.5 -16t-22.5 -43q0 -23 17 -39.5t53 -35.5 l77 -39q50 -25 72 -55.5t22 -73.5q0 -63 -46.5 -95.5t-141.5 -53.5z" />
<glyph unicode="t" horiz-adv-x="354" d="M229 -15q-127 0 -127 135v293h-97v17l35 35h65v65l65 65h26v-137h151v-45h-150v-293q0 -27 16 -43.5t37 -16.5q31 0 79 24l17 -34z" />
<glyph unicode="u" horiz-adv-x="566" d="M239 -15q-95 0 -124.5 35.5t-29.5 127.5v261l-70 -5l-5 39l120 26l51 4v-333q0 -39 16.5 -57t53.5 -18q33 0 109 50l20 13v281l-60 -5l-5 39l110 26l50 4v-343q0 -48 12 -75h50l4 -35l-129 -25l-28 81z" />
<glyph unicode="v" horiz-adv-x="547" d="M241 -15l-174 441l-62 10l5 35l115 -3l105 3l5 -35l-66 -10l109 -293l8 -69l121 362l-46 10l5 35l88 -3l83 3l5 -35l-64 -10l-164 -411z" />
<glyph unicode="w" horiz-adv-x="838" d="M224 -14l-157 440l-62 10l5 35l110 -3l95 3l5 -35l-56 -10l99 -298l8 -59l115 317l-15 40l-42 10l5 35l90 -3l95 3l5 -35l-56 -10l99 -298l8 -59l126 357l-46 10l5 35l71 -3l97 3l5 -35l-64 -10l-161 -410l-80 -30l-101 284l-5 66l-118 -320z" />
<glyph unicode="x" horiz-adv-x="541" d="M15 -1l-5 35l70 10l148 182l-145 199l-62 10l5 36l115 -3l95 3l5 -36l-39 -10l74 -111l8 -26l95 137l-49 10l5 36l78 -3l103 3l5 -36l-72 -10l-132 -160l157 -221l62 -10l-5 -35l-115 3l-95 -3l-5 35l41 10l-89 129l-8 23l-106 -152l47 -10l-5 -35l-78 3z" />
<glyph unicode="y" horiz-adv-x="542" d="M85 -235v100h86l99 151l-40 -12l-163 422l-62 10l5 35l115 -3l105 3l5 -35l-66 -10l106 -293l8 -69l119 362l-46 10l5 35l88 -3l83 3l5 -35l-64 -10l-157 -409l-112 -252h-119z" />
<glyph unicode="z" horiz-adv-x="470" d="M47 0l-12 31l263 369l38 30l-200 -5l-32 -90h-40v135h360l15 -30l-266 -374l-34 -26l209 5l54 98h43l-28 -143h-370z" />
<glyph unicode="{" horiz-adv-x="348" d="M260 -230q-64 0 -104.5 38.5t-40.5 101.5l1 285l-66 60v14q23 8 37.5 18.5t20 28t7 30.5t1.5 39l-1 190q0 63 40.5 101.5t104.5 38.5h48v-35h-48q-31 0 -51.5 -25t-18.5 -80l6 -190q1 -40 -16 -70t-65 -53l81 -52l-6 -300q-1 -55 19.5 -80t50.5 -25h48v-35h-48z" />
<glyph unicode="|" horiz-adv-x="279" d="M110 -245v963h59v-963h-59z" />
<glyph unicode="}" horiz-adv-x="348" d="M40 -230v35h48q30 0 50.5 25t19.5 79l-6 219q-1 40 16 70t65 53l-81 52l6 272q1 55 -19.5 80t-50.5 25h-48v35h48q64 0 104.5 -38.5t40.5 -101.5l-1 -257l66 -60v-14q-23 -8 -37.5 -18.5t-20 -28t-7 -30.5t-1.5 -39l1 -218q0 -63 -40.5 -101.5t-104.5 -38.5h-48z" />
<glyph unicode="~" horiz-adv-x="669" d="M50 195l37 95l98 27l356 -56l43 59h35l-39 -100l-93 -22l-359 56l-43 -59h-35z" />
<glyph unicode="&#xa1;" horiz-adv-x="265" d="M110 360l-30 5l-5 56l5 49l75 5l30 -5l5 -57l-5 -48zM86 -240l5 289l25 186h35l25 -185l5 -290h-95z" />
<glyph unicode="&#xa2;" horiz-adv-x="466" d="M433 64q-60 -43 -135 -70v-74h-50v66q-90 7 -145.5 69t-55.5 168q0 101 58.5 164t152.5 91v72h50v-67q72 -9 115 -48v-100h-74l-23 81q-21 16 -58 16q-51 0 -85.5 -52t-34.5 -133q0 -82 42 -134.5t114 -52.5q49 0 113 42z" />
<glyph unicode="&#xa3;" horiz-adv-x="580" d="M492 155h48l-25 -155l-332 3l-138 -3l-5 35l100 45v238h-88v17l30 35h58v120q0 99 43.5 145.5t176.5 79.5q94 0 132 -49v-91h-64l-15 65q-30 30 -71 30q-49 0 -78 -40t-29 -90v-170h186v-53l-186 1v-138q0 -44 -8.5 -77t-17.5 -45l-9 -11l245 3z" />
<glyph unicode="&#xa4;" d="M123 123l-47 47l57 56q-43 59 -43 131t43 131l-57 56l47 47l56 -57q59 43 131 43t131 -43l56 57l47 -47l-57 -56q43 -59 43 -131t-43 -131l57 -56l-47 -47l-56 57q-59 -43 -131 -43t-131 43zM310 190q71 0 117.5 48t46.5 119t-46.5 119t-117.5 48t-117.5 -48t-46.5 -119 t46.5 -119t117.5 -48z" />
<glyph unicode="&#xa5;" horiz-adv-x="671" d="M573 656l-175 -385v-1h149v-45h-149v-50h149v-45h-150v-83l115 -13l-5 -35l-162 3l-168 -3l-5 35l120 13v83h-150v45h150v50h-150v45h150v1l-194 384l-78 11l5 35l138 -3l132 3l5 -35l-85 -13l139 -306l8 -39l136 345l-87 13l5 35l119 -3l111 4l5 -35z" />
<glyph unicode="&#xa6;" horiz-adv-x="278" d="M110 288v430h58v-430h-58zM110 -245v430h58v-430h-58z" />
<glyph unicode="&#xa7;" horiz-adv-x="537" d="M492 244q0 -135 -110 -198l75 -50v-35q0 -160 -203 -206q-49 0 -99 19t-72 45v106h57l15 -70q44 -55 119 -55q50 0 77.5 30.5t27.5 86.5v15l-191 126q-145 95 -145 202q0 49 28 84.5t86 66.5q-67 67 -67 129q0 64 53.5 111t144.5 64q111 -6 151 -49v-106h-57l-13 70 q-34 40 -93 40q-50 0 -78 -25t-28 -69q0 -41 32.5 -78.5t124.5 -101.5l165 -116v-36zM414 199v15l-147 106q-52 38 -84 67q-61 -35 -61 -98q0 -39 27.5 -72t98.5 -81l102 -68q64 47 64 131z" />
<glyph unicode="&#xa8;" horiz-adv-x="600" d="M137 578l-25 5l-5 49l9 40l60 5l25 -5l5 -48l-10 -41zM317 578l-25 5l-5 49l9 40l60 5l25 -5l5 -48l-10 -41z" />
<glyph unicode="&#xa9;" horiz-adv-x="832" d="M417 -15q-154 2 -260.5 102t-106.5 269q0 153 97.5 243.5t267.5 115.5q154 -2 260.5 -102t106.5 -269q0 -153 -97.5 -243.5t-267.5 -115.5zM415 25q127 0 216.5 87t89.5 232q0 81 -30 147t-76.5 104.5t-98 59t-99.5 20.5q-127 0 -216.5 -87t-89.5 -232q0 -81 30 -147 t76.5 -104.5t98 -59t99.5 -20.5zM426 141q-86 0 -147 54.5t-61 148.5q0 184 217 215q79 0 141 -44v-79h-36l-18 51q-32 39 -93 39q-62 0 -99.5 -43t-37.5 -124q0 -73 41 -128t109 -55q40 0 75 30l31 64h35l-14 -85q-94 -37 -143 -44z" />
<glyph unicode="&#xaa;" horiz-adv-x="426" d="M167 313q-55 0 -88.5 28t-33.5 75q0 38 30 76l184 59v41q0 39 -9 56t-38 17q-28 0 -64 -14l-14 -63h-76v61l153 64q79 0 106.5 -26t27.5 -100v-155q0 -39 13 -60h41l3 -30l-112 -22l-25 62zM176 372q22 0 51 20l32 20v106l-113 -44q-16 -17 -16 -47q0 -28 13.5 -41.5 t32.5 -13.5z" />
<glyph unicode="&#xab;" horiz-adv-x="459" d="M196 15l-181 220l182 220h48l-127 -221l127 -219h-49zM380 15l-181 220l182 220h48l-127 -221l127 -219h-49z" />
<glyph unicode="&#xac;" d="M502 180v130h-450v65h515v-195h-65z" />
<glyph unicode="&#xad;" horiz-adv-x="370" d="M35 242v65h300v-65h-300z" />
<glyph unicode="&#xae;" horiz-adv-x="592" d="M295 685q106 -1 179 -69.5t73 -184.5q0 -105 -66.5 -167t-183.5 -79q-106 1 -179 69.5t-73 184.5q0 105 66.5 167t183.5 79zM295 212q87 0 148.5 59.5t61.5 159.5q0 56 -20.5 101t-52.5 71.5t-67 40.5t-68 14q-87 0 -148.5 -59.5t-61.5 -159.5q0 -106 67 -166.5 t141 -60.5zM426 327l20 -6l-1 -20l-47 1l-34 -1l-81 119l-6 4h-19v-98l32 -5l-2 -20l-62 1l-63 -1l-2 20l33 5v222l-33 4l2 20l62 -1l94 1q40 0 65.5 -18t25.5 -49q0 -54 -93 -72l46 -19zM258 549v-101h27q25 0 41 14.5t16 39.5q0 24 -14.5 37t-37.5 13z" />
<glyph unicode="&#xaf;" horiz-adv-x="600" d="M110 608v59h280v-59h-280z" />
<glyph unicode="&#xb0;" horiz-adv-x="407" d="M203 446q-63 0 -108 45t-45 109q0 61 37 96.5t117 56.5q63 0 108 -45t45 -108q0 -62 -37 -97.5t-117 -56.5zM203 502q41 0 69.5 29t28.5 69t-28.5 68.5t-68.5 28.5t-69 -28.5t-29 -68.5t28.5 -69t68.5 -29z" />
<glyph unicode="&#xb1;" d="M272 141v220h-225v65h225v230h65v-230h225v-65h-225v-220h-65zM47 0v65h525v-65h-525z" />
<glyph unicode="&#xb2;" horiz-adv-x="376" d="M39 400l-14 27l111 111q89 90 89 153q0 30 -14 48t-38 18q-17 0 -37 -8l-18 -69h-66v73l132 40q59 0 95 -27.5t36 -73.5q0 -49 -31 -87.5t-97 -86.5l-101 -73l60 21h181v-24l-19 -42h-269z" />
<glyph unicode="&#xb3;" horiz-adv-x="354" d="M43 400v70h142q30 22 30 57q0 29 -23.5 47t-68.5 18l-6 22l22 8q61 24 61 78q0 26 -12 40.5t-31 14.5q-18 0 -32 -7l-18 -68h-65v73l131 40q57 0 83.5 -21t26.5 -53q0 -61 -90 -90q54 -4 83 -28t29 -57q0 -16 -6.5 -30.5t-14.5 -24t-25.5 -20t-27.5 -15.5t-33.5 -15.5 t-31.5 -14.5l-53 -24h-70z" />
<glyph unicode="&#xb4;" horiz-adv-x="600" d="M139 551l47 159h110l-119 -159h-38z" />
<glyph unicode="&#xb5;" d="M472 110q0 -35 17.5 -53t57.5 -27l-5 -30h-120l-43 73l-116 -88q-108 0 -131 55v-70l50 -200h-110v700h95v-300q0 -50 22 -77.5t62 -27.5q29 0 106 50l20 13v342h95v-360z" />
<glyph unicode="&#xb6;" horiz-adv-x="491" d="M174 -159v569q-62 0 -103 35t-41 94q0 44 36 80t109 81h276v-50l-51 -10v-799h-58v799h-110v-799h-58z" />
<glyph unicode="&#xb7;" horiz-adv-x="225" d="M90 345l-30 5l-5 57l5 48l75 5l30 -5l5 -56l-5 -49z" />
<glyph unicode="&#xb8;" horiz-adv-x="600" d="M162 -245l29 40h74q30 19 30 62q0 32 -24 46.5t-56 14.5l70 96l31 -10l-35 -51q34 -2 57.5 -22.5t23.5 -54.5q0 -40 -28 -66.5t-63 -37.5l-51 -17h-58z" />
<glyph unicode="&#xb9;" horiz-adv-x="325" d="M43 399l-3 28l86 10v279l6 15l-28 -17l-57 -9l-13 26l135 57h43v-351l86 -10l-3 -28l-125 2z" />
<glyph unicode="&#xba;" horiz-adv-x="483" d="M231 313q-81 0 -132 54t-51 137q0 175 205 209q81 0 132 -54t51 -137q0 -175 -205 -209zM252 354q45 0 69.5 39.5t24.5 106.5q0 79 -32 125.5t-84 46.5q-45 0 -69 -39.5t-24 -107.5q0 -73 32 -122t83 -49z" />
<glyph unicode="&#xbb;" horiz-adv-x="459" d="M30 15l127 219l-127 221h48l182 -220l-181 -220h-49zM214 15l127 219l-127 221h48l182 -220l-181 -220h-49z" />
<glyph unicode="&#xbc;" horiz-adv-x="830" d="M165 -50l387 760h56l-385 -760h-58zM43 314l-3 28l86 10v279l6 15l-28 -17l-57 -9l-13 26l135 57h43v-351l86 -10l-3 -28l-125 2zM652 0v96h-152l-24 38l196 251h71v-32l-210 -212l30 11h89v61l58 48h18v-109h74v-56h-74v-96h-76z" />
<glyph unicode="&#xbd;" horiz-adv-x="824" d="M165 -50l387 760h56l-385 -760h-58zM43 314l-3 28l86 10v279l6 15l-28 -17l-57 -9l-13 26l135 57h43v-351l86 -10l-3 -28l-125 2zM487 0l-14 27l111 111q89 90 89 153q0 30 -14 48t-38 18q-17 0 -37 -8l-18 -69h-66v73l132 40q59 0 95 -27.5t36 -73.5q0 -49 -31 -87.5 t-97 -86.5l-101 -73l60 21h181v-24l-19 -42h-269z" />
<glyph unicode="&#xbe;" horiz-adv-x="859" d="M194 -50l387 760h56l-385 -760h-58zM43 315v70h142q30 22 30 57q0 29 -23.5 47t-68.5 18l-6 22l22 8q61 24 61 78q0 26 -12 40.5t-31 14.5q-18 0 -32 -7l-18 -68h-65v73l131 40q57 0 83.5 -21t26.5 -53q0 -61 -90 -90q54 -4 83 -28t29 -57q0 -16 -6.5 -30.5t-14.5 -24 t-25.5 -20t-27.5 -15.5t-33.5 -15.5t-31.5 -14.5l-53 -24h-70zM681 0v96h-152l-24 38l196 251h71v-32l-210 -212l30 11h89v61l58 48h18v-109h74v-56h-74v-96h-76z" />
<glyph unicode="&#xbf;" horiz-adv-x="374" d="M238 474l30 -5l5 -57l-5 -48l-75 -5l-30 5l-5 56l5 49zM249 239l6 -136l-39 -22q-42 -24 -65.5 -63t-23.5 -81q0 -127 96 -127l19 79h72v-119l-91 -11q-102 12 -152.5 61.5t-50.5 120.5q0 66 32 106t92 68l43 20l7 104h55z" />
<glyph unicode="&#xc0;" horiz-adv-x="745" d="M353 767l-119 133h110l67 -133h-58zM15 -1l-5 35l78 11l248 648l60 17l261 -665l78 -11l-5 -35l-138 3l-132 -3l-5 35l85 13l-68 187h-247l-65 -187l87 -13l-5 -35l-120 3zM241 281h213l-96 264l-7 54z" />
<glyph unicode="&#xc1;" horiz-adv-x="745" d="M339 767l67 133h110l-119 -133h-58zM15 -1l-5 35l78 11l248 648l60 17l261 -665l78 -11l-5 -35l-138 3l-132 -3l-5 35l85 13l-68 187h-247l-65 -187l87 -13l-5 -35l-120 3zM241 281h213l-96 264l-7 54z" />
<glyph unicode="&#xc2;" horiz-adv-x="745" d="M222 767l107 133h83l107 -133h-58l-78 63l-13 15l-12 -15l-78 -63h-58zM15 -1l-5 35l78 11l248 648l60 17l261 -665l78 -11l-5 -35l-138 3l-132 -3l-5 35l85 13l-68 187h-247l-65 -187l87 -13l-5 -35l-120 3zM241 281h213l-96 264l-7 54z" />
<glyph unicode="&#xc3;" horiz-adv-x="745" d="M217 770l24 95l75 22l155 -50l36 53h25l-24 -95l-75 -22l-155 50l-36 -53h-25zM15 -1l-5 35l78 11l248 648l60 17l261 -665l78 -11l-5 -35l-138 3l-132 -3l-5 35l85 13l-68 187h-247l-65 -187l87 -13l-5 -35l-120 3zM241 281h213l-96 264l-7 54z" />
<glyph unicode="&#xc4;" horiz-adv-x="745" d="M241 777l-25 5l-5 49l9 40l60 5l25 -5l5 -48l-10 -41zM461 777l-25 5l-5 49l9 40l60 5l25 -5l5 -48l-10 -41zM15 -1l-5 35l78 11l248 648l60 17l261 -665l78 -11l-5 -35l-138 3l-132 -3l-5 35l85 13l-68 187h-247l-65 -187l87 -13l-5 -35l-120 3zM241 281h213l-96 264 l-7 54z" />
<glyph unicode="&#xc5;" horiz-adv-x="745" d="M371 729q-42 0 -72.5 23t-30.5 68q0 42 26.5 61.5t76.5 33.5q42 0 72.5 -23t30.5 -68q0 -42 -26.5 -61.5t-76.5 -33.5zM371 765q26 0 42 16t16 41t-16 41t-42 16t-42 -16t-16 -41t16 -41t42 -16zM15 -1l-5 35l78 11l248 648l60 17l261 -665l78 -11l-5 -35l-138 3l-132 -3 l-5 35l85 13l-68 187h-247l-65 -187l87 -13l-5 -35l-120 3zM241 281h213l-96 264l-7 54z" />
<glyph unicode="&#xc6;" horiz-adv-x="1011" d="M10 -1l-5 35l78 11l424 656l67 -3l377 3l10 -180h-34l-56 130l-245 3v-296l120 4l40 105h35l-10 -125l10 -135h-35l-40 105l-120 4v-270l255 3l67 135h38l-35 -185l-377 3l-138 -3l-5 35l90 13v267h-200l-164 -267l77 -13l-5 -35l-112 3zM345 356h176v295z" />
<glyph unicode="&#xc7;" horiz-adv-x="704" d="M643 60q-123 -60 -239 -77l-20 -30q34 -2 57.5 -22.5t23.5 -54.5q0 -40 -28 -66.5t-63 -37.5l-51 -17h-58l29 40h74q30 19 30 62q0 32 -24 46.5t-56 14.5l48 65q-138 12 -232 106.5t-94 251.5q0 168 101 260.5t277 116.5q70 0 134 -24t105 -54v-135h-55l-32 93 q-63 68 -166 68q-114 0 -181.5 -78.5t-67.5 -222.5q0 -83 31 -156.5t95 -122.5t148 -49q65 0 131 56l54 111h55z" />
<glyph unicode="&#xc8;" horiz-adv-x="630" d="M325 767l-119 133h110l67 -133h-58zM35 -1l-5 35l90 13v606l-90 13l5 35l138 -3l397 3l10 -180h-34l-56 130l-265 3v-266l140 4l40 105h35l-10 -125l10 -135h-35l-40 105l-140 4v-300l275 3l67 135h38l-35 -185l-397 3z" />
<glyph unicode="&#xc9;" horiz-adv-x="630" d="M311 767l67 133h110l-119 -133h-58zM35 -1l-5 35l90 13v606l-90 13l5 35l138 -3l397 3l10 -180h-34l-56 130l-265 3v-266l140 4l40 105h35l-10 -125l10 -135h-35l-40 105l-140 4v-300l275 3l67 135h38l-35 -185l-397 3z" />
<glyph unicode="&#xca;" horiz-adv-x="630" d="M194 767l107 133h83l107 -133h-58l-78 63l-13 15l-12 -15l-78 -63h-58zM35 -1l-5 35l90 13v606l-90 13l5 35l138 -3l397 3l10 -180h-34l-56 130l-265 3v-266l140 4l40 105h35l-10 -125l10 -135h-35l-40 105l-140 4v-300l275 3l67 135h38l-35 -185l-397 3z" />
<glyph unicode="&#xcb;" horiz-adv-x="630" d="M213 777l-25 5l-5 49l9 40l60 5l25 -5l5 -48l-10 -41zM433 777l-25 5l-5 49l9 40l60 5l25 -5l5 -48l-10 -41zM35 -1l-5 35l90 13v606l-90 13l5 35l138 -3l397 3l10 -180h-34l-56 130l-265 3v-266l140 4l40 105h35l-10 -125l10 -135h-35l-40 105l-140 4v-300l275 3l67 135 h38l-35 -185l-397 3z" />
<glyph unicode="&#xcc;" horiz-adv-x="345" d="M155 767l-119 133h110l67 -133h-58zM35 -1l-5 36l90 13v605l-90 13l5 35l138 -3l137 3l5 -35l-90 -13v-605l90 -13l-5 -36l-137 3z" />
<glyph unicode="&#xcd;" horiz-adv-x="345" d="M141 767l67 133h110l-119 -133h-58zM35 -1l-5 36l90 13v605l-90 13l5 35l138 -3l137 3l5 -35l-90 -13v-605l90 -13l-5 -36l-137 3z" />
<glyph unicode="&#xce;" horiz-adv-x="345" d="M24 767l107 133h83l107 -133h-58l-78 63l-13 15l-12 -15l-78 -63h-58zM35 -1l-5 36l90 13v605l-90 13l5 35l138 -3l137 3l5 -35l-90 -13v-605l90 -13l-5 -36l-137 3z" />
<glyph unicode="&#xcf;" horiz-adv-x="345" d="M43 777l-25 5l-5 49l9 40l60 5l25 -5l5 -48l-10 -41zM263 777l-25 5l-5 49l9 40l60 5l25 -5l5 -48l-10 -41zM35 -1l-5 36l90 13v605l-90 13l5 35l138 -3l137 3l5 -35l-90 -13v-605l90 -13l-5 -36l-137 3z" />
<glyph unicode="&#xd0;" horiz-adv-x="739" d="M369 701q155 1 242.5 -85.5t87.5 -245.5q0 -163 -85.5 -257.5t-254.5 -113.5l-189 3l-135 -3l-5 35l90 13v296h-80v40h80v270l-90 13l5 35l135 -3zM350 44q104 0 168.5 86t64.5 227q0 132 -67.5 216.5t-193.5 84.5l-97 -5v-270h125v-40h-125v-289z" />
<glyph unicode="&#xd1;" horiz-adv-x="743" d="M217 770l24 95l75 22l155 -50l36 53h25l-24 -95l-75 -22l-155 50l-36 -53h-25zM580 -2l-378 544l-17 69v-564l85 -13l-5 -35l-107 3l-123 -3l-5 35l90 13v599l-86 20l5 35l93 -3l75 3l350 -495l21 -59v506l-85 13l5 35l107 -3l123 3l5 -35l-90 -13v-655h-63z" />
<glyph unicode="&#xd2;" horiz-adv-x="780" d="M373 767l-119 133h110l67 -133h-58zM380 -18q-150 0 -245 100t-95 253q0 166 87.5 259t272.5 124q150 0 245 -100t95 -253q0 -166 -87.5 -259t-272.5 -124zM405 37q110 0 165 82.5t55 212.5q0 58 -13.5 114t-41.5 106t-78 80.5t-116 30.5q-110 0 -165.5 -82.5 t-55.5 -212.5q0 -59 14 -115t42 -106t78.5 -80t115.5 -30z" />
<glyph unicode="&#xd3;" horiz-adv-x="780" d="M359 767l67 133h110l-119 -133h-58zM380 -18q-150 0 -245 100t-95 253q0 166 87.5 259t272.5 124q150 0 245 -100t95 -253q0 -166 -87.5 -259t-272.5 -124zM405 37q110 0 165 82.5t55 212.5q0 58 -13.5 114t-41.5 106t-78 80.5t-116 30.5q-110 0 -165.5 -82.5 t-55.5 -212.5q0 -59 14 -115t42 -106t78.5 -80t115.5 -30z" />
<glyph unicode="&#xd4;" horiz-adv-x="780" d="M242 767l107 133h83l107 -133h-58l-78 63l-13 15l-12 -15l-78 -63h-58zM380 -18q-150 0 -245 100t-95 253q0 166 87.5 259t272.5 124q150 0 245 -100t95 -253q0 -166 -87.5 -259t-272.5 -124zM405 37q110 0 165 82.5t55 212.5q0 58 -13.5 114t-41.5 106t-78 80.5 t-116 30.5q-110 0 -165.5 -82.5t-55.5 -212.5q0 -59 14 -115t42 -106t78.5 -80t115.5 -30z" />
<glyph unicode="&#xd5;" horiz-adv-x="780" d="M237 770l24 95l75 22l155 -50l36 53h25l-24 -95l-75 -22l-155 50l-36 -53h-25zM380 -18q-150 0 -245 100t-95 253q0 166 87.5 259t272.5 124q150 0 245 -100t95 -253q0 -166 -87.5 -259t-272.5 -124zM405 37q110 0 165 82.5t55 212.5q0 58 -13.5 114t-41.5 106t-78 80.5 t-116 30.5q-110 0 -165.5 -82.5t-55.5 -212.5q0 -59 14 -115t42 -106t78.5 -80t115.5 -30z" />
<glyph unicode="&#xd6;" horiz-adv-x="780" d="M261 777l-25 5l-5 49l9 40l60 5l25 -5l5 -48l-10 -41zM481 777l-25 5l-5 49l9 40l60 5l25 -5l5 -48l-10 -41zM380 -18q-150 0 -245 100t-95 253q0 166 87.5 259t272.5 124q150 0 245 -100t95 -253q0 -166 -87.5 -259t-272.5 -124zM405 37q110 0 165 82.5t55 212.5 q0 58 -13.5 114t-41.5 106t-78 80.5t-116 30.5q-110 0 -165.5 -82.5t-55.5 -212.5q0 -59 14 -115t42 -106t78.5 -80t115.5 -30z" />
<glyph unicode="&#xd7;" d="M143 16l-46 46l167 166l-167 167l46 46l166 -167l167 167l46 -46l-167 -167l167 -166l-46 -46l-167 167z" />
<glyph unicode="&#xd8;" horiz-adv-x="780" d="M634 629q106 -101 106 -264q0 -166 -87.5 -259t-272.5 -124q-115 0 -199 61l-45 -58h-58l67 87q-105 100 -105 263q0 166 87.5 259t272.5 124q116 0 200 -61l45 58h56zM155 368q0 -124 53 -216l337 434q-65 77 -169 77q-110 0 -165.5 -82.5t-55.5 -212.5zM405 37 q110 0 165 82.5t55 212.5q0 124 -53 216l-337 -435q66 -76 170 -76z" />
<glyph unicode="&#xd9;" horiz-adv-x="724" d="M360 767l-119 133h110l67 -133h-58zM372 -18q-267 0 -267 265v406l-90 13l5 35l138 -3l137 3l5 -35l-85 -13v-421q0 -195 167 -195q78 0 120 51t42 147v418l-90 13l5 35l128 -3l117 3l5 -35l-85 -13v-408q0 -104 -55 -167t-197 -96z" />
<glyph unicode="&#xda;" horiz-adv-x="724" d="M346 767l67 133h110l-119 -133h-58zM372 -18q-267 0 -267 265v406l-90 13l5 35l138 -3l137 3l5 -35l-85 -13v-421q0 -195 167 -195q78 0 120 51t42 147v418l-90 13l5 35l128 -3l117 3l5 -35l-85 -13v-408q0 -104 -55 -167t-197 -96z" />
<glyph unicode="&#xdb;" horiz-adv-x="724" d="M229 767l107 133h83l107 -133h-58l-78 63l-13 15l-12 -15l-78 -63h-58zM372 -18q-267 0 -267 265v406l-90 13l5 35l138 -3l137 3l5 -35l-85 -13v-421q0 -195 167 -195q78 0 120 51t42 147v418l-90 13l5 35l128 -3l117 3l5 -35l-85 -13v-408q0 -104 -55 -167t-197 -96z " />
<glyph unicode="&#xdc;" horiz-adv-x="724" d="M248 777l-25 5l-5 49l9 40l60 5l25 -5l5 -48l-10 -41zM468 777l-25 5l-5 49l9 40l60 5l25 -5l5 -48l-10 -41zM372 -18q-267 0 -267 265v406l-90 13l5 35l138 -3l137 3l5 -35l-85 -13v-421q0 -195 167 -195q78 0 120 51t42 147v418l-90 13l5 35l128 -3l117 3l5 -35 l-85 -13v-408q0 -104 -55 -167t-197 -96z" />
<glyph unicode="&#xdd;" horiz-adv-x="711" d="M349 767l67 133h110l-119 -133h-58zM192 -1l-5 35l120 13v228l-224 381l-78 11l5 34l138 -3l132 3l5 -34l-85 -13l172 -290l8 -39l173 329l-87 13l5 34l119 -3l111 3l5 -33l-78 -11l-218 -386l2 -224l115 -13l-5 -35l-162 3z" />
<glyph unicode="&#xde;" horiz-adv-x="595" d="M35 -1l-5 36l90 13v605l-90 13l5 35l138 -3l132 3l5 -35l-85 -13v-97l140 2q97 1 158.5 -46t61.5 -132q0 -92 -71 -146t-179 -77h-110v-109l115 -13l-5 -36l-162 3zM225 207h85q71 0 115.5 44.5t44.5 115.5q0 68 -37.5 108.5t-112.5 40.5l-95 -6v-303z" />
<glyph unicode="&#xdf;" horiz-adv-x="606" d="M408 -18q-39 0 -77 15.5t-60 32.5l-6 103h51l24 -73q40 -28 77 -28q32 0 53.5 22t21.5 52q0 57 -67 98l-61 37q-80 48 -80 155l65 42q70 45 70 137q0 36 -26.5 67t-73.5 31q-110 0 -110 -173v-500l-45 2l-115 -3l-5 30l70 10v374h-88v17l30 35h58v45q0 50 34 97t98 78 l68 33q92 0 148.5 -35.5t56.5 -97.5q0 -58 -36 -94t-119 -84q0 -31 14.5 -54.5t55.5 -45.5l64 -35q88 -48 88 -128q0 -60 -49.5 -101t-128.5 -61z" />
<glyph unicode="&#xe0;" horiz-adv-x="461" d="M217 551l-119 159h110l47 -159h-38zM177 -15q-66 0 -106.5 34.5t-40.5 93.5q0 44 35 92l225 75v50q0 51 -11 73.5t-48 22.5q-38 0 -82 -18l-17 -76h-86v73l181 80q95 0 126.5 -32t31.5 -127v-196q0 -48 17 -75h50l4 -35l-129 -25l-31 77zM183 55q27 0 65 26l42 29v130 l-145 -60q-20 -20 -20 -56t16.5 -52.5t41.5 -16.5z" />
<glyph unicode="&#xe1;" horiz-adv-x="461" d="M210 551l47 159h110l-119 -159h-38zM177 -15q-66 0 -106.5 34.5t-40.5 93.5q0 44 35 92l225 75v50q0 51 -11 73.5t-48 22.5q-38 0 -82 -18l-17 -76h-86v73l181 80q95 0 126.5 -32t31.5 -127v-196q0 -48 17 -75h50l4 -35l-129 -25l-31 77zM183 55q27 0 65 26l42 29v130 l-145 -60q-20 -20 -20 -56t16.5 -52.5t41.5 -16.5z" />
<glyph unicode="&#xe2;" horiz-adv-x="461" d="M81 551l107 159h71l107 -159h-46l-78 73l-19 26l-18 -26l-78 -73h-46zM177 -15q-66 0 -106.5 34.5t-40.5 93.5q0 44 35 92l225 75v50q0 51 -11 73.5t-48 22.5q-38 0 -82 -18l-17 -76h-86v73l181 80q95 0 126.5 -32t31.5 -127v-196q0 -48 17 -75h50l4 -35l-129 -25l-31 77 zM183 55q27 0 65 26l42 29v130l-145 -60q-20 -20 -20 -56t16.5 -52.5t41.5 -16.5z" />
<glyph unicode="&#xe3;" horiz-adv-x="461" d="M279 575l-154 58l-29 -56h-29l22 92l77 22l154 -58l29 56h28l-23 -97zM177 -15q-66 0 -106.5 34.5t-40.5 93.5q0 44 35 92l225 75v50q0 51 -11 73.5t-48 22.5q-38 0 -82 -18l-17 -76h-86v73l181 80q95 0 126.5 -32t31.5 -127v-196q0 -48 17 -75h50l4 -35l-129 -25l-31 77 zM183 55q27 0 65 26l42 29v130l-145 -60q-20 -20 -20 -56t16.5 -52.5t41.5 -16.5z" />
<glyph unicode="&#xe4;" horiz-adv-x="461" d="M113 578l-25 5l-5 49l9 40l60 5l25 -5l5 -48l-10 -41zM293 578l-25 5l-5 49l9 40l60 5l25 -5l5 -48l-10 -41zM177 -15q-66 0 -106.5 34.5t-40.5 93.5q0 44 35 92l225 75v50q0 51 -11 73.5t-48 22.5q-38 0 -82 -18l-17 -76h-86v73l181 80q95 0 126.5 -32t31.5 -127v-196 q0 -48 17 -75h50l4 -35l-129 -25l-31 77zM183 55q27 0 65 26l42 29v130l-145 -60q-20 -20 -20 -56t16.5 -52.5t41.5 -16.5z" />
<glyph unicode="&#xe5;" horiz-adv-x="461" d="M225 539q-44 0 -74.5 21.5t-30.5 69.5q0 42 26 61.5t76 33.5q103 0 103 -95q0 -19 -4 -32.5t-17 -23t-19 -13t-30 -12t-30 -10.5zM223 578q24 0 40 14.5t16 37.5t-16.5 39.5t-39.5 16.5t-39.5 -16.5t-16.5 -39.5t16 -37.5t40 -14.5zM177 -15q-66 0 -106.5 34.5 t-40.5 93.5q0 44 35 92l225 75v50q0 51 -11 73.5t-48 22.5q-38 0 -82 -18l-17 -76h-86v73l181 80q95 0 126.5 -32t31.5 -127v-196q0 -48 17 -75h50l4 -35l-129 -25l-31 77zM183 55q27 0 65 26l42 29v130l-145 -60q-20 -20 -20 -56t16.5 -52.5t41.5 -16.5z" />
<glyph unicode="&#xe6;" horiz-adv-x="708" d="M657 102l16 -38q-73 -50 -175 -79q-58 0 -108 25t-81 71l-131 -96q-65 0 -106.5 34t-41.5 90q0 48 35 96l218 75v50q0 50 -10 73t-42 23q-38 0 -82 -18l-17 -79h-86v76l178 80q59 0 91 -12.5t47 -43.5q52 38 132 56q93 0 135 -51t42 -137v-42h-298q3 -88 47.5 -141.5 t121.5 -53.5q51 0 115 42zM480 435q-46 0 -73.5 -38t-32.5 -103l193 11q0 65 -18 97.5t-69 32.5zM283 179v61l-138 -60q-20 -20 -20 -60q0 -32 17.5 -48.5t41.5 -16.5t61 27l38 28v69z" />
<glyph unicode="&#xe7;" horiz-adv-x="451" d="M236 -47q34 -2 57.5 -22.5t23.5 -54.5q0 -40 -28 -66.5t-63 -37.5l-51 -17h-58l29 40h74q30 19 30 62q0 32 -24 46.5t-56 14.5l51 70q-82 13 -131.5 74t-49.5 161q0 109 67 173t171 89q34 0 74.5 -15t63.5 -35v-100h-74l-23 81q-21 16 -58 16q-51 0 -85.5 -52t-34.5 -133 q0 -82 42 -134.5t114 -52.5q49 0 113 42l16 -38q-68 -49 -163 -79h-5z" />
<glyph unicode="&#xe8;" horiz-adv-x="475" d="M294 551h-38l-119 159h110zM424 102l16 -38q-73 -50 -175 -79q-96 0 -163 65t-67 178q0 208 226 257q93 0 135 -51t42 -137v-42h-305q3 -92 46 -143.5t120 -51.5q57 0 125 42zM242 435q-44 0 -73 -37t-35 -101l200 8q0 65 -19 97.5t-73 32.5z" />
<glyph unicode="&#xe9;" horiz-adv-x="475" d="M406 710l-119 -159h-38l47 159h110zM424 102l16 -38q-73 -50 -175 -79q-96 0 -163 65t-67 178q0 208 226 257q93 0 135 -51t42 -137v-42h-305q3 -92 46 -143.5t120 -51.5q57 0 125 42zM242 435q-44 0 -73 -37t-35 -101l200 8q0 65 -19 97.5t-73 32.5z" />
<glyph unicode="&#xea;" horiz-adv-x="475" d="M244 624l-78 -73h-46l107 159h71l107 -159h-46l-78 73l-19 26zM424 102l16 -38q-73 -50 -175 -79q-96 0 -163 65t-67 178q0 208 226 257q93 0 135 -51t42 -137v-42h-305q3 -92 46 -143.5t120 -51.5q57 0 125 42zM242 435q-44 0 -73 -37t-35 -101l200 8q0 65 -19 97.5 t-73 32.5z" />
<glyph unicode="&#xeb;" horiz-adv-x="475" d="M152 578l-25 5l-5 49l9 40l60 5l25 -5l5 -48l-10 -41zM332 578l-25 5l-5 49l9 40l60 5l25 -5l5 -48l-10 -41zM424 102l16 -38q-73 -50 -175 -79q-96 0 -163 65t-67 178q0 208 226 257q93 0 135 -51t42 -137v-42h-305q3 -92 46 -143.5t120 -51.5q57 0 125 42zM242 435 q-44 0 -73 -37t-35 -101l200 8q0 65 -19 97.5t-73 32.5z" />
<glyph unicode="&#xec;" horiz-adv-x="295" d="M143 551l-119 159h110l47 -159h-38zM40 -1l-5 35l70 10v365l-70 -6l-5 35l120 31l50 4v-429l75 -10l-5 -35l-115 3z" />
<glyph unicode="&#xed;" horiz-adv-x="295" d="M136 551l47 159h110l-119 -159h-38zM40 -1l-5 35l70 10v365l-70 -6l-5 35l120 31l50 4v-429l75 -10l-5 -35l-115 3z" />
<glyph unicode="&#xee;" horiz-adv-x="295" d="M7 551l107 159h71l107 -159h-46l-78 73l-19 26l-18 -26l-78 -73h-46zM40 -1l-5 35l70 10v365l-70 -6l-5 35l120 31l50 4v-429l75 -10l-5 -35l-115 3z" />
<glyph unicode="&#xef;" horiz-adv-x="295" d="M39 578l-25 5l-5 49l9 40l60 5l25 -5l5 -48l-10 -41zM219 578l-25 5l-5 49l9 40l60 5l25 -5l5 -48l-10 -41zM40 -1l-5 35l70 10v365l-70 -6l-5 35l120 31l50 4v-429l75 -10l-5 -35l-115 3z" />
<glyph unicode="&#xf0;" horiz-adv-x="535" d="M332 623q168 -120 168 -334q0 -135 -57 -206.5t-172 -97.5q-101 3 -168.5 74t-67.5 188q0 100 53 162t148 66l150 -70q-28 113 -116 188l-114 -56v55l69 34q-46 31 -103 54l22 40q89 -36 139 -66l125 61v-55zM273 27q57 0 92 66.5t34 190.5q0 36 -5 74l-31 17 q-69 37 -109 37q-52 0 -83 -45.5t-31 -118.5q0 -99 39.5 -160t93.5 -61z" />
<glyph unicode="&#xf1;" horiz-adv-x="588" d="M350 575l-154 58l-29 -56h-29l22 92l77 22l154 -58l29 56h28l-23 -97zM40 -1l-5 35l70 10v365l-70 -6l-5 35l120 31l43 3l5 -84l148 97q92 0 120.5 -34.5t28.5 -128.5v-278l76 -10l-5 -35l-115 3l-96 -3l-5 35l50 10v286q0 75 -66 75q-37 0 -104 -45l-30 -20v-296l55 -10 l-5 -35l-95 3z" />
<glyph unicode="&#xf2;" horiz-adv-x="539" d="M265 551l-119 159h110l47 -159h-38zM258 -15q-99 0 -161 68t-62 171q0 110 63.5 175.5t182.5 85.5q99 0 161 -68.5t62 -171.5q0 -110 -64 -175.5t-182 -84.5zM283 34q58 0 89.5 53t31.5 137q0 95 -41 153.5t-107 58.5q-59 0 -90 -53t-31 -138q0 -88 41.5 -149.5 t106.5 -61.5z" />
<glyph unicode="&#xf3;" horiz-adv-x="539" d="M258 551l47 159h110l-119 -159h-38zM258 -15q-99 0 -161 68t-62 171q0 110 63.5 175.5t182.5 85.5q99 0 161 -68.5t62 -171.5q0 -110 -64 -175.5t-182 -84.5zM283 34q58 0 89.5 53t31.5 137q0 95 -41 153.5t-107 58.5q-59 0 -90 -53t-31 -138q0 -88 41.5 -149.5 t106.5 -61.5z" />
<glyph unicode="&#xf4;" horiz-adv-x="539" d="M129 551l107 159h71l107 -159h-46l-78 73l-19 26l-18 -26l-78 -73h-46zM258 -15q-99 0 -161 68t-62 171q0 110 63.5 175.5t182.5 85.5q99 0 161 -68.5t62 -171.5q0 -110 -64 -175.5t-182 -84.5zM283 34q58 0 89.5 53t31.5 137q0 95 -41 153.5t-107 58.5q-59 0 -90 -53 t-31 -138q0 -88 41.5 -149.5t106.5 -61.5z" />
<glyph unicode="&#xf5;" horiz-adv-x="539" d="M327 575l-154 58l-29 -56h-29l22 92l77 22l154 -58l29 56h28l-23 -97zM258 -15q-99 0 -161 68t-62 171q0 110 63.5 175.5t182.5 85.5q99 0 161 -68.5t62 -171.5q0 -110 -64 -175.5t-182 -84.5zM283 34q58 0 89.5 53t31.5 137q0 95 -41 153.5t-107 58.5q-59 0 -90 -53 t-31 -138q0 -88 41.5 -149.5t106.5 -61.5z" />
<glyph unicode="&#xf6;" horiz-adv-x="539" d="M161 578l-25 5l-5 49l9 40l60 5l25 -5l5 -48l-10 -41zM341 578l-25 5l-5 49l9 40l60 5l25 -5l5 -48l-10 -41zM258 -15q-99 0 -161 68t-62 171q0 110 63.5 175.5t182.5 85.5q99 0 161 -68.5t62 -171.5q0 -110 -64 -175.5t-182 -84.5zM283 34q58 0 89.5 53t31.5 137 q0 95 -41 153.5t-107 58.5q-59 0 -90 -53t-31 -138q0 -88 41.5 -149.5t106.5 -61.5z" />
<glyph unicode="&#xf7;" d="M289 365l-30 5l-5 57l5 48l75 5l30 -5l5 -56l-5 -49zM47 212v65h525v-65h-525zM289 -5l-30 5l-5 57l5 48l75 5l30 -5l5 -56l-5 -49z" />
<glyph unicode="&#xf8;" horiz-adv-x="544" d="M444 414q60 -68 60 -169q0 -110 -64 -175.5t-182 -84.5q-78 0 -135 44l-33 -39h-53l56 67q-58 67 -58 167q0 110 63.5 175.5t182.5 85.5q77 0 134 -44l33 39h51zM135 245q0 -60 21 -113l206 246q-41 58 -106 58q-59 0 -90 -53t-31 -138zM283 34q58 0 89.5 53t31.5 137 q0 64 -21 117l-206 -247q42 -60 106 -60z" />
<glyph unicode="&#xf9;" horiz-adv-x="566" d="M262 551l-119 159h110l47 -159h-38zM239 -15q-95 0 -124.5 35.5t-29.5 127.5v261l-70 -5l-5 39l120 26l51 4v-333q0 -39 16.5 -57t53.5 -18q33 0 109 50l20 13v281l-60 -5l-5 39l110 26l50 4v-343q0 -48 12 -75h50l4 -35l-129 -25l-28 81z" />
<glyph unicode="&#xfa;" horiz-adv-x="566" d="M255 551l47 159h110l-119 -159h-38zM239 -15q-95 0 -124.5 35.5t-29.5 127.5v261l-70 -5l-5 39l120 26l51 4v-333q0 -39 16.5 -57t53.5 -18q33 0 109 50l20 13v281l-60 -5l-5 39l110 26l50 4v-343q0 -48 12 -75h50l4 -35l-129 -25l-28 81z" />
<glyph unicode="&#xfb;" horiz-adv-x="566" d="M126 551l107 159h71l107 -159h-46l-78 73l-19 26l-18 -26l-78 -73h-46zM239 -15q-95 0 -124.5 35.5t-29.5 127.5v261l-70 -5l-5 39l120 26l51 4v-333q0 -39 16.5 -57t53.5 -18q33 0 109 50l20 13v281l-60 -5l-5 39l110 26l50 4v-343q0 -48 12 -75h50l4 -35l-129 -25 l-28 81z" />
<glyph unicode="&#xfc;" horiz-adv-x="566" d="M158 578l-25 5l-5 49l9 40l60 5l25 -5l5 -48l-10 -41zM338 578l-25 5l-5 49l9 40l60 5l25 -5l5 -48l-10 -41zM239 -15q-95 0 -124.5 35.5t-29.5 127.5v261l-70 -5l-5 39l120 26l51 4v-333q0 -39 16.5 -57t53.5 -18q33 0 109 50l20 13v281l-60 -5l-5 39l110 26l50 4v-343 q0 -48 12 -75h50l4 -35l-129 -25l-28 81z" />
<glyph unicode="&#xfd;" horiz-adv-x="542" d="M267 551l47 159h110l-119 -159h-38zM85 -235v100h86l99 151l-40 -12l-163 422l-62 10l5 35l115 -3l105 3l5 -35l-66 -10l106 -293l8 -69l119 362l-46 10l5 35l88 -3l83 3l5 -35l-64 -10l-157 -409l-112 -252h-119z" />
<glyph unicode="&#xfe;" horiz-adv-x="555" d="M25 -231l-5 35l70 10v836l-70 -5l-5 34l120 31l50 4v-324l126 95q96 0 150 -62t54 -171q0 -233 -251 -267q-42 0 -79 21v-192l105 -10l-5 -35l-145 3zM294 35q55 0 88 50.5t33 135.5q0 86 -29 137.5t-75 51.5q-35 0 -96 -46l-30 -23v-251q36 -55 109 -55z" />
<glyph unicode="&#xff;" horiz-adv-x="542" d="M170 578l-25 5l-5 49l9 40l60 5l25 -5l5 -48l-10 -41zM350 578l-25 5l-5 49l9 40l60 5l25 -5l5 -48l-10 -41zM85 -235v100h86l99 151l-40 -12l-163 422l-62 10l5 35l115 -3l105 3l5 -35l-66 -10l106 -293l8 -69l119 362l-46 10l5 35l88 -3l83 3l5 -35l-64 -10l-157 -409 l-112 -252h-119z" />
<glyph unicode="&#x131;" horiz-adv-x="295" d="M40 -1l-5 35l70 10v365l-70 -6l-5 35l120 31l50 4v-429l75 -10l-5 -35l-115 3z" />
<glyph unicode="&#x13f;" horiz-adv-x="590" d="M35 -1l-5 35l90 13v606l-90 13l5 35l138 -3l137 3l5 -35l-90 -13v-607l250 3l67 135h38l-35 -185l-372 3zM342 345l-30 5l-5 57l5 48l75 5l30 -5l5 -56l-5 -49z" />
<glyph unicode="&#x140;" horiz-adv-x="383" d="M40 -1l-5 35l70 10v602l-70 -2l-5 35l120 31l50 4v-670l75 -10l-5 -35l-115 3zM302 345l-30 5l-5 57l5 48l75 5l30 -5l5 -56l-5 -49z" />
<glyph unicode="&#x152;" horiz-adv-x="960" d="M380 -10q-150 0 -245 97.5t-95 247.5q0 165 81.5 251.5t278.5 123.5l128 -11l377 2l10 -180h-34l-56 130l-250 3v-266l120 4l40 105h35l-10 -125l10 -135h-35l-40 105l-120 4v-300l255 3l67 136h38l-35 -186l-377 2zM470 44v606l-102 5q-104 0 -158.5 -79t-54.5 -210 q0 -133 74 -227t182 -94z" />
<glyph unicode="&#x153;" horiz-adv-x="835" d="M784 102l16 -38q-73 -50 -175 -79q-116 0 -182 87q-64 -67 -185 -87q-99 0 -161 68t-62 171q0 110 63.5 175t182.5 85q110 0 174 -85q58 63 166 86q93 0 135 -51t42 -137v-42h-298q3 -89 47.5 -142t121.5 -53q51 0 115 42zM283 34q58 0 89.5 53t31.5 137q0 95 -41 153 t-107 58q-59 0 -90 -52.5t-31 -137.5q0 -88 41.5 -149.5t106.5 -61.5zM607 435q-47 0 -74.5 -36.5t-31.5 -103.5l193 10q0 65 -18 97.5t-69 32.5z" />
<glyph unicode="&#x178;" horiz-adv-x="711" d="M251 777l-25 5l-5 49l9 40l60 5l25 -5l5 -48l-10 -41zM471 777l-25 5l-5 49l9 40l60 5l25 -5l5 -48l-10 -41zM192 -1l-5 35l120 13v228l-224 381l-78 11l5 34l138 -3l132 3l5 -34l-85 -13l172 -290l8 -39l173 329l-87 13l5 34l119 -3l111 3l5 -33l-78 -11l-218 -386 l2 -224l115 -13l-5 -35l-162 3z" />
<glyph unicode="&#x237;" horiz-adv-x="270" d="M-20 -235v88h96l10 22q19 42 19 110v424l-70 -6l-5 35l120 31l50 4v-473q0 -77 -55 -140l-84 -95h-81z" />
<glyph unicode="&#x2c6;" horiz-adv-x="600" d="M101 551l107 159h71l107 -159h-46l-78 73l-19 26l-18 -26l-78 -73h-46z" />
<glyph unicode="&#x2dc;" horiz-adv-x="600" d="M306 572l-154 58l-29 -56h-29l22 92l77 22l154 -58l29 56h28l-23 -97z" />
<glyph unicode="&#x2000;" horiz-adv-x="457" />
<glyph unicode="&#x2001;" horiz-adv-x="915" />
<glyph unicode="&#x2002;" horiz-adv-x="457" />
<glyph unicode="&#x2003;" horiz-adv-x="915" />
<glyph unicode="&#x2004;" horiz-adv-x="305" />
<glyph unicode="&#x2005;" horiz-adv-x="228" />
<glyph unicode="&#x2006;" horiz-adv-x="152" />
<glyph unicode="&#x2007;" horiz-adv-x="152" />
<glyph unicode="&#x2008;" horiz-adv-x="114" />
<glyph unicode="&#x2009;" horiz-adv-x="183" />
<glyph unicode="&#x200a;" horiz-adv-x="50" />
<glyph unicode="&#x2010;" horiz-adv-x="370" d="M35 242v65h300v-65h-300z" />
<glyph unicode="&#x2011;" horiz-adv-x="370" d="M35 242v65h300v-65h-300z" />
<glyph unicode="&#x2012;" horiz-adv-x="370" d="M35 242v65h300v-65h-300z" />
<glyph unicode="&#x2013;" horiz-adv-x="470" d="M35 252v50h400v-50h-400z" />
<glyph unicode="&#x2014;" horiz-adv-x="870" d="M35 252v50h800v-50h-800z" />
<glyph unicode="&#x2018;" horiz-adv-x="185" d="M110 720l37 -15q-13 -28 -25 -68t-12 -58l40 -4l5 -57l-5 -48l-75 -5l-30 5l-5 56l5 49z" />
<glyph unicode="&#x2019;" horiz-adv-x="190" d="M90 455l-37 15q13 28 25 68t12 58l-40 4l-5 57l5 48l75 5l30 -5l5 -56l-5 -49z" />
<glyph unicode="&#x201a;" horiz-adv-x="205" d="M95 -146l-37 15q13 28 25 68t12 58l-40 4l-5 57l5 48l75 5l30 -5l5 -56l-5 -49z" />
<glyph unicode="&#x201c;" horiz-adv-x="345" d="M110 720l37 -15q-13 -28 -25 -68t-12 -58l40 -4l5 -57l-5 -48l-75 -5l-30 5l-5 56l5 49zM270 720l37 -15q-13 -28 -25 -68t-12 -58l40 -4l5 -57l-5 -48l-75 -5l-30 5l-5 56l5 49z" />
<glyph unicode="&#x201d;" horiz-adv-x="350" d="M90 455l-37 15q13 28 25 68t12 58l-40 4l-5 57l5 48l75 5l30 -5l5 -56l-5 -49zM250 455l-37 15q13 28 25 68t12 58l-40 4l-5 57l5 48l75 5l30 -5l5 -56l-5 -49z" />
<glyph unicode="&#x201e;" horiz-adv-x="365" d="M95 -146l-37 15q13 28 25 68t12 58l-40 4l-5 57l5 48l75 5l30 -5l5 -56l-5 -49zM255 -146l-37 15q13 28 25 68t12 58l-40 4l-5 57l5 48l75 5l30 -5l5 -56l-5 -49z" />
<glyph unicode="&#x2022;" horiz-adv-x="235" d="M95 236l-40 5l-5 67l5 58l85 5l40 -5l5 -66l-5 -59z" />
<glyph unicode="&#x2026;" horiz-adv-x="765" d="M110 -5l-30 5l-5 57l5 48l75 5l30 -5l5 -56l-5 -49zM360 -5l-30 5l-5 57l5 48l75 5l30 -5l5 -56l-5 -49zM610 -5l-30 5l-5 57l5 48l75 5l30 -5l5 -56l-5 -49z" />
<glyph unicode="&#x202f;" horiz-adv-x="183" />
<glyph unicode="&#x2039;" horiz-adv-x="275" d="M196 15l-181 220l182 220h48l-127 -221l127 -219h-49z" />
<glyph unicode="&#x203a;" horiz-adv-x="275" d="M30 15l127 219l-127 221h48l182 -220l-181 -220h-49z" />
<glyph unicode="&#x2044;" horiz-adv-x="123" d="M-160 -50l387 760h56l-385 -760h-58z" />
<glyph unicode="&#x205f;" horiz-adv-x="228" />
<glyph unicode="&#x2070;" horiz-adv-x="414" d="M196 392q-70 0 -110 54t-40 141q0 88 41 139t133 67q69 0 109 -54t40 -141q0 -88 -41 -139t-132 -67zM214 428q31 0 47 43t16 111q0 78 -19 126.5t-56 48.5q-32 0 -48 -42.5t-16 -110.5q0 -176 76 -176z" />
<glyph unicode="&#x2074;" horiz-adv-x="382" d="M204 400v96h-152l-24 38l196 251h71v-32l-210 -212l30 11h89v61l58 48h18v-109h74v-56h-74v-96h-76z" />
<glyph unicode="&#x2075;" horiz-adv-x="346" d="M46 400v70h131q36 28 36 67q0 29 -18 47t-53 18q-26 0 -59 -13l-20 -9l-17 13l25 192h225v-25l-18 -40h-181l-14 -103l87 41q63 0 97.5 -27.5t34.5 -70.5q0 -25 -8.5 -43.5t-31.5 -36t-37 -25t-51 -26.5l-60 -29h-68z" />
<glyph unicode="&#x2076;" horiz-adv-x="382" d="M219 648q58 0 89 -34.5t31 -81.5q0 -63 -40.5 -93t-118.5 -47q-63 0 -98.5 41.5t-35.5 113.5q0 171 239 250l9 -29q-82 -31 -116 -70t-38 -110zM197 425q55 0 55 86q0 34 -13 55t-32 21q-18 0 -49 -21l-19 -13q0 -128 58 -128z" />
<glyph unicode="&#x2077;" horiz-adv-x="347" d="M65 400v34l184 287l-10 -6h-210v70h268l18 -20l-179 -365h-71z" />
<glyph unicode="&#x2078;" horiz-adv-x="385" d="M240 617q98 -51 98 -109q0 -45 -36.5 -70.5t-115.5 -45.5q-60 0 -99.5 29.5t-39.5 72.5q0 31 20 53.5t69 40.5q-80 44 -80 102q0 72 138 103q60 0 96 -24.5t36 -62.5q0 -60 -86 -89zM190 760q-22 0 -34 -12.5t-12 -35.5q0 -43 64 -77q33 24 33 66q0 24 -13.5 41.5 t-37.5 17.5zM192 425q24 0 40 15.5t16 43.5q0 30 -23.5 49.5t-59.5 36.5l-1 1q-31 -25 -31 -74q0 -31 17 -51.5t42 -20.5z" />
<glyph unicode="&#x2079;" horiz-adv-x="378" d="M197 793q63 0 99 -41.5t36 -113.5q0 -170 -238 -249l-9 30q82 31 115.5 69t38.5 108l-80 -58q-58 0 -89 34.5t-31 80.5q0 33 11.5 57t35 40t49 25.5t62.5 17.5zM172 598q16 0 47 21l21 14q-2 127 -59 127q-54 0 -54 -86q0 -34 13 -55t32 -21z" />
<glyph unicode="&#x207a;" horiz-adv-x="409" d="M182 430v117h-132v45h132v121h46v-121h131v-45h-131v-117h-46z" />
<glyph unicode="&#x207c;" horiz-adv-x="409" d="M50 596v45h309v-45h-309zM50 489v44h309v-44h-309z" />
<glyph unicode="&#x207d;" horiz-adv-x="217" d="M178 299q-72 72 -100 127t-28 139t28 139.5t100 124.5l19 -17q-43 -57 -60.5 -112.5t-17.5 -134.5q0 -77 18 -134.5t60 -114.5z" />
<glyph unicode="&#x207e;" horiz-adv-x="187" d="M39 299l-19 17q42 57 60 114.5t18 134.5q0 79 -17.5 134.5t-60.5 112.5l19 17q71 -67 99.5 -123t28.5 -141t-28 -141t-100 -125z" />
<glyph unicode="&#x2080;" horiz-adv-x="414" d="M196 -158q-70 0 -110 54t-40 141q0 88 41 139t133 67q69 0 109 -54t40 -141q0 -88 -41 -139t-132 -67zM214 -122q31 0 47 43t16 111q0 78 -19 126.5t-56 48.5q-32 0 -48 -42.5t-16 -110.5q0 -176 76 -176z" />
<glyph unicode="&#x2081;" horiz-adv-x="325" d="M43 -151l-3 28l86 10v279l6 15l-28 -17l-57 -9l-13 26l135 57h43v-351l86 -10l-3 -28l-125 2z" />
<glyph unicode="&#x2082;" horiz-adv-x="376" d="M39 -150l-14 27l111 111q89 90 89 153q0 30 -14 48t-38 18q-17 0 -37 -8l-18 -69h-66v73l132 40q59 0 95 -27.5t36 -73.5q0 -49 -31 -87.5t-97 -86.5l-101 -73l60 21h181v-24l-19 -42h-269z" />
<glyph unicode="&#x2083;" horiz-adv-x="354" d="M43 -150v70h142q30 23 30 57q0 29 -23.5 47t-68.5 18l-6 22l22 8q61 24 61 78q0 26 -12 40.5t-31 14.5q-18 0 -32 -7l-18 -68h-65v73l131 40q57 0 83.5 -21t26.5 -53q0 -61 -90 -90q54 -4 83 -28t29 -57q0 -16 -6.5 -30.5t-14.5 -24t-25.5 -20t-27.5 -15.5t-33.5 -15.5 t-31.5 -14.5l-53 -24h-70z" />
<glyph unicode="&#x2084;" horiz-adv-x="382" d="M204 -150v96h-152l-24 38l196 251h71v-32l-210 -212l30 11h89v61l58 48h18v-109h74v-56h-74v-96h-76z" />
<glyph unicode="&#x2085;" horiz-adv-x="346" d="M46 -150v70h131q36 28 36 67q0 29 -18 47t-53 18q-26 0 -59 -13l-20 -9l-17 13l25 192h225v-25l-18 -40h-181l-14 -103l87 41q63 0 97.5 -27.5t34.5 -70.5q0 -25 -8.5 -43.5t-31.5 -36t-37 -25t-51 -26.5l-60 -29h-68z" />
<glyph unicode="&#x2086;" horiz-adv-x="382" d="M219 98q58 0 89 -34.5t31 -81.5q0 -63 -40.5 -93t-118.5 -47q-63 0 -98.5 41.5t-35.5 113.5q0 171 239 250l9 -29q-82 -31 -116 -70t-38 -110zM197 -125q55 0 55 86q0 34 -13 55t-32 21q-18 0 -49 -21l-19 -13q0 -128 58 -128z" />
<glyph unicode="&#x2087;" horiz-adv-x="347" d="M65 -150v34l184 287l-10 -6h-210v70h268l18 -20l-179 -365h-71z" />
<glyph unicode="&#x2088;" horiz-adv-x="385" d="M240 67q98 -51 98 -109q0 -45 -36.5 -70.5t-115.5 -45.5q-60 0 -99.5 29.5t-39.5 72.5q0 31 20 53.5t69 40.5q-80 44 -80 102q0 72 138 103q60 0 96 -24.5t36 -62.5q0 -60 -86 -89zM190 210q-22 0 -34 -12.5t-12 -35.5q0 -43 64 -77q33 24 33 66q0 24 -13.5 41.5 t-37.5 17.5zM192 -125q24 0 40 15.5t16 43.5q0 30 -23.5 49.5t-59.5 36.5l-1 1q-31 -25 -31 -74q0 -31 17 -51.5t42 -20.5z" />
<glyph unicode="&#x2089;" horiz-adv-x="378" d="M197 243q63 0 99 -41.5t36 -113.5q0 -170 -238 -249l-9 30q82 31 115.5 69t38.5 108l-80 -58q-58 0 -89 34.5t-31 80.5q0 33 11.5 57t35 40t49 25.5t62.5 17.5zM172 48q16 0 47 21l21 14q-2 127 -59 127q-54 0 -54 -86q0 -34 13 -55t32 -21z" />
<glyph unicode="&#x208a;" horiz-adv-x="409" d="M182 -130v117h-132v45h132v121h46v-121h131v-45h-131v-117h-46z" />
<glyph unicode="&#x208c;" horiz-adv-x="409" d="M50 36v45h309v-45h-309zM50 -71v44h309v-44h-309z" />
<glyph unicode="&#x208d;" horiz-adv-x="217" d="M178 -261q-72 72 -100 127t-28 139t28 139.5t100 124.5l19 -17q-43 -57 -60.5 -112.5t-17.5 -134.5q0 -77 18 -134.5t60 -114.5z" />
<glyph unicode="&#x208e;" horiz-adv-x="187" d="M39 -261l-19 17q42 57 60 114.5t18 134.5q0 79 -17.5 134.5t-60.5 112.5l19 17q71 -67 99.5 -123t28.5 -141t-28 -141t-100 -125z" />
<glyph unicode="&#x20ac;" horiz-adv-x="680" d="M412 665q-68 0 -118 -60.5t-67 -159.5h313l-30 -55h-289q-1 -10 -1 -32q0 -18 2 -48h258l-30 -55h-219q21 -92 78.5 -143.5t141.5 -51.5q76 0 159 50l21 -40q-36 -23 -95 -48t-106 -37q-128 0 -210 71t-103 199h-72v55h66q-1 10 -1 31q0 17 2 49h-67v55h74q21 110 95 175 t211 95q126 0 215 -75v-135h-50l-25 95q-53 65 -153 65z" />
<glyph unicode="&#x2116;" horiz-adv-x="1009" d="M35 0l-5 29l95 12v604l-86 20l5 35l93 -3l92 3l226 -450l28 -110v560h135l5 -30l-85 -11v-659h-73l-258 516l-27 109v-625h-145zM772 125q-74 0 -119 47.5t-45 125.5q0 80 49 125.5t152 61.5q69 0 111.5 -47.5t42.5 -125.5q0 -80 -46 -125.5t-145 -61.5zM802 175 q31 0 48.5 28t17.5 78q0 71 -24 112.5t-65 41.5q-35 0 -55.5 -28t-20.5 -78q0 -70 27 -112t72 -42zM608 0v65h356v-65h-356z" />
<glyph unicode="&#x2122;" horiz-adv-x="1033" d="M122 314l-3 29l65 7v317l-74 -2l-29 -80h-31v116l183 -2l176 2v-116h-30l-30 80l-73 2v-317l63 -7l-3 -29l-106 2zM443 314l-3 29l45 7v316l-46 7l3 28l56 -2l98 2l112 -269v-49l124 318l82 -2l66 2l3 -28l-45 -7v-316l44 -7l-3 -29l-85 2l-88 -2l-3 29l46 7v252l9 67 l-138 -354h-56l-116 282l-17 68v-315l45 -7l-3 -29l-65 2z" />
<glyph unicode="&#x25fc;" horiz-adv-x="470" d="M0 470h470v-470h-470v470z" />
<glyph unicode="&#xfb03;" horiz-adv-x="903" d="M48 -1l-5 34l70 10v370h-88v17l30 35h58v2q0 44 16 75.5t48 67.5l75 85h178l-66 -80h-116l-18 -25q-22 -30 -22 -105v-25h210v15q0 77 55 140l84 95h252v-95h-25l-70 15h-160l-19 -25q-22 -26 -22 -110v-35h172l73 11l50 2v-430l75 -10l-5 -34l-115 3l-95 -3l-5 37l50 7 v337l5 40l-35 -7h-170v-370l75 -7l-5 -37l-115 3l-115 -3l-5 34l70 10v370h-210v-370l85 -7l-5 -37l-125 3z" />
<glyph unicode="&#xfb04;" horiz-adv-x="908" d="M48 -1l-5 34l70 10v370h-88v17l30 35h58v2q0 44 16 76t48 67l75 85h178l-66 -80h-116l-18 -25q-22 -30 -22 -105v-25h210v15q0 77 55 140l84 95h147l80 4h34v-671l75 -10l-5 -34l-115 3l-105 -3l-5 34l60 10v370h-210v-370l85 -7l-5 -37l-125 3l-95 -3l-5 34l50 10v370 h-210v-370l85 -7l-5 -37l-125 3zM513 460h210v190l-57 -20h-112l-19 -25q-22 -30 -22 -110v-35z" />
<glyph horiz-adv-x="345" d="M141 767l67 133h110l-119 -133h-58zM0 -175v90h105l9 21q11 25 13.5 55t2.5 104v558l-110 13l5 35l158 -3l132 3l5 -35l-85 -13v-553q0 -65 -9.5 -100.5t-35.5 -64.5l-100 -110h-90z" />
<glyph horiz-adv-x="270" d="M140 551l47 159h110l-119 -159h-38zM-20 -235v88h96l10 22q19 42 19 110v424l-70 -6l-5 35l120 31l50 4v-473q0 -77 -55 -140l-84 -95h-81z" />
<glyph horiz-adv-x="590" d="M300 485q105 0 177.5 -68.5t72.5 -171.5q0 -197 -260 -260q-105 0 -177.5 68.5t-72.5 171.5q0 197 260 260zM280 430q-60 0 -95 -51.5t-35 -123.5q0 -71 24 -125l213 254q-40 46 -107 46zM310 40q60 0 95 51.5t35 123.5q0 80 -29 136l-215 -258q42 -53 114 -53z" />
<glyph d="M306 -15q-105 0 -177.5 68.5t-72.5 171.5q0 197 260 260q105 0 177.5 -68.5t72.5 -171.5q0 -197 -260 -260zM326 40q60 0 95 51.5t35 123.5q0 94 -40.5 154.5t-119.5 60.5q-60 0 -95 -51.5t-35 -123.5q0 -94 40.5 -154.5t119.5 -60.5z" />
<glyph d="M115 -1l-5 35l155 17v319l5 18l-42 -20l-110 -24l-18 36l225 95h40v-424l155 -17l-5 -35l-200 3z" />
<glyph d="M95 0l-20 43l177 134q74 56 106.5 92.5t32.5 75.5q0 37 -22 61t-68 24q-31 0 -63 -18l-36 -107h-74v109l189 71q83 0 131 -35.5t48 -94.5q0 -65 -42 -108t-138 -99l-148 -84l105 26h274v-30l-26 -60h-426z" />
<glyph d="M106 -230v90h214q42 21 65.5 57.5t23.5 80.5q0 57 -50 90.5t-134 33.5l-10 28l46 20q62 27 90.5 64t28.5 91q0 46 -24.5 75.5t-61.5 29.5q-38 0 -68 -18l-36 -107h-74v109l189 71q81 0 128 -36.5t47 -98.5q0 -120 -136 -178q75 -5 122.5 -46.5t47.5 -100.5 q0 -76 -45.5 -123.5t-167.5 -98.5l-80 -33h-115z" />
<glyph d="M344 -230v230h-270l-35 39l327 431h101v-36l-339 -384l39 15h177v106l69 59h26v-165h139v-65h-139v-230h-95z" />
<glyph d="M105 -230v90h207q43 22 69.5 62.5t26.5 83.5q0 62 -40 100.5t-104 38.5q-50 0 -95 -19l-33 -13l-28 16l42 341h348v-31l-24 -58h-282l-26 -205l113 59q105 0 170 -53.5t65 -135.5q0 -85 -49 -139t-170 -104l-80 -33h-110z" />
<glyph d="M338 448q91 0 145.5 -60t54.5 -159q0 -189 -242 -244q-97 0 -154.5 77.5t-57.5 206.5q0 309 366 452l15 -41q-144 -70 -204 -144.5t-66 -195.5zM316 34q53 0 87 48.5t34 126.5q0 70 -29.5 113.5t-77.5 43.5q-37 0 -94 -45l-42 -34q5 -253 122 -253z" />
<glyph d="M162 -230v32l267 553l23 25h-371v90h440l18 -21l-285 -679h-92z" />
<glyph d="M378 381q77 -46 118.5 -90t41.5 -101q0 -81 -60 -130t-180 -75q-94 0 -156.5 52.5t-62.5 129.5q0 125 148 193q-127 76 -127 175q0 130 218 180q92 0 148 -41t56 -106q0 -111 -144 -187zM305 665q-46 0 -74 -28.5t-28 -74.5q0 -44 38 -82t102 -78q41 29 58.5 60.5 t17.5 76.5q0 53 -29.5 89.5t-84.5 36.5zM310 35q51 0 88 33t37 87q0 17 -5.5 34t-12 29.5t-22 27.5t-23.5 23t-29.5 22t-27.5 17.5t-29.5 17.5t-24.5 14q-44 -29 -61.5 -62.5t-17.5 -87.5q0 -63 36.5 -109t91.5 -46z" />
<glyph d="M324 485q97 0 154.5 -77t57.5 -205q0 -301 -361 -446l-15 41q139 69 196.5 140.5t66.5 191.5l-141 -106q-90 0 -145 59.5t-55 157.5q0 97 59 156.5t183 87.5zM384 151l41 32v6q0 247 -120 247q-56 0 -89 -48t-33 -124q0 -72 30.5 -115t77.5 -43q35 0 93 45z" />
<glyph d="M551 206q0 -150 -198 -210v-76h-50v63l-4 -1q-121 0 -207 68l-22 135h70l35 -85q47 -57 128 -63v280l-76 33q-62 27 -96.5 65.5t-34.5 100.5q0 72 55.5 121t151.5 74v70h50v-64q96 -5 165 -57v-135h-50l-29 91q-37 38 -86 47v-249l51 -22q68 -29 107.5 -72.5t39.5 -113.5 zM289 442l14 -6v228q-51 -4 -79.5 -33t-28.5 -76q0 -72 94 -113zM353 41q47 10 73 43t26 80q0 86 -99 131v-254z" />
<glyph d="M496 64q-60 -43 -135 -70v-74h-50v66q-90 7 -145.5 69t-55.5 168q0 101 58.5 164t152.5 91v72h50v-67q72 -9 115 -48v-100h-74l-23 81q-21 16 -58 16q-51 0 -85.5 -52t-34.5 -133q0 -82 42 -134.5t114 -52.5q49 0 113 42z" />
<glyph d="M511 155h48l-25 -155l-332 3l-138 -3l-5 35l100 45v238h-88v17l30 35h58v120q0 99 43.5 145.5t176.5 79.5q94 0 132 -49v-91h-64l-15 65q-30 30 -71 30q-49 0 -78 -40t-29 -90v-170h186v-53l-186 1v-138q0 -44 -9 -77t-17 -45l-9 -11l245 3z" />
<glyph d="M547 656l-175 -385v-1h149v-45h-149v-50h149v-45h-150v-83l115 -13l-5 -35l-162 3l-168 -3l-5 35l120 13v83h-150v45h150v50h-150v45h150v1l-194 384l-78 11l5 35l138 -3l132 3l5 -35l-85 -13l139 -306l8 -39l136 345l-87 13l5 35l119 -3l111 4l5 -35z" />
<glyph d="M379 665q-68 0 -118 -60.5t-67 -159.5h313l-30 -55h-289q-1 -10 -1 -32q0 -18 2 -48h258l-30 -55h-219q21 -92 78.5 -143.5t141.5 -51.5q76 0 159 50l21 -40q-36 -23 -95 -48t-106 -37q-128 0 -210 71t-103 199h-72v55h66q-1 10 -1 31q0 17 2 49h-67v55h74q21 110 95 175 t211 95q126 0 215 -75v-135h-50l-25 95q-53 65 -153 65z" />
<glyph d="M144 358q-53 0 -86.5 47t-33.5 122q0 147 143 179q54 0 87.5 -46.5t33.5 -122.5q0 -146 -144 -179zM89 -5l393 710h61l-393 -710h-61zM160 391q23 0 37 37t14 95q0 65 -16.5 106.5t-44.5 44.5q-23 0 -37 -37t-14 -95q0 -66 16.5 -107t44.5 -44zM453 -6q-53 0 -87 47 t-34 122q0 147 142 179q55 0 88.5 -47t33.5 -122q0 -146 -143 -179zM468 27q22 0 36.5 37t14.5 95q0 64 -16.5 105.5t-43.5 45.5q-23 0 -37.5 -36.5t-14.5 -95.5q0 -66 16.5 -107t44.5 -44z" />
<glyph horiz-adv-x="704" d="M400 -18l-15 -14q64 -11 64 -52q0 -45 -81 -74l-51 -17h-58l29 40h80q24 13 24 35q0 18 -24 26.5t-56 8.5l52 49q-137 12 -230.5 106.5t-93.5 250.5q0 168 101 260.5t277 116.5q70 0 134 -24t105 -54v-135h-55l-32 93q-63 68 -166 68q-114 0 -181.5 -78.5t-67.5 -222.5 q0 -83 31 -156.5t95 -122.5t148 -49q65 0 131 56l54 111h55l-26 -144q-128 -62 -243 -78z" />
<glyph horiz-adv-x="745" d="M341 750l67 100h110l-119 -100h-58zM15 -1l-5 35l78 11l248 648l60 17l261 -665l78 -11l-5 -35l-138 3l-132 -3l-5 35l85 13l-68 187h-247l-65 -187l87 -13l-5 -35l-120 3zM241 281h213l-96 264l-7 54z" />
<glyph horiz-adv-x="745" d="M222 750l107 100h83l107 -100h-58l-78 52l-13 12l-12 -12l-78 -52h-58zM15 -1l-5 35l78 11l248 648l60 17l261 -665l78 -11l-5 -35l-138 3l-132 -3l-5 35l85 13l-68 187h-247l-65 -187l87 -13l-5 -35l-120 3zM241 281h213l-96 264l-7 54z" />
<glyph horiz-adv-x="745" d="M241 753l-25 5l-5 49l9 40l60 5l25 -5l5 -48l-10 -41zM461 753l-25 5l-5 49l9 40l60 5l25 -5l5 -48l-10 -41zM15 -1l-5 35l78 11l248 648l60 17l261 -665l78 -11l-5 -35l-138 3l-132 -3l-5 35l85 13l-68 187h-247l-65 -187l87 -13l-5 -35l-120 3zM241 281h213l-96 264 l-7 54z" />
<glyph horiz-adv-x="745" d="M341 750l-119 100h110l67 -100h-58zM15 -1l-5 35l78 11l248 648l60 17l261 -665l78 -11l-5 -35l-138 3l-132 -3l-5 35l85 13l-68 187h-247l-65 -187l87 -13l-5 -35l-120 3zM241 281h213l-96 264l-7 54z" />
<glyph horiz-adv-x="745" d="M371 718q-31 0 -55 16.5t-24 49.5q0 21 13 35t27 20t39 13q31 0 55 -16.5t24 -49.5q0 -30 -20 -44t-59 -24zM371 746q19 0 30.5 11t11.5 29q0 17 -11.5 28t-30.5 11q-18 0 -30 -11t-12 -28q0 -18 12 -29t30 -11zM15 -1l-5 35l78 11l248 648l60 17l261 -665l78 -11l-5 -35 l-138 3l-132 -3l-5 35l85 13l-68 187h-247l-65 -187l87 -13l-5 -35l-120 3zM241 281h213l-96 264l-7 54z" />
<glyph horiz-adv-x="745" d="M213 750l24 79l75 18l155 -41l36 44h25l-24 -79l-75 -18l-155 41l-36 -44h-25zM15 -1l-5 35l78 11l248 648l60 17l261 -665l78 -11l-5 -35l-138 3l-132 -3l-5 35l85 13l-68 187h-247l-65 -187l87 -13l-5 -35l-120 3zM241 281h213l-96 264l-7 54z" />
<glyph horiz-adv-x="630" d="M313 750l67 100h110l-119 -100h-58zM35 -1l-5 35l90 13v606l-90 13l5 35l138 -3l397 3l10 -180h-34l-56 130l-265 3v-266l140 4l40 105h35l-10 -125l10 -135h-35l-40 105l-140 4v-300l275 3l67 135h38l-35 -185l-397 3z" />
<glyph horiz-adv-x="630" d="M194 750l107 100h83l107 -100h-58l-78 52l-13 12l-12 -12l-78 -52h-58zM35 -1l-5 35l90 13v606l-90 13l5 35l138 -3l397 3l10 -180h-34l-56 130l-265 3v-266l140 4l40 105h35l-10 -125l10 -135h-35l-40 105l-140 4v-300l275 3l67 135h38l-35 -185l-397 3z" />
<glyph horiz-adv-x="630" d="M213 753l-25 5l-5 49l9 40l60 5l25 -5l5 -48l-10 -41zM433 753l-25 5l-5 49l9 40l60 5l25 -5l5 -48l-10 -41zM35 -1l-5 35l90 13v606l-90 13l5 35l138 -3l397 3l10 -180h-34l-56 130l-265 3v-266l140 4l40 105h35l-10 -125l10 -135h-35l-40 105l-140 4v-300l275 3l67 135 h38l-35 -185l-397 3z" />
<glyph horiz-adv-x="630" d="M313 750l-119 100h110l67 -100h-58zM35 -1l-5 35l90 13v606l-90 13l5 35l138 -3l397 3l10 -180h-34l-56 130l-265 3v-266l140 4l40 105h35l-10 -125l10 -135h-35l-40 105l-140 4v-300l275 3l67 135h38l-35 -185l-397 3z" />
<glyph horiz-adv-x="345" d="M143 750l67 100h110l-119 -100h-58zM35 -1l-5 36l90 13v605l-90 13l5 35l138 -3l137 3l5 -35l-90 -13v-605l90 -13l-5 -36l-137 3z" />
<glyph horiz-adv-x="345" d="M24 750l107 100h83l107 -100h-58l-78 52l-13 12l-12 -12l-78 -52h-58zM35 -1l-5 36l90 13v605l-90 13l5 35l138 -3l137 3l5 -35l-90 -13v-605l90 -13l-5 -36l-137 3z" />
<glyph horiz-adv-x="345" d="M43 753l-25 5l-5 49l9 40l60 5l25 -5l5 -48l-10 -41zM263 753l-25 5l-5 49l9 40l60 5l25 -5l5 -48l-10 -41zM35 -1l-5 36l90 13v605l-90 13l5 35l138 -3l137 3l5 -35l-90 -13v-605l90 -13l-5 -36l-137 3z" />
<glyph horiz-adv-x="345" d="M143 750l-119 100h110l67 -100h-58zM35 -1l-5 36l90 13v605l-90 13l5 35l138 -3l137 3l5 -35l-90 -13v-605l90 -13l-5 -36l-137 3z" />
<glyph horiz-adv-x="743" d="M213 750l24 79l75 18l155 -41l36 44h25l-24 -79l-75 -18l-155 41l-36 -44h-25zM580 -2l-378 544l-17 69v-564l85 -13l-5 -35l-107 3l-123 -3l-5 35l90 13v599l-86 20l5 35l93 -3l75 3l350 -495l21 -59v506l-85 13l5 35l107 -3l123 3l5 -35l-90 -13v-655h-63z" />
<glyph horiz-adv-x="780" d="M361 750l67 100h110l-119 -100h-58zM380 -18q-150 0 -245 100t-95 253q0 166 87.5 259t272.5 124q150 0 245 -100t95 -253q0 -166 -87.5 -259t-272.5 -124zM405 37q110 0 165 82.5t55 212.5q0 58 -13.5 114t-41.5 106t-78 80.5t-116 30.5q-110 0 -165.5 -82.5 t-55.5 -212.5q0 -59 14 -115t42 -106t78.5 -80t115.5 -30z" />
<glyph horiz-adv-x="780" d="M242 750l107 100h83l107 -100h-58l-78 52l-13 12l-12 -12l-78 -52h-58zM380 -18q-150 0 -245 100t-95 253q0 166 87.5 259t272.5 124q150 0 245 -100t95 -253q0 -166 -87.5 -259t-272.5 -124zM405 37q110 0 165 82.5t55 212.5q0 58 -13.5 114t-41.5 106t-78 80.5 t-116 30.5q-110 0 -165.5 -82.5t-55.5 -212.5q0 -59 14 -115t42 -106t78.5 -80t115.5 -30z" />
<glyph horiz-adv-x="780" d="M261 753l-25 5l-5 49l9 40l60 5l25 -5l5 -48l-10 -41zM481 753l-25 5l-5 49l9 40l60 5l25 -5l5 -48l-10 -41zM380 -18q-150 0 -245 100t-95 253q0 166 87.5 259t272.5 124q150 0 245 -100t95 -253q0 -166 -87.5 -259t-272.5 -124zM405 37q110 0 165 82.5t55 212.5 q0 58 -13.5 114t-41.5 106t-78 80.5t-116 30.5q-110 0 -165.5 -82.5t-55.5 -212.5q0 -59 14 -115t42 -106t78.5 -80t115.5 -30z" />
<glyph horiz-adv-x="780" d="M361 750l-119 100h110l67 -100h-58zM380 -18q-150 0 -245 100t-95 253q0 166 87.5 259t272.5 124q150 0 245 -100t95 -253q0 -166 -87.5 -259t-272.5 -124zM405 37q110 0 165 82.5t55 212.5q0 58 -13.5 114t-41.5 106t-78 80.5t-116 30.5q-110 0 -165.5 -82.5 t-55.5 -212.5q0 -59 14 -115t42 -106t78.5 -80t115.5 -30z" />
<glyph horiz-adv-x="780" d="M233 750l24 79l75 18l155 -41l36 44h25l-24 -79l-75 -18l-155 41l-36 -44h-25zM380 -18q-150 0 -245 100t-95 253q0 166 87.5 259t272.5 124q150 0 245 -100t95 -253q0 -166 -87.5 -259t-272.5 -124zM405 37q110 0 165 82.5t55 212.5q0 58 -13.5 114t-41.5 106t-78 80.5 t-116 30.5q-110 0 -165.5 -82.5t-55.5 -212.5q0 -59 14 -115t42 -106t78.5 -80t115.5 -30z" />
<glyph horiz-adv-x="724" d="M348 750l67 100h110l-119 -100h-58zM372 -18q-267 0 -267 265v406l-90 13l5 35l138 -3l137 3l5 -35l-85 -13v-421q0 -195 167 -195q78 0 120 51t42 147v418l-90 13l5 35l128 -3l117 3l5 -35l-85 -13v-408q0 -104 -55 -167t-197 -96z" />
<glyph horiz-adv-x="724" d="M229 750l107 100h83l107 -100h-58l-78 52l-13 12l-12 -12l-78 -52h-58zM372 -18q-267 0 -267 265v406l-90 13l5 35l138 -3l137 3l5 -35l-85 -13v-421q0 -195 167 -195q78 0 120 51t42 147v418l-90 13l5 35l128 -3l117 3l5 -35l-85 -13v-408q0 -104 -55 -167t-197 -96z " />
<glyph horiz-adv-x="724" d="M248 753l-25 5l-5 49l9 40l60 5l25 -5l5 -48l-10 -41zM468 753l-25 5l-5 49l9 40l60 5l25 -5l5 -48l-10 -41zM372 -18q-267 0 -267 265v406l-90 13l5 35l138 -3l137 3l5 -35l-85 -13v-421q0 -195 167 -195q78 0 120 51t42 147v418l-90 13l5 35l128 -3l117 3l5 -35 l-85 -13v-408q0 -104 -55 -167t-197 -96z" />
<glyph horiz-adv-x="724" d="M348 750l-119 100h110l67 -100h-58zM372 -18q-267 0 -267 265v406l-90 13l5 35l138 -3l137 3l5 -35l-85 -13v-421q0 -195 167 -195q78 0 120 51t42 147v418l-90 13l5 35l128 -3l117 3l5 -35l-85 -13v-408q0 -104 -55 -167t-197 -96z" />
<glyph horiz-adv-x="711" d="M351 750l67 100h110l-119 -100h-58zM192 -1l-5 35l120 13v228l-224 381l-78 11l5 34l138 -3l132 3l5 -34l-85 -13l172 -290l8 -39l173 329l-87 13l5 34l119 -3l111 3l5 -33l-78 -11l-218 -386l2 -224l115 -13l-5 -35l-162 3z" />
<glyph horiz-adv-x="711" d="M251 753l-25 5l-5 49l9 40l60 5l25 -5l5 -48l-10 -41zM471 753l-25 5l-5 49l9 40l60 5l25 -5l5 -48l-10 -41zM192 -1l-5 35l120 13v228l-224 381l-78 11l5 34l138 -3l132 3l5 -34l-85 -13l172 -290l8 -39l173 329l-87 13l5 34l119 -3l111 3l5 -33l-78 -11l-218 -386 l2 -224l115 -13l-5 -35l-162 3z" />
<glyph horiz-adv-x="451" d="M237 -32q64 -11 64 -52q0 -45 -81 -74l-51 -17h-58l29 40h80q24 13 24 35q0 18 -24 26.5t-56 8.5l57 53q-82 13 -131.5 74t-49.5 161q0 109 67 173t171 89q34 0 74.5 -15t63.5 -35v-100h-74l-23 81q-21 16 -58 16q-51 0 -85.5 -52t-34.5 -133q0 -82 42 -134.5t114 -52.5 q49 0 113 42l16 -38q-68 -49 -163 -79h-8z" />
<glyph horiz-adv-x="516" d="M244 -185q-218 0 -218 138v17l109 59q-48 18 -61.5 43t-13.5 66v6l100 49q-46 15 -72.5 47t-26.5 75q0 123 190 170q98 0 147 -51l49 61h60v-81h-60l-28 -16q10 -25 10 -48q0 -123 -190 -170q-27 0 -39 2l-54 -42q0 -16 11 -28t28 -12h183q121 0 121 -98 q0 -55 -67.5 -105.5t-177.5 -81.5zM249 227q40 0 62.5 25.5t22.5 69.5q0 43 -22 80t-71 37q-40 0 -62.5 -26t-22.5 -70q0 -26 7 -50t29.5 -45t56.5 -21zM252 -126q58 0 100 29.5t42 70.5q0 26 -19 36t-66 10h-138q-55 -46 -55 -63q0 -36 37.5 -59.5t98.5 -23.5z" />
<glyph horiz-adv-x="270" d="M128 580l-27 6l-6 56l10 48l72 5l28 -5l6 -56l-11 -48zM-20 -175v88h96l10 22q19 42 19 110v364l-70 -6l-5 35l120 31l50 4v-413q0 -77 -55 -140l-84 -95h-81z" />
<glyph horiz-adv-x="550" d="M25 -171l-5 35l70 10v536l-70 -6l-5 34l120 31l43 3l5 -83l128 96q96 0 150 -62t54 -171q0 -233 -251 -267q-42 0 -79 21v-132l105 -10l-5 -35l-145 3zM294 35q55 0 88 50.5t33 135.5q0 86 -29 137.5t-75 51.5q-35 0 -96 -46l-30 -23v-251q36 -55 109 -55z" />
<glyph horiz-adv-x="555" d="M25 -171l-5 35l70 10v776l-70 -5l-5 34l120 31l50 4v-324l126 95q96 0 150 -62t54 -171q0 -233 -251 -267q-42 0 -79 21v-132l105 -10l-5 -35l-145 3zM294 35q55 0 88 50.5t33 135.5q0 86 -29 137.5t-75 51.5q-35 0 -96 -46l-30 -23v-251q36 -55 109 -55z" />
<glyph horiz-adv-x="536" d="M266 -172l-5 35l105 10v194l-117 -82q-98 0 -156 64.5t-58 173.5q0 114 66 180.5t185 81.5q50 0 123 -42l35 37h17v-607l70 -10l-5 -35l-115 3zM252 60q30 0 58 19l56 39v252q-23 65 -94 65q-64 0 -100.5 -50t-36.5 -136t34 -137.5t83 -51.5z" />
<glyph horiz-adv-x="542" d="M85 -175v100h86l114 91l-55 -12l-163 422l-62 10l5 35l115 -3l105 3l5 -35l-66 -10l106 -293l8 -74l119 367l-46 10l5 35l88 -3l83 3l5 -35l-64 -10l-157 -409l-112 -192h-119z" />
<glyph horiz-adv-x="542" d="M281 551l47 159h110l-119 -159h-38zM85 -175v100h86l114 91l-55 -12l-163 422l-62 10l5 35l115 -3l105 3l5 -35l-66 -10l106 -293l8 -74l119 367l-46 10l5 35l88 -3l83 3l5 -35l-64 -10l-157 -409l-112 -192h-119z" />
<glyph horiz-adv-x="542" d="M184 578l-25 5l-5 49l9 40l60 5l25 -5l5 -48l-10 -41zM364 578l-25 5l-5 49l9 40l60 5l25 -5l5 -48l-10 -41zM85 -175v100h86l114 91l-55 -12l-163 422l-62 10l5 35l115 -3l105 3l5 -35l-66 -10l106 -293l8 -74l119 367l-46 10l5 35l88 -3l83 3l5 -35l-64 -10l-157 -409 l-112 -192h-119z" />
<glyph horiz-adv-x="991" d="M218 -175q-198 0 -198 134v17l109 58q-48 18 -61.5 40.5t-13.5 61.5v7l100 50q-48 17 -76 48.5t-28 73.5q0 123 195 170q101 0 152 -61l54 61h56l-8 -81h-48l-33 -16q10 -20 10 -38q0 -61 -47 -102.5t-148 -67.5q-27 0 -39 2l-54 -43q0 -35 39 -35h155q66 0 98.5 -25 t32.5 -68q0 -54 -68 -105t-179 -81zM729 -175q-214 0 -214 134v17l106 58q-60 18 -76 40t-16 62v7l100 50q-48 17 -76 48.5t-28 73.5q0 123 195 170q101 0 152 -61l54 61h56v-81h-56l-33 -16q10 -20 10 -38q0 -61 -47 -102.5t-148 -67.5q-27 0 -39 2l-54 -43q0 -35 39 -35 h183q66 0 98.5 -25t32.5 -68q0 -54 -66 -105t-173 -81zM248 227q40 0 62.5 23t22.5 62q0 49 -24 88t-79 39q-40 0 -62.5 -25.5t-22.5 -70.5q0 -43 24 -79.5t79 -36.5zM723 227q40 0 62.5 23t22.5 62q0 49 -24 88t-79 39q-40 0 -62.5 -26.5t-22.5 -71.5q0 -25 8 -49 t32.5 -44.5t62.5 -20.5zM226 -116q59 0 101.5 29t42.5 71q0 22 -22 31.5t-73 9.5h-110q-55 -33 -55 -63q0 -34 32 -56t84 -22zM738 -116q55 0 95 29t40 71q0 22 -22 31.5t-73 9.5h-122q-32 -26 -41.5 -38.5t-9.5 -24.5q0 -34 36.5 -56t96.5 -22z" />
<glyph horiz-adv-x="631" d="M27 -1l-4 30l60 9l196 466l63 18l206 -485l60 -8l-4 -30l-119 2l-104 -2l-4 30l65 10l-53 130h-196l-51 -130l69 -10l-4 -30l-95 2zM206 206h169l-75 193l-5 40z" />
<glyph horiz-adv-x="631" d="M296 560l47 150h109l-117 -150h-39zM27 -1l-4 30l60 9l196 466l63 18l206 -485l60 -8l-4 -30l-119 2l-104 -2l-4 30l65 10l-53 130h-196l-51 -130l69 -10l-4 -30l-95 2zM206 206h169l-75 193l-5 40z" />
<glyph horiz-adv-x="631" d="M174 560l107 150h71l107 -150h-48l-76 67l-19 20l-18 -20l-76 -67h-48zM27 -1l-4 30l60 9l196 466l63 18l206 -485l60 -8l-4 -30l-119 2l-104 -2l-4 30l65 10l-53 130h-196l-51 -130l69 -10l-4 -30l-95 2zM206 206h169l-75 193l-5 40z" />
<glyph horiz-adv-x="631" d="M208 580l-26 5l-5 49l9 40l60 5l25 -5l5 -48l-9 -41zM388 580l-26 5l-5 49l9 40l60 5l25 -5l5 -48l-10 -41zM27 -1l-4 30l60 9l196 466l63 18l206 -485l60 -8l-4 -30l-119 2l-104 -2l-4 30l65 10l-53 130h-196l-51 -130l69 -10l-4 -30l-95 2zM206 206h169l-75 193l-5 40z " />
<glyph horiz-adv-x="631" d="M296 560l-116 150h108l48 -150h-40zM27 -1l-4 30l60 9l196 466l63 18l206 -485l60 -8l-4 -30l-119 2l-104 -2l-4 30l65 10l-53 130h-196l-51 -130l69 -10l-4 -30l-95 2zM206 206h169l-75 193l-5 40z" />
<glyph horiz-adv-x="631" d="M314 552q-102 0 -102 83q0 21 7 35.5t24 24.5t29 14t39 12q102 0 102 -83q0 -21 -7 -35.5t-24 -24.5t-29 -14t-39 -12zM312 590q24 0 39.5 12.5t15.5 33.5t-15.5 34t-38.5 13q-24 0 -39.5 -13t-15.5 -34t15.5 -33.5t38.5 -12.5zM27 -1l-4 30l60 9l196 466l63 18l206 -485 l60 -8l-4 -30l-119 2l-104 -2l-4 30l65 10l-53 130h-196l-51 -130l69 -10l-4 -30l-95 2zM206 206h169l-75 193l-5 40z" />
<glyph horiz-adv-x="631" d="M375 573l-155 54l-27 -51h-29l23 93l73 21l154 -54l28 51h29l-24 -98zM27 -1l-4 30l60 9l196 466l63 18l206 -485l60 -8l-4 -30l-119 2l-104 -2l-4 30l65 10l-53 130h-196l-51 -130l69 -10l-4 -30l-95 2zM206 206h169l-75 193l-5 40z" />
<glyph horiz-adv-x="853" d="M24 -1l-4 30l61 8l340 476l60 -1l309 1l8 -133h-31l-45 92l-194 2v-210l95 3l32 78h31l-9 -95l9 -101h-31l-32 77l-95 3v-191l201 2l56 95h32l-28 -136l-309 2l-111 -2l-4 30l69 10v189h-161l-130 -189l61 -10l-5 -30l-90 3zM293 263h141v212z" />
<glyph horiz-adv-x="555" d="M44 -1l-4 30l70 10v434l-70 10l4 30l108 -2l172 2q73 1 112.5 -32.5t39.5 -80.5q0 -44 -36 -78.5t-94 -46.5q78 -3 121 -38t43 -89q0 -67 -57 -101.5t-160 -47.5l-140 2zM205 286h64q49 0 80 31t31 75q0 39 -25 62.5t-73 24.5l-77 -5v-188zM273 33q72 0 105.5 34t33.5 80 t-33.5 75.5t-90.5 29.5h-83v-214z" />
<glyph horiz-adv-x="601" d="M340 -13q-121 0 -207 69t-86 190q0 237 311 279q108 0 191 -53v-112h-47l-27 70q-46 53 -131 53q-87 0 -140 -57t-53 -159q0 -96 57.5 -165.5t153.5 -69.5q57 0 108 45l42 83h47l-19 -118q-90 -40 -200 -55z" />
<glyph horiz-adv-x="601" d="M540 42q-92 -40 -194 -54l-24 -35q34 -2 57.5 -22.5t23.5 -54.5q0 -40 -28 -66.5t-63 -37.5l-51 -17h-58l29 40h74q30 19 30 62q0 32 -24 46.5t-56 14.5l51 70q-111 10 -185.5 78t-74.5 180q0 237 311 279q108 0 191 -53v-112h-47l-27 70q-46 53 -131 53q-87 0 -140 -57 t-53 -159q0 -96 57.5 -165.5t153.5 -69.5q57 0 108 45l42 83h47z" />
<glyph horiz-adv-x="632" d="M44 -1l-4 30l70 10v434l-70 10l4 30l107 -2l166 1q126 2 197 -61.5t71 -180.5q0 -116 -69 -187t-206 -84l-160 2zM302 35q80 -1 130 63t50 163q0 97 -53 158t-149 60l-75 -5v-433z" />
<glyph horiz-adv-x="617" d="M317 512q126 2 197 -61.5t71 -180.5q0 -116 -69 -187t-206 -84l-160 2l-106 -2l-4 30l70 10v203h-68v44h68v187l-70 10l4 30l107 -2zM302 35q80 -1 130 63t50 163q0 97 -53 158t-149 60l-75 -5v-188h91v-44h-91v-201z" />
<glyph horiz-adv-x="544" d="M44 -1l-4 30l70 10v434l-70 10l4 30l111 -2l327 2l7 -136h-31l-46 95l-207 2v-188l108 3l32 78h31l-8 -95l8 -101h-31l-32 77l-108 3v-213l215 2l55 99h34l-28 -140l-326 2z" />
<glyph horiz-adv-x="544" d="M275 560l47 150h109l-117 -150h-39zM44 -1l-4 30l70 10v434l-70 10l4 30l111 -2l327 2l7 -136h-31l-46 95l-207 2v-188l108 3l32 78h31l-8 -95l8 -101h-31l-32 77l-108 3v-213l215 2l55 99h34l-28 -140l-326 2z" />
<glyph horiz-adv-x="544" d="M153 560l107 150h71l107 -150h-48l-76 67l-19 20l-18 -20l-76 -67h-48zM44 -1l-4 30l70 10v434l-70 10l4 30l111 -2l327 2l7 -136h-31l-46 95l-207 2v-188l108 3l32 78h31l-8 -95l8 -101h-31l-32 77l-108 3v-213l215 2l55 99h34l-28 -140l-326 2z" />
<glyph horiz-adv-x="544" d="M187 580l-26 5l-5 49l9 40l60 5l25 -5l5 -48l-9 -41zM367 580l-26 5l-5 49l9 40l60 5l25 -5l5 -48l-10 -41zM44 -1l-4 30l70 10v434l-70 10l4 30l111 -2l327 2l7 -136h-31l-46 95l-207 2v-188l108 3l32 78h31l-8 -95l8 -101h-31l-32 77l-108 3v-213l215 2l55 99h34 l-28 -140l-326 2z" />
<glyph horiz-adv-x="544" d="M275 560l-116 150h108l48 -150h-40zM44 -1l-4 30l70 10v434l-70 10l4 30l111 -2l327 2l7 -136h-31l-46 95l-207 2v-188l108 3l32 78h31l-8 -95l8 -101h-31l-32 77l-108 3v-213l215 2l55 99h34l-28 -140l-326 2z" />
<glyph horiz-adv-x="517" d="M44 -1l-4 30l70 10v434l-70 10l4 30l111 -2l327 2l7 -139h-31l-46 98l-207 2v-198l108 3l32 77h31l-8 -96l8 -101h-31l-32 78l-108 3v-201l97 -10l-4 -30l-143 2z" />
<glyph horiz-adv-x="635" d="M332 -13q-119 0 -202 69t-83 189q0 237 305 280q57 0 111.5 -16.5t85.5 -37.5v-111h-45l-25 68q-49 55 -139 55q-87 0 -138 -57.5t-51 -159.5q0 -97 57 -165.5t149 -68.5q57 0 98 31v138l-73 9l4 32l117 -3l92 3l5 -32l-50 -9v-157q-91 -38 -218 -57z" />
<glyph horiz-adv-x="654" d="M44 -1l-4 30l70 10v434l-70 10l4 30l114 -2l109 2l4 -30l-66 -10v-187h248v187l-69 10l4 30l113 -2l109 2l4 -30l-66 -10v-434l66 -10l-4 -30l-109 2l-113 -2l-4 30l69 10v206h-248v-206l66 -10l-4 -30l-109 2z" />
<glyph horiz-adv-x="315" d="M44 -1l-4 31l70 9v434l-70 10l4 30l114 -2l113 2l4 -30l-70 -10v-434l70 -9l-4 -31l-113 2z" />
<glyph horiz-adv-x="315" d="M138 560l47 150h109l-117 -150h-39zM44 -1l-4 31l70 9v434l-70 10l4 30l114 -2l113 2l4 -30l-70 -10v-434l70 -9l-4 -31l-113 2z" />
<glyph horiz-adv-x="315" d="M16 560l107 150h71l107 -150h-48l-76 67l-19 20l-18 -20l-76 -67h-48zM44 -1l-4 31l70 9v434l-70 10l4 30l114 -2l113 2l4 -30l-70 -10v-434l70 -9l-4 -31l-113 2z" />
<glyph horiz-adv-x="315" d="M50 580l-26 5l-5 49l9 40l60 5l25 -5l5 -48l-9 -41zM230 580l-26 5l-5 49l9 40l60 5l25 -5l5 -48l-10 -41zM44 -1l-4 31l70 9v434l-70 10l4 30l114 -2l113 2l4 -30l-70 -10v-434l70 -9l-4 -31l-113 2z" />
<glyph horiz-adv-x="315" d="M138 560l-116 150h108l48 -150h-40zM44 -1l-4 31l70 9v434l-70 10l4 30l114 -2l113 2l4 -30l-70 -10v-434l70 -9l-4 -31l-113 2z" />
<glyph horiz-adv-x="320" d="M17 -128v73h86l7 16q13 30 13 110v402l-89 10l4 30l132 -3l110 3l4 -30l-67 -10v-385q0 -96 -50 -144l-75 -72h-75z" />
<glyph horiz-adv-x="610" d="M44 -1l-4 30l70 10v434l-70 10l4 30l114 -2l102 2l4 -30l-59 -10v-198l23 11l220 187l-59 10l4 30l86 -2l86 2l4 -30l-62 -11l-226 -194l25 -12l239 -228l42 -9l-4 -30l-69 2l-70 -2l-226 235l-13 24v-219l59 -10l-4 -30l-102 2z" />
<glyph horiz-adv-x="511" d="M44 -1l-4 30l70 10v434l-70 10l4 30l111 -2l116 2l4 -30l-70 -10v-435l196 2l56 101h33l-29 -142l-306 3z" />
<glyph horiz-adv-x="796" d="M47 -1l-4 30l64 10v433l-67 11l4 30l81 -2l101 2l164 -375l5 -51l183 426l95 -2l78 2l5 -30l-67 -10v-434l63 -10l-4 -30l-101 2l-118 -2l-4 30l71 10v335l10 87l-199 -461h-57l-160 372l-28 87v-420l68 -10l-5 -30l-87 2z" />
<glyph horiz-adv-x="630" d="M483 -2l-303 378l-15 58v-395l66 -10l-3 -30l-87 2l-97 -2l-4 30l70 10v431l-67 13l4 30l73 -2l67 2l275 -331l19 -53v344l-66 10l4 30l86 -2l97 2l4 -30l-70 -10v-475h-53z" />
<glyph horiz-adv-x="630" d="M374 573l-155 54l-27 -51h-29l23 93l73 21l154 -54l28 51h29l-24 -98zM483 -2l-303 378l-15 58v-395l66 -10l-3 -30l-87 2l-97 -2l-4 30l70 10v431l-67 13l4 30l73 -2l67 2l275 -331l19 -53v344l-66 10l4 30l86 -2l97 2l4 -30l-70 -10v-475h-53z" />
<glyph horiz-adv-x="667" d="M325 -13q-123 0 -200.5 73t-77.5 184q0 122 70.5 189t224.5 92q123 0 200.5 -72.5t77.5 -183.5q0 -122 -70.5 -189.5t-224.5 -92.5zM345 32q87 0 129 58t42 154q0 58 -17.5 109t-63 89t-112.5 38q-86 0 -129 -58t-43 -153q0 -43 11 -83.5t33 -76t61 -56.5t89 -21z" />
<glyph horiz-adv-x="667" d="M314 560l47 150h109l-117 -150h-39zM325 -13q-123 0 -200.5 73t-77.5 184q0 122 70.5 189t224.5 92q123 0 200.5 -72.5t77.5 -183.5q0 -122 -70.5 -189.5t-224.5 -92.5zM345 32q87 0 129 58t42 154q0 58 -17.5 109t-63 89t-112.5 38q-86 0 -129 -58t-43 -153 q0 -43 11 -83.5t33 -76t61 -56.5t89 -21z" />
<glyph horiz-adv-x="667" d="M192 560l107 150h71l107 -150h-48l-76 67l-19 20l-18 -20l-76 -67h-48zM325 -13q-123 0 -200.5 73t-77.5 184q0 122 70.5 189t224.5 92q123 0 200.5 -72.5t77.5 -183.5q0 -122 -70.5 -189.5t-224.5 -92.5zM345 32q87 0 129 58t42 154q0 58 -17.5 109t-63 89t-112.5 38 q-86 0 -129 -58t-43 -153q0 -43 11 -83.5t33 -76t61 -56.5t89 -21z" />
<glyph horiz-adv-x="667" d="M226 580l-26 5l-5 49l9 40l60 5l25 -5l5 -48l-9 -41zM406 580l-26 5l-5 49l9 40l60 5l25 -5l5 -48l-10 -41zM325 -13q-123 0 -200.5 73t-77.5 184q0 122 70.5 189t224.5 92q123 0 200.5 -72.5t77.5 -183.5q0 -122 -70.5 -189.5t-224.5 -92.5zM345 32q87 0 129 58t42 154 q0 58 -17.5 109t-63 89t-112.5 38q-86 0 -129 -58t-43 -153q0 -43 11 -83.5t33 -76t61 -56.5t89 -21z" />
<glyph horiz-adv-x="667" d="M314 560l-116 150h108l48 -150h-40zM325 -13q-123 0 -200.5 73t-77.5 184q0 122 70.5 189t224.5 92q123 0 200.5 -72.5t77.5 -183.5q0 -122 -70.5 -189.5t-224.5 -92.5zM345 32q87 0 129 58t42 154q0 58 -17.5 109t-63 89t-112.5 38q-86 0 -129 -58t-43 -153 q0 -43 11 -83.5t33 -76t61 -56.5t89 -21z" />
<glyph horiz-adv-x="649" d="M529 464q91 -72 91 -195q0 -122 -70.5 -189.5t-224.5 -92.5q-97 0 -168 47l-39 -45h-50l59 68q-80 72 -80 187q0 122 70.5 189t224.5 92q87 0 157 -40l31 36h49zM151 269q0 -81 35 -144l265 305q-52 50 -128 50q-86 0 -129 -58t-43 -153zM345 32q87 0 129 58t42 154 q0 93 -42 156l-266 -307q51 -61 137 -61z" />
<glyph horiz-adv-x="667" d="M393 573l-155 54l-27 -51h-29l23 93l73 21l154 -54l28 51h29l-24 -98zM325 -13q-123 0 -200.5 73t-77.5 184q0 122 70.5 189t224.5 92q123 0 200.5 -72.5t77.5 -183.5q0 -122 -70.5 -189.5t-224.5 -92.5zM345 32q87 0 129 58t42 154q0 58 -17.5 109t-63 89t-112.5 38 q-86 0 -129 -58t-43 -153q0 -43 11 -83.5t33 -76t61 -56.5t89 -21z" />
<glyph horiz-adv-x="816" d="M324 -9q-123 0 -200 71.5t-77 181.5q0 122 66.5 185.5t227.5 91.5l106 -10l310 2l9 -133h-30l-47 92l-196 2v-188l95 3l32 78h30l-8 -95l8 -101h-30l-32 77l-95 3v-213l201 2l55 96h32l-28 -137l-310 2zM398 38v434l-83 6q-81 0 -123 -58.5t-42 -151.5q0 -97 58 -165 t141 -68z" />
<glyph horiz-adv-x="519" d="M44 -1l-4 30l70 10v434l-70 10l4 30l111 -2l165 2q77 1 126.5 -33.5t49.5 -96.5q0 -116 -206 -165h-85v-179l97 -10l-4 -30l-140 2zM205 260h65q54 0 88.5 31t34.5 83q0 49 -30 77t-88 28l-70 -5v-214z" />
<glyph horiz-adv-x="510" d="M41 -1l-4 31l70 9v434l-70 10l4 30l114 -2l116 2l4 -30l-73 -10v-65l115 1q78 1 127 -33t49 -97q0 -116 -206 -165h-85v-75l94 -9l-4 -31l-137 2zM202 156h65q54 0 88.5 30.5t34.5 82.5q0 49 -30 78t-88 29l-70 -5v-215z" />
<glyph horiz-adv-x="780" d="M456 -28l84 -54l48 -12l-3 -29h-130l-130 110q-117 5 -189.5 77.5t-72.5 179.5q0 122 70.5 189t224.5 92q123 0 200.5 -72.5t77.5 -183.5q0 -113 -60 -179.5t-190 -94.5zM167 269q0 -43 11 -83.5t33 -76t61 -56.5t89 -21q87 0 129 58t42 154q0 58 -17.5 109t-63 89 t-112.5 38q-86 0 -129 -58t-43 -153z" />
<glyph horiz-adv-x="588" d="M525 40l43 -12l-3 -29l-73 2l-59 -2l-166 227l-9 8h-53v-195l66 -10l-4 -30l-109 2l-114 -2l-4 30l70 10v434l-70 10l4 30l113 -2l156 2q81 1 132 -32t51 -95q0 -105 -168 -140l64 -33zM205 474v-202h55q60 0 96.5 29.5t36.5 78.5q0 48 -31.5 73.5t-80.5 25.5z" />
<glyph horiz-adv-x="492" d="M233 -13q-98 0 -169 50l-18 108h60l28 -64q42 -47 112 -47q49 0 77 23t28 62q0 55 -80 89l-99 42q-106 46 -106 125q0 54 51.5 92.5t145.5 57.5q87 0 152 -42v-107h-44l-25 68q-38 36 -94 36q-46 0 -72.5 -19.5t-26.5 -51.5q0 -48 73 -78l95 -41q59 -27 89.5 -58 t30.5 -79q0 -123 -208 -166z" />
<glyph horiz-adv-x="525" d="M125 -1l-4 30l94 10v435l-116 -1l-37 -99h-34v139l236 -2l233 2v-139h-34l-38 99l-115 1v-435l91 -10l-4 -30l-134 2z" />
<glyph horiz-adv-x="621" d="M322 -13q-224 0 -224 195v291l-70 10l4 30l111 -2l116 2l4 -30l-66 -10v-297q0 -141 132 -141q63 0 96.5 37t33.5 105v296l-71 10l4 30l103 -2l93 2l5 -30l-68 -10v-291q0 -77 -44.5 -124t-158.5 -71z" />
<glyph horiz-adv-x="621" d="M301 560l47 150h109l-117 -150h-39zM322 -13q-224 0 -224 195v291l-70 10l4 30l111 -2l116 2l4 -30l-66 -10v-297q0 -141 132 -141q63 0 96.5 37t33.5 105v296l-71 10l4 30l103 -2l93 2l5 -30l-68 -10v-291q0 -77 -44.5 -124t-158.5 -71z" />
<glyph horiz-adv-x="621" d="M179 560l107 150h71l107 -150h-48l-76 67l-19 20l-18 -20l-76 -67h-48zM322 -13q-224 0 -224 195v291l-70 10l4 30l111 -2l116 2l4 -30l-66 -10v-297q0 -141 132 -141q63 0 96.5 37t33.5 105v296l-71 10l4 30l103 -2l93 2l5 -30l-68 -10v-291q0 -77 -44.5 -124 t-158.5 -71z" />
<glyph horiz-adv-x="621" d="M213 580l-26 5l-5 49l9 40l60 5l25 -5l5 -48l-9 -41zM393 580l-26 5l-5 49l9 40l60 5l25 -5l5 -48l-10 -41zM322 -13q-224 0 -224 195v291l-70 10l4 30l111 -2l116 2l4 -30l-66 -10v-297q0 -141 132 -141q63 0 96.5 37t33.5 105v296l-71 10l4 30l103 -2l93 2l5 -30 l-68 -10v-291q0 -77 -44.5 -124t-158.5 -71z" />
<glyph horiz-adv-x="621" d="M301 560l-116 150h108l48 -150h-40zM322 -13q-224 0 -224 195v291l-70 10l4 30l111 -2l116 2l4 -30l-66 -10v-297q0 -141 132 -141q63 0 96.5 37t33.5 105v296l-71 10l4 30l103 -2l93 2l5 -30l-68 -10v-291q0 -77 -44.5 -124t-158.5 -71z" />
<glyph horiz-adv-x="623" d="M289 -12l-208 486l-61 9l4 30l120 -2l105 2l4 -30l-67 -10l141 -346l3 -46l156 392l-69 10l4 30l93 -2l85 2l4 -30l-60 -9l-200 -468z" />
<glyph horiz-adv-x="835" d="M247 -12l-177 486l-47 9l4 30l107 -2l98 2l4 -30l-67 -10l117 -331l3 -47l103 301l-30 78l-48 9l4 30l107 -2l98 2l4 -30l-67 -10l118 -332l3 -47l128 380l-69 9l4 30l91 -2l73 2l4 -30l-47 -9l-165 -466l-62 -20l-112 310l-2 46l-116 -336z" />
<glyph horiz-adv-x="610" d="M28 -1l-4 31l63 8l172 212l-166 225l-60 8l4 30l111 -2l123 2l4 -30l-66 -9l97 -141l11 -30l130 170l-67 10l4 30l97 -2l90 2l4 -30l-61 -9l-163 -199l178 -237l57 -8l-4 -31l-108 2l-123 -2l-4 31l66 9l-106 149l-14 31l-138 -180l63 -9l-4 -31l-97 2z" />
<glyph horiz-adv-x="608" d="M168 -1l-4 30l95 10v163l-178 273l-61 8l4 30l113 -2l110 2l4 -30l-66 -9l136 -205l5 -32l140 237l-68 9l4 30l94 -2l88 2l4 -29l-60 -8l-175 -276l1 -161l92 -10l-4 -30l-135 2z" />
<glyph horiz-adv-x="608" d="M307 560l47 150h109l-117 -150h-39zM168 -1l-4 30l95 10v163l-178 273l-61 8l4 30l113 -2l110 2l4 -30l-66 -9l136 -205l5 -32l140 237l-68 9l4 30l94 -2l88 2l4 -29l-60 -8l-175 -276l1 -161l92 -10l-4 -30l-135 2z" />
<glyph horiz-adv-x="608" d="M219 580l-26 5l-5 49l9 40l60 5l25 -5l5 -48l-9 -41zM399 580l-26 5l-5 49l9 40l60 5l25 -5l5 -48l-10 -41zM168 -1l-4 30l95 10v163l-178 273l-61 8l4 30l113 -2l110 2l4 -30l-66 -9l136 -205l5 -32l140 237l-68 9l4 30l94 -2l88 2l4 -29l-60 -8l-175 -276l1 -161 l92 -10l-4 -30l-135 2z" />
<glyph horiz-adv-x="500" d="M40 0l-9 38l300 411l34 25l-230 -3l-38 -93h-38v134h389l8 -33l-302 -416l-34 -26l255 4l55 100h42l-29 -141h-403z" />
<glyph horiz-adv-x="516" d="M345 -13q-71 0 -111 29l-5 91h41l20 -49q29 -23 59 -23q26 0 42 11.5t16 32.5q0 32 -51 59l-50 31q-35 20 -49.5 46.5t-14.5 68.5l52 34q54 32 54 95q0 29 -19.5 47.5t-56.5 18.5q-86 0 -86 -118v-362l-47 2l-89 -2l-4 36l53 8v248h-69v17l25 31h44v21q0 37 27.5 72.5 t81.5 60.5l59 30q77 0 124.5 -28t47.5 -78q0 -74 -127 -119q0 -20 11 -31.5t46 -33.5l52 -32q39 -24 54.5 -41t15.5 -47q0 -47 -35.5 -73t-110.5 -53z" />
<glyph horiz-adv-x="337" d="M131 392q-41 0 -67 20t-26 53q0 31 25 56l134 39v31q0 25 -7 34.5t-26 9.5q-22 0 -40 -8l-10 -48h-67v46l119 46q61 0 84 -18t23 -67v-106q0 -29 8 -42h30l3 -25l-95 -19l-19 45zM144 438q12 0 34 11l19 10v76l-71 -24q-14 -11 -14 -36q0 -18 9.5 -27.5t22.5 -9.5z" />
<glyph horiz-adv-x="378" d="M180 392q-60 0 -114 24v336l-37 -1l-3 25l81 15l34 1v-174l79 53q48 0 83 -34t35 -89q0 -66 -40.5 -105.5t-117.5 -50.5zM190 423q31 0 50 26.5t19 74.5q0 44 -15 67t-38 23q-21 0 -50 -18l-15 -10v-144q19 -19 49 -19z" />
<glyph horiz-adv-x="322" d="M182 392q-63 0 -102 36t-39 95q0 111 149 148q59 0 90 -28v-68h-60l-14 56q-11 6 -26 6q-26 0 -43.5 -25t-17.5 -67q0 -43 25 -71t66 -28q28 0 64 20l13 -24q-47 -34 -105 -50z" />
<glyph horiz-adv-x="383" d="M166 392q-58 0 -92 35.5t-34 94.5q0 125 145 149q23 0 51 -14v93l-37 -2l-3 25l77 18l37 2v-321q0 -22 11 -37h28l3 -25l-93 -16l-19 46zM175 448q21 0 47 16l14 9v144q-20 18 -49 18q-32 0 -50.5 -26t-18.5 -72q0 -41 16 -65t41 -24z" />
<glyph horiz-adv-x="333" d="M293 566v-29h-178q3 -41 26.5 -66t64.5 -25q33 0 75 22l12 -24q-41 -32 -111 -52q-61 0 -102 36.5t-41 95.5q0 112 141 147q58 0 85.5 -29t27.5 -76zM116 563l100 5q0 34 -10 52t-36 18q-50 0 -54 -75z" />
<glyph horiz-adv-x="263" d="M49 399l-3 26l37 6v191h-49v12l19 22h30v6q0 40 36 74l57 55h80v-54h-78l-9 -13q-11 -16 -11 -57v-14h76v-31h-76v-191l65 -5l-3 -27l-105 2z" />
<glyph horiz-adv-x="364" d="M165 265q-134 0 -134 70v12l68 41q-52 13 -52 61v11l62 35q-62 25 -62 79q0 38 30.5 60t96.5 37q67 0 98 -44l30 44h39v-56h-43l-15 -7q5 -12 5 -22q0 -39 -30 -62t-96 -39q-21 0 -29 4l-24 -25q0 -19 27 -19h111q38 0 59.5 -17t21.5 -45q0 -69 -163 -118zM173 514 q21 0 32.5 15t11.5 40q0 73 -54 73q-22 0 -33.5 -15.5t-11.5 -41.5q0 -71 55 -71zM177 306q36 0 59 15t23 35q0 29 -49 29h-86q-26 -20 -26 -36q0 -18 20.5 -30.5t58.5 -12.5z" />
<glyph horiz-adv-x="403" d="M43 399l-3 26l38 6v319l-38 -1l-3 26l80 16l35 1v-172l90 51q54 0 73 -18.5t19 -69.5v-152l39 -6l-3 -26l-73 2l-62 -2l-3 26l26 6v152q0 33 -34 33q-16 0 -56 -21l-16 -8v-156l28 -6l-3 -26l-61 2z" />
<glyph horiz-adv-x="224" d="M95 711l-19 4l-4 36l8 31l51 3l19 -3l4 -37l-7 -30zM44 399l-3 26l37 6v193l-37 -2l-3 25l81 16l34 2v-234l39 -6l-3 -26l-72 2z" />
<glyph horiz-adv-x="212" d="M99 711l-18 4l-4 36l6 31l53 3l19 -3l3 -37l-7 -30zM5 271v61h61l5 12q9 29 9 69v211l-38 -2l-3 25l81 16l34 2v-243q0 -59 -47 -104l-51 -47h-51z" />
<glyph horiz-adv-x="385" d="M45 399l-3 26l38 6v319l-39 -1l-3 26l81 16l35 1v-240l16 7l97 73l-27 7v25l57 -2l51 2l4 -25l-34 -7l-108 -76l18 -10l109 -115l25 -6l-4 -26l-55 2l-38 -2l-103 124l-8 20v-112l27 -6l-3 -26l-65 2z" />
<glyph horiz-adv-x="221" d="M43 399l-3 26l38 6v319l-38 -1l-3 26l80 16l35 1v-361l40 -6l-3 -26l-73 2z" />
<glyph horiz-adv-x="574" d="M45 399l-3 26l38 6v192l-39 -2l-3 26l79 16l32 2l4 -46l82 52q44 0 64.5 -11.5t26.5 -40.5l86 52q54 0 73 -18.5t19 -69.5v-152l40 -6l-3 -26l-71 2l-64 -2l-3 26l26 6v152q0 33 -31 33q-21 0 -54 -20l-15 -9v-156l24 -6l-3 -26l-59 2l-58 -2l-3 26l24 6v152q0 33 -31 33 q-23 0 -53 -20l-16 -9v-156l26 -6l-3 -26l-62 2z" />
<glyph horiz-adv-x="405" d="M45 399l-3 26l38 6v192l-39 -2l-3 26l81 16l32 2l2 -46l90 52q54 0 73 -17.5t19 -67.5v-155l40 -6l-3 -26l-73 2l-63 -2l-3 26l27 6v152q0 33 -35 33q-22 0 -56 -21l-15 -8v-156l28 -6l-3 -26l-61 2z" />
<glyph horiz-adv-x="369" d="M173 392q-59 0 -96.5 37t-37.5 96q0 118 155 146q60 0 98 -36.5t38 -96.5q0 -118 -157 -146zM191 424q58 0 58 91q0 61 -20.5 93t-52.5 32q-58 0 -58 -92q0 -58 20.5 -91t52.5 -33z" />
<glyph horiz-adv-x="378" d="M35 273l-3 25l37 6v320l-37 -2l-3 25l79 15l31 2l4 -45l78 52q52 0 86 -33.5t34 -89.5q0 -136 -156 -156q-22 0 -41 8v-96l58 -6l-3 -25l-92 2zM198 423q28 0 46 27.5t18 73.5q0 47 -15.5 69.5t-40.5 22.5q-18 0 -47 -19l-15 -9v-142q20 -23 54 -23z" />
<glyph horiz-adv-x="371" d="M181 273l-3 25l58 6v135l-67 -47q-59 0 -94 36t-35 95q0 64 39 101t108 47q42 0 86 -22l22 19h16v-364l37 -6l-3 -25l-70 2zM180 446q12 0 32 10l24 14v142q-13 24 -46 24q-34 0 -53 -26t-19 -70q0 -43 17.5 -68.5t44.5 -25.5z" />
<glyph horiz-adv-x="294" d="M44 399l-3 26l38 6v192l-38 -2l-3 26l77 16l29 2l5 -84l64 88h53v-74h-54q-21 -7 -50 -36l-10 -10v-117l64 -6l-3 -27l-97 2z" />
<glyph horiz-adv-x="305" d="M145 392q-46 0 -94 21l-11 77h39l18 -42q22 -22 52 -22q43 0 43 31q0 13 -8.5 21t-31.5 19l-45 21q-56 26 -56 70q0 30 26.5 49.5t88.5 33.5q52 0 90 -20v-68h-34l-14 38q-16 18 -46 18q-18 0 -30.5 -7.5t-12.5 -20.5q0 -20 45 -40l45 -20q56 -24 56 -72 q0 -37 -28.5 -55.5t-91.5 -31.5z" />
<glyph horiz-adv-x="268" d="M167 392q-45 0 -66.5 17t-21.5 58v157h-56v9l23 22h34v38l49 40h23v-80h85v-29h-84v-149q0 -33 31 -33q20 0 48 13l12 -24z" />
<glyph horiz-adv-x="389" d="M163 392q-56 0 -76 18t-20 67v146l-36 -2l-3 26l76 16l39 2v-181q0 -36 38 -36q21 0 52 19l10 7l1 149l-32 -2l-3 26l71 16l38 2v-191q0 -27 9 -39h26l2 -25l-90 -16l-17 48z" />
<glyph horiz-adv-x="373" d="M162 392l-107 240l-32 7l3 25l76 -2l66 2l3 -25l-35 -7l60 -144l5 -43l68 187l-28 7l3 25l55 -1l48 1l3 -25l-36 -7l-95 -224z" />
<glyph horiz-adv-x="555" d="M154 392l-99 240l-32 7l3 25l73 -2l62 2l3 -25l-31 -7l55 -145l5 -42l64 160l-10 27l-25 7l3 25l65 -2l62 2l3 -25l-30 -7l54 -145l5 -42l71 187l-28 7l3 25l47 -2l52 2l3 -25l-36 -7l-92 -224l-59 -16l-61 146l-3 38l-68 -168z" />
<glyph horiz-adv-x="379" d="M29 399l-3 26l37 5l89 94l-87 109l-35 5l3 26l70 -2l73 2l3 -26l-23 -5l39 -51l5 -18l60 69l-25 5l3 26l51 -2l55 2l3 -26l-38 -5l-81 -85l96 -118l32 -5l-3 -26l-67 2l-74 -2l-3 26l25 5l-49 56l-6 19l-64 -75l28 -5l-3 -26l-56 2z" />
<glyph horiz-adv-x="375" d="M72 271v72h63l61 75l-43 -15l-98 230l-32 6l3 25l76 -2l66 2l3 -25l-35 -6l60 -145l6 -46l67 190l-28 6l3 26l55 -2l50 2l3 -26l-36 -6l-91 -219l-68 -142h-85z" />
<glyph horiz-adv-x="332" d="M46 400l-8 20l152 200l24 17l-110 -4l-20 -54h-28v84h229l10 -18l-152 -202l-22 -16l113 5l32 61h31l-17 -93h-234z" />
<glyph horiz-adv-x="590" d="M275 -15q-109 0 -172 98t-63 257q0 160 65 253t210 122q109 0 172 -98t63 -257q0 -160 -65 -253t-210 -122zM305 40q67 0 101 80.5t34 209.5q0 150 -38 240t-117 90q-67 0 -101 -80.5t-34 -209.5q0 -150 38 -240t117 -90z" />
<glyph horiz-adv-x="455" d="M45 -1l-5 35l155 17v549l5 18l-42 -20l-110 -24l-18 36l225 95h40v-654l155 -17l-5 -35l-200 3z" />
<glyph horiz-adv-x="540" d="M35 0l-20 43l185 207q81 90 115.5 149.5t34.5 120.5q0 64 -28.5 102t-77.5 38q-32 0 -63 -18l-36 -107h-74v109l189 71q92 0 146 -48t54 -127q0 -89 -47 -161.5t-148 -163.5l-162 -144l55 19h334v-30l-26 -60h-431z" />
<glyph horiz-adv-x="503" d="M35 0v90h214q89 44 89 138q0 54 -48 89t-136 35l-10 28l46 20q61 26 90 63t29 92q0 48 -25 76.5t-61 28.5q-37 0 -68 -18l-36 -107h-74v109l189 71q88 0 131.5 -38.5t43.5 -96.5q0 -118 -136 -178q78 -6 124 -48t46 -99q0 -39 -12.5 -70.5t-29 -51.5t-49.5 -40.5t-56 -31 t-66 -28.5l-80 -33h-115z" />
<glyph horiz-adv-x="559" d="M315 0v200h-270l-35 39l327 461h101v-36l-349 -414l48 15h178v151l69 59h26v-210h139v-65h-139v-200h-95z" />
<glyph horiz-adv-x="489" d="M40 0v90h207q48 25 72 66t24 80q0 58 -38 98.5t-106 40.5q-49 0 -95 -19l-33 -13l-28 16l42 341h348v-31l-24 -58h-282l-26 -205l115 59q66 0 115 -20.5t73 -52t34.5 -61t10.5 -55.5q0 -52 -16.5 -91.5t-51.5 -68t-67 -45.5t-84 -38l-80 -33h-110z" />
<glyph horiz-adv-x="544" d="M304 446q98 0 149 -63.5t51 -152.5q0 -101 -61 -159.5t-181 -85.5q-99 0 -155.5 78t-56.5 207q0 307 366 451l15 -41q-142 -69 -202 -145.5t-68 -196.5zM281 34q56 0 89 47.5t33 132.5q0 66 -31.5 108t-71.5 42q-25 0 -45.5 -10t-52.5 -35l-42 -34q4 -251 121 -251z" />
<glyph horiz-adv-x="493" d="M96 0v32l268 553l24 25h-373v90h440l18 -21l-285 -679h-92z" />
<glyph horiz-adv-x="549" d="M344 381q77 -46 118.5 -90t41.5 -101q0 -81 -60 -130t-180 -75q-94 0 -156.5 52.5t-62.5 129.5q0 125 148 193q-127 76 -127 175q0 130 218 180q92 0 148 -41t56 -106q0 -111 -144 -187zM271 665q-46 0 -74 -28.5t-28 -74.5q0 -44 38 -82t102 -78q41 29 58.5 60.5 t17.5 76.5q0 53 -29.5 89.5t-84.5 36.5zM276 35q51 0 88 33t37 87q0 17 -5.5 34t-12 29.5t-22 27.5t-23.5 23t-29.5 22t-27.5 17.5t-29.5 17.5t-24.5 14q-44 -29 -61.5 -62.5t-17.5 -87.5q0 -63 36.5 -109t91.5 -46z" />
<glyph horiz-adv-x="529" d="M267 715q99 0 155.5 -78t56.5 -207q0 -300 -361 -443l-15 41q139 69 198 143.5t67 189.5l-143 -107q-98 0 -149 63.5t-51 152.5q0 101 61 159.5t181 85.5zM229 336q25 0 44.5 9.5t53.5 35.5l42 33q-1 55 -6.5 97.5t-18.5 79t-37.5 56t-58.5 19.5q-56 0 -89 -47.5 t-33 -132.5q0 -66 31.5 -108t71.5 -42z" />
<glyph horiz-adv-x="473" d="M25 -170v90h214q89 37 89 113q0 54 -47.5 86.5t-136.5 32.5l-10 28l46 20q62 27 90.5 54.5t28.5 70.5q0 48 -25 76.5t-61 28.5q-37 0 -68 -18l-36 -107h-74v109l189 71q88 0 131.5 -38.5t43.5 -96.5q0 -99 -136 -148q79 -6 124.5 -45.5t45.5 -96.5q0 -34 -13 -62.5 t-29 -46t-50 -36.5t-55.5 -28t-65.5 -26l-80 -31h-115z" />
<glyph horiz-adv-x="564" d="M315 -170v200h-270l-35 39l327 401h101v-36l-339 -354l39 15h177v91l69 59h26v-150h139v-65h-139v-200h-95z" />
<glyph horiz-adv-x="484" d="M44 -170v90h219q43 23 64 61t21 75q0 55 -35 92t-100 37q-44 0 -104 -27l-33 -15l-28 16l42 311h348v-31l-25 -58h-281l-27 -175l116 59q66 0 115 -18t73 -46.5t34.5 -55.5t10.5 -53q0 -47 -17 -83t-52 -63.5t-67 -44t-83 -38.5l-80 -33h-111z" />
<glyph horiz-adv-x="498" d="M101 -170v32l267 493l23 25h-371v90h440l18 -21l-285 -619h-92z" />
<glyph horiz-adv-x="544" d="M282 495q98 0 155 -72.5t57 -192.5q0 -280 -361 -413l-15 41q139 63 199 133.5t66 175.5l-143 -108q-98 0 -149.5 60t-51.5 146q0 180 243 230zM243 141q41 0 98 40l43 33q-2 111 -28.5 171.5t-92.5 60.5q-56 0 -89 -42.5t-33 -117.5q0 -64 31 -104.5t71 -40.5z" />
<glyph horiz-adv-x="414" d="M196 -8q-70 0 -110 54t-40 141q0 88 41 139t133 67q69 0 109 -54t40 -141q0 -88 -41 -139t-132 -67zM214 28q31 0 47 43t16 111q0 78 -19 126.5t-56 48.5q-32 0 -48 -42.5t-16 -110.5q0 -176 76 -176z" />
<glyph horiz-adv-x="325" d="M43 -1l-3 28l86 10v279l6 15l-28 -17l-57 -9l-13 26l135 57h43v-351l86 -10l-3 -28l-125 2z" />
<glyph horiz-adv-x="376" d="M39 0l-14 27l111 111q89 90 89 153q0 30 -14 48t-38 18q-17 0 -37 -8l-18 -69h-66v73l132 40q59 0 95 -27.5t36 -73.5q0 -49 -31 -87.5t-97 -86.5l-101 -73l60 21h181v-24l-19 -42h-269z" />
<glyph horiz-adv-x="354" d="M43 0v70h142q30 22 30 57q0 29 -23.5 47t-68.5 18l-6 22l22 8q61 24 61 78q0 26 -12 40.5t-31 14.5q-18 0 -32 -7l-18 -68h-65v73l131 40q57 0 83.5 -21t26.5 -53q0 -61 -90 -90q54 -4 83 -28t29 -57q0 -16 -6.5 -30.5t-14.5 -24t-25.5 -20t-27.5 -15.5t-33.5 -15.5 t-31.5 -14.5l-53 -24h-70z" />
<glyph horiz-adv-x="382" d="M204 0v96h-152l-24 38l196 251h71v-32l-210 -212l30 11h89v61l58 48h18v-109h74v-56h-74v-96h-76z" />
<glyph horiz-adv-x="346" d="M46 0v70h131q36 28 36 67q0 29 -18 47t-53 18q-26 0 -59 -13l-20 -9l-17 13l25 192h225v-25l-18 -40h-181l-14 -103l87 41q63 0 97.5 -27.5t34.5 -70.5q0 -25 -8.5 -43.5t-31.5 -36t-37 -25t-51 -26.5l-60 -29h-68z" />
<glyph horiz-adv-x="382" d="M219 248q58 0 89 -34.5t31 -81.5q0 -63 -40.5 -93t-118.5 -47q-63 0 -98.5 41.5t-35.5 113.5q0 171 239 250l9 -29q-82 -31 -116 -70t-38 -110zM197 25q55 0 55 86q0 34 -13 55t-32 21q-18 0 -49 -21l-19 -13q0 -128 58 -128z" />
<glyph horiz-adv-x="347" d="M65 0v34l184 287l-10 -6h-210v70h268l18 -20l-179 -365h-71z" />
<glyph horiz-adv-x="385" d="M240 217q98 -51 98 -109q0 -45 -36.5 -70.5t-115.5 -45.5q-60 0 -99.5 29.5t-39.5 72.5q0 31 20 53.5t69 40.5q-80 44 -80 102q0 72 138 103q60 0 96 -24.5t36 -62.5q0 -60 -86 -89zM190 360q-22 0 -34 -12.5t-12 -35.5q0 -43 64 -77q33 24 33 66q0 24 -13.5 41.5 t-37.5 17.5zM192 25q24 0 40 15.5t16 43.5q0 30 -23.5 49.5t-59.5 36.5l-1 1q-31 -25 -31 -74q0 -31 17 -51.5t42 -20.5z" />
<glyph horiz-adv-x="378" d="M197 393q63 0 99 -41.5t36 -113.5q0 -170 -238 -249l-9 30q82 31 115.5 69t38.5 108l-80 -58q-58 0 -89 34.5t-31 80.5q0 33 11.5 57t35 40t49 25.5t62.5 17.5zM172 198q16 0 47 21l21 14q-2 127 -59 127q-54 0 -54 -86q0 -34 13 -55t32 -21z" />
<glyph horiz-adv-x="414" d="M196 307q-70 0 -110 54t-40 141q0 88 41 139t133 67q69 0 109 -54t40 -141q0 -88 -41 -139t-132 -67zM214 343q31 0 47 43t16 111q0 78 -19 126.5t-56 48.5q-32 0 -48 -42.5t-16 -110.5q0 -176 76 -176z" />
<glyph horiz-adv-x="325" d="M43 314l-3 28l86 10v279l6 15l-28 -17l-57 -9l-13 26l135 57h43v-351l86 -10l-3 -28l-125 2z" />
<glyph horiz-adv-x="376" d="M39 315l-14 27l111 111q89 90 89 153q0 30 -14 48t-38 18q-17 0 -37 -8l-18 -69h-66v73l132 40q59 0 95 -27.5t36 -73.5q0 -49 -31 -87.5t-97 -86.5l-101 -73l60 21h181v-24l-19 -42h-269z" />
<glyph horiz-adv-x="354" d="M43 315v70h142q30 22 30 57q0 29 -23.5 47t-68.5 18l-6 22l22 8q61 24 61 78q0 26 -12 40.5t-31 14.5q-18 0 -32 -7l-18 -68h-65v73l131 40q57 0 83.5 -21t26.5 -53q0 -61 -90 -90q54 -4 83 -28t29 -57q0 -16 -6.5 -30.5t-14.5 -24t-25.5 -20t-27.5 -15.5t-33.5 -15.5 t-31.5 -14.5l-53 -24h-70z" />
<glyph horiz-adv-x="382" d="M204 315v96h-152l-24 38l196 251h71v-32l-210 -212l30 11h89v61l58 48h18v-109h74v-56h-74v-96h-76z" />
<glyph horiz-adv-x="346" d="M46 315v70h131q36 28 36 67q0 29 -18 47t-53 18q-26 0 -59 -13l-20 -9l-17 13l25 192h225v-25l-18 -40h-181l-14 -103l87 41q63 0 97.5 -27.5t34.5 -70.5q0 -25 -8.5 -43.5t-31.5 -36t-37 -25t-51 -26.5l-60 -29h-68z" />
<glyph horiz-adv-x="382" d="M219 563q58 0 89 -34.5t31 -81.5q0 -63 -40.5 -93t-118.5 -47q-63 0 -98.5 41.5t-35.5 113.5q0 171 239 250l9 -29q-82 -31 -116 -70t-38 -110zM197 340q55 0 55 86q0 34 -13 55t-32 21q-18 0 -49 -21l-19 -13q0 -128 58 -128z" />
<glyph horiz-adv-x="347" d="M65 315v34l184 287l-10 -6h-210v70h268l18 -20l-179 -365h-71z" />
<glyph horiz-adv-x="385" d="M240 532q98 -51 98 -109q0 -45 -36.5 -70.5t-115.5 -45.5q-60 0 -99.5 29.5t-39.5 72.5q0 31 20 53.5t69 40.5q-80 44 -80 102q0 72 138 103q60 0 96 -24.5t36 -62.5q0 -60 -86 -89zM190 675q-22 0 -34 -12.5t-12 -35.5q0 -43 64 -77q33 24 33 66q0 24 -13.5 41.5 t-37.5 17.5zM192 340q24 0 40 15.5t16 43.5q0 30 -23.5 49.5t-59.5 36.5l-1 1q-31 -25 -31 -74q0 -31 17 -51.5t42 -20.5z" />
<glyph horiz-adv-x="378" d="M197 708q63 0 99 -41.5t36 -113.5q0 -170 -238 -249l-9 30q82 31 115.5 69t38.5 108l-80 -58q-58 0 -89 34.5t-31 80.5q0 33 11.5 57t35 40t49 25.5t62.5 17.5zM172 513q16 0 47 21l21 14q-2 127 -59 127q-54 0 -54 -86q0 -34 13 -55t32 -21z" />
<glyph horiz-adv-x="516" d="M241 -11q-89 0 -140.5 72t-51.5 188q0 117 53 185t172 89q89 0 141 -71.5t52 -187.5q0 -118 -53.5 -186t-172.5 -89zM266 33q51 0 77 58.5t26 150.5q0 107 -29 172t-90 65q-51 0 -77 -58t-26 -150q0 -108 29.5 -173t89.5 -65z" />
<glyph horiz-adv-x="403" d="M51 -1l-4 30l122 13v389l6 16l-35 -17l-86 -16l-15 30l182 72h39v-474l122 -13l-4 -30l-163 2z" />
<glyph horiz-adv-x="472" d="M43 0l-17 33l149 150q65 65 93 110t28 90q0 44 -21.5 70t-59.5 26q-24 0 -50 -11l-29 -84h-66v86l158 53q75 0 120 -35.5t45 -94.5q0 -66 -39 -118.5t-122 -116.5l-131 -103l54 20h262v-27l-22 -48h-352z" />
<glyph horiz-adv-x="442" d="M45 0v77h178q63 31 63 90q0 40 -36.5 65t-104.5 25l-9 24l35 13q92 34 92 109q0 35 -18.5 55t-47.5 20q-31 0 -51 -11l-28 -83h-68v86l160 53q72 0 107 -28t35 -71q0 -84 -112 -126q66 -4 103 -35.5t37 -74.5q0 -19 -6 -36.5t-12.5 -29.5t-24 -25.5t-26 -20t-34.5 -18.5 t-34.5 -15.5t-38.5 -15.5l-66 -27h-93z" />
<glyph horiz-adv-x="486" d="M268 0v139h-214l-29 37l264 336h85v-33l-282 -294l39 12h137v99l62 52h22v-151h109v-58h-109v-139h-84z" />
<glyph horiz-adv-x="431" d="M49 0v77h170q35 18 52 45.5t17 54.5q0 40 -29 67.5t-82 27.5q-40 0 -77 -15l-26 -10l-23 14l34 251h287v-27l-21 -47h-233l-19 -144l99 48q97 0 141 -42t44 -94q0 -29 -10.5 -53t-23.5 -40t-40.5 -33t-46 -25.5t-55.5 -24.5l-68 -30h-90z" />
<glyph horiz-adv-x="476" d="M267 328q79 0 120.5 -46t41.5 -111q0 -78 -50.5 -119.5t-149.5 -62.5q-82 0 -128 56.5t-46 151.5q0 225 302 330l12 -33q-114 -47 -161.5 -101t-53.5 -145zM246 28q43 0 67.5 32.5t24.5 92.5q0 47 -23.5 76.5t-54.5 29.5q-29 0 -74 -31l-33 -22q4 -178 93 -178z" />
<glyph horiz-adv-x="434" d="M89 0v33l223 395l10 7h-294v77h356l18 -20l-233 -492h-80z" />
<glyph horiz-adv-x="480" d="M298 282q63 -34 96.5 -66t33.5 -75q0 -59 -48.5 -94.5t-148.5 -57.5q-77 0 -128 39.5t-51 96.5q0 87 120 133q-104 58 -104 131q0 96 178 134q76 0 122.5 -31.5t46.5 -80.5q0 -80 -117 -129zM236 483q-34 0 -55 -19t-21 -51q0 -55 106 -112q57 34 57 96q0 36 -22.5 61 t-64.5 25zM241 29q38 0 66 22.5t28 61.5q0 12 -4.5 23.5t-9 20t-16 19t-18.5 16t-22.5 15t-21 12t-22.5 11.5t-19 10q-58 -33 -58 -105q0 -44 27.5 -75t69.5 -31z" />
<glyph horiz-adv-x="466" d="M237 523q81 0 127 -56.5t46 -150.5q0 -222 -298 -327l-13 33q112 46 159 99.5t53 141.5l-113 -79q-79 0 -120 46.5t-41 111.5q0 77 50.5 118.5t149.5 62.5zM205 253q29 0 76 31l31 21q0 179 -92 179q-42 0 -66.5 -32.5t-24.5 -92.5q0 -47 22.5 -76.5t53.5 -29.5z" />
<glyph horiz-adv-x="294" d="M115 275l-58 7l-7 97l7 82l122 7l58 -7l7 -95l-7 -84z" />
<glyph horiz-adv-x="250" d="M112 410l-32 5l-5 62l5 52l83 6l31 -6l6 -60l-6 -54zM112 50l-32 5l-5 62l5 52l83 6l31 -6l6 -60l-6 -54z" />
<glyph horiz-adv-x="275" d="M112 590l-32 6l-5 61l5 53l83 5l31 -5l6 -62l-6 -52zM82 0l7 297l23 178h51l23 -177l7 -298h-111z" />
<glyph horiz-adv-x="390" d="M203 590l-32 5l-6 61l6 53l82 6l32 -6l5 -61l-5 -53zM230 0q-100 12 -155 59.5t-55 121.5q0 116 136 177l40 18l7 104h58l6 -136l-39 -22q-39 -22 -62 -61.5t-23 -82.5q0 -125 92 -125l19 77h76v-119z" />
<glyph horiz-adv-x="434" d="M411 -170l-451 888h61l453 -888h-63z" />
<glyph horiz-adv-x="265" d="M155 360l-75 5l-5 48l5 57l30 5l75 -5l5 -49l-5 -56zM84 -170l5 265l25 185h35l25 -186l5 -264h-95z" />
<glyph horiz-adv-x="374" d="M193 360l-30 5l-5 56l5 49l75 5l30 -5l5 -57l-5 -48zM223 -180q-102 12 -152.5 61.5t-50.5 120.5q0 120 124 174l43 20l7 104h55l6 -136l-39 -22q-42 -24 -65.5 -63t-23.5 -81q0 -127 96 -127l19 79h72v-119z" />
<glyph horiz-adv-x="498" d="M-10 -170l453 888h61l-451 -888h-63z" />
<glyph horiz-adv-x="676" d="M243 55l-174 19l-19 289l19 249l364 19l174 -19l19 -283l-19 -255z" />
<glyph horiz-adv-x="352" d="M262 -175q-65 0 -106 38.5t-41 101.5l1 285l-66 60v14q23 8 37.5 18.5t20 28t7 30.5t1.5 39l-1 190q0 63 42 101.5t107 38.5h48v-39h-44q-30 0 -50 -25t-18 -80l6 -186q1 -41 -15 -70.5t-64 -52.5l79 -52l-6 -296q-1 -55 18.5 -80t49.5 -25h44v-39h-50z" />
<glyph horiz-adv-x="352" d="M40 -175v39h44q30 0 49.5 24.5t18.5 79.5l-6 231q-1 30 19 60.5t60 48.5l-79 66l6 252q1 55 -18.5 80t-49.5 25h-44v39h48q65 0 107 -38.5t42 -101.5l-1 -244l66 -71v-14q-66 -22 -66 -105l1 -231q0 -63 -41 -101.5t-106 -38.5h-50z" />
<glyph horiz-adv-x="337" d="M85 -176v946l83 -3l134 3v-39l-129 -10q-5 -358 -5 -378q0 -23 5 -470l129 -10v-39l-134 3z" />
<glyph horiz-adv-x="337" d="M252 -176l-83 3l-134 -3v39l129 10q5 447 5 470q0 20 -5 378l-129 10v39l134 -3l83 3v-946z" />
<glyph horiz-adv-x="284" d="M242 -183q-117 146 -157 238.5t-40 247.5q0 109 20.5 187t59.5 140t117 151l27 -25q-70 -100 -99.5 -201.5t-29.5 -249.5q0 -280 129 -463z" />
<glyph horiz-adv-x="284" d="M42 -183l-27 25q129 183 129 463q0 148 -29.5 249.5t-99.5 201.5l27 25q78 -89 117 -151t59.5 -140t20.5 -187q0 -155 -40 -247.5t-157 -238.5z" />
<glyph horiz-adv-x="349" d="M259 -170q-64 0 -104 36t-40 95l1 270l-66 47v13q16 5 27.5 10t19 14t11.5 13t6 17.5t2.5 17.5t0 22.5t-0.5 23.5l-1 175q0 59 41.5 95t106.5 36h46v-33h-48q-31 0 -51.5 -23t-18.5 -75l6 -173q1 -23 -0.5 -36.5t-8.5 -31t-25 -31.5t-48 -27l82 -38l-6 -286 q-1 -52 19.5 -75t50.5 -23h48v-33h-50z" />
<glyph horiz-adv-x="349" d="M40 -170v34h48q31 0 51.5 23.5t18.5 75.5l-6 191q0 24 1 36.5t8 30.5t25 31.5t48 26.5l-82 39l6 269q1 51 -19 73.5t-51 22.5h-48v32h50q65 0 104.5 -35t39.5 -93l-1 -253l66 -48v-13q-16 -5 -27.5 -10t-19 -13.5t-11.5 -13t-6 -18t-2.5 -17t0 -22.5t0.5 -23l1 -193 q0 -60 -41.5 -96.5t-106.5 -36.5h-46z" />
<glyph horiz-adv-x="333" d="M85 -171v886l83 -3l130 3v-33l-133 -9l-5 -371l5 -431l133 -9v-33l-130 3z" />
<glyph horiz-adv-x="333" d="M248 -171l-83 3l-130 -3v33l133 9l5 431l-5 371l-133 9v33l130 -3l83 3v-886z" />
<glyph horiz-adv-x="274" d="M234 -180q-60 75 -89.5 117.5t-56 97.5t-35 110t-8.5 133q0 103 19.5 176t57 130.5t112.5 141.5l25 -22q-71 -92 -100 -187.5t-29 -236.5q0 -271 129 -438z" />
<glyph horiz-adv-x="274" d="M40 -180l-25 22q129 167 129 438q0 141 -29 236.5t-100 187.5l25 22q75 -84 112.5 -141.5t57 -130.5t19.5 -176q0 -78 -8.5 -133t-35 -110t-56 -97.5t-89.5 -117.5z" />
<glyph horiz-adv-x="829" d="M40 301v64h749v-64h-749z" />
<glyph horiz-adv-x="635" d="M40 301v64h555v-64h-555z" />
<glyph horiz-adv-x="385" d="M40 297v69h305v-69h-305z" />
<glyph horiz-adv-x="370" d="M35 242v65h300v-65h-300z" />
<glyph horiz-adv-x="483" d="M196 70l-181 220l182 220h60l-127 -221l127 -219h-61zM392 70l-181 220l182 220h60l-127 -221l127 -219h-61z" />
<glyph horiz-adv-x="483" d="M30 70l127 219l-127 221h60l182 -220l-181 -220h-61zM226 70l127 219l-127 221h60l182 -220l-181 -220h-61z" />
<glyph horiz-adv-x="287" d="M196 70l-181 220l182 220h60l-127 -221l127 -219h-61z" />
<glyph horiz-adv-x="287" d="M30 70l127 219l-127 221h60l182 -220l-181 -220h-61z" />
<glyph horiz-adv-x="215" d="M171 -131q-72 72 -100 127t-28 139q0 85 28 140t100 124l18 -17q-42 -57 -59.5 -112.5t-17.5 -134.5q0 -144 77 -249z" />
<glyph horiz-adv-x="215" d="M44 -131l-19 17q42 56 59.5 114t17.5 135q0 80 -17.5 135t-59.5 112l19 17q71 -67 99 -123t28 -141t-28 -141t-99 -125z" />
<glyph horiz-adv-x="217" d="M178 204q-72 72 -100 127t-28 139t28 139.5t100 124.5l19 -17q-43 -57 -60.5 -112.5t-17.5 -134.5q0 -77 18 -134.5t60 -114.5z" />
<glyph horiz-adv-x="187" d="M39 204l-19 17q42 57 60 114.5t18 134.5q0 79 -17.5 134.5t-60.5 112.5l19 17q71 -67 99.5 -123t28.5 -141t-28 -141t-100 -125z" />
<glyph horiz-adv-x="383" d="M348 -103l-365 693h52l365 -693h-52z" />
<glyph horiz-adv-x="313" d="M226 -103q-52 0 -85 28t-33 74l1 208l-54 45v10q19 6 30.5 14t16 20.5t5.5 22t1 28.5v139q0 46 33.5 74t85.5 28h39v-30h-36q-24 0 -40.5 -18t-15.5 -58l5 -135q1 -30 -12 -52t-52 -38l64 -38l-5 -215q-1 -41 15.5 -59t40.5 -18h36v-30h-40z" />
<glyph horiz-adv-x="313" d="M47 -103v30h37q24 0 39.5 18t14.5 58l-5 158q-2 62 65 91l-65 38l5 191q1 40 -14.5 58.5t-39.5 18.5h-37v30h39q52 0 86 -28t33 -74l-1 -186l54 -43v-10q-36 -11 -45 -30t-9 -56l1 -162q1 -46 -32.5 -74t-85.5 -28h-40z" />
<glyph horiz-adv-x="300" d="M82 -104v692l66 -2l108 2v-30l-104 -7q-4 -160 -4 -275q0 -145 4 -343l104 -7v-30l-108 2z" />
<glyph horiz-adv-x="300" d="M218 -104l-66 2l-108 -2v30l104 7q4 198 4 343q0 115 -4 275l-104 7v30l108 -2l66 2v-692z" />
<glyph horiz-adv-x="262" d="M111 170l-18 124l-6 218h87l-5 -218l-20 -124h-38zM112 -6l-25 3l-4 45l4 39l62 4l25 -4l4 -45l-4 -39z" />
<glyph horiz-adv-x="262" d="M112 518l62 -3l4 -39l-4 -45l-25 -4l-62 4l-4 39l4 45zM111 342h38l20 -124l5 -218h-87l6 218z" />
<glyph horiz-adv-x="585" d="M147 0l21 152h-117l5 39h118l18 130h-116l5 39h116l21 152h44l-22 -152h131l21 152h44l-21 -152h119l-5 -39h-120l-17 -130h117l-5 -39h-118l-20 -152h-44l20 152h-131l-20 -152h-44zM217 191h131l18 130h-131z" />
<glyph horiz-adv-x="257" d="M209 -109q-93 104 -125.5 172.5t-32.5 182.5q0 115 33.5 185.5t124.5 164.5l21 -19q-57 -73 -80.5 -147t-23.5 -183q0 -204 104 -337z" />
<glyph horiz-adv-x="257" d="M48 -109l-21 19q104 133 104 337q0 109 -23.5 183t-80.5 147l21 19q91 -94 124.5 -164.5t33.5 -185.5q0 -114 -32.5 -182.5t-125.5 -172.5z" />
<glyph horiz-adv-x="368" d="M123 166l-5 99l31 16q33 16 52 44.5t19 61.5q0 91 -77 91l-15 -56h-60v87l77 8q83 -9 124.5 -45t41.5 -89q0 -88 -104 -128l-34 -13l-5 -76h-45zM130 -6l-24 3l-5 45l5 39l62 4l24 -4l4 -45l-4 -39z" />
<glyph horiz-adv-x="368" d="M238 520l24 -3l5 -45l-5 -39l-62 -4l-24 4l-4 45l4 39zM245 348l5 -99l-31 -16q-33 -16 -52 -44.5t-19 -61.5q0 -91 77 -91l15 56h60v-87l-77 -8q-83 9 -124.5 45t-41.5 89q0 88 104 128l34 13l5 76h45z" />
<glyph horiz-adv-x="435" d="M8 -103l365 693h51l-364 -693h-52z" />
<glyph d="M123 123l-47 47l57 56q-43 59 -43 131t43 131l-57 56l47 47l56 -57q59 43 131 43t131 -43l56 57l47 -47l-57 -56q43 -59 43 -131t-43 -131l57 -56l-47 -47l-56 57q-59 -43 -131 -43t-131 43zM310 190q71 0 117.5 48t46.5 119t-46.5 119t-117.5 48t-117.5 -48t-46.5 -119 t46.5 -119t117.5 -48z" />
<glyph d="M275 55v218h-223v69h223v228h69v-228h223v-69h-223v-218h-69z" />
<glyph d="M146 67l-49 49l164 163l-164 165l49 49l163 -165l164 164l49 -49l-164 -164l164 -162l-49 -49l-164 163z" />
<glyph d="M289 425l-30 5l-5 57l5 48l75 5l30 -5l5 -56l-5 -49zM47 272v65h525v-65h-525zM289 55l-30 5l-5 57l5 48l75 5l30 -5l5 -56l-5 -49z" />
<glyph d="M52 363v69h515v-69h-515zM52 168v69h515v-69h-515z" />
<glyph d="M50 80v83l424 179l-424 179v82l520 -232v-60z" />
<glyph d="M570 80l-520 231v60l520 232v-82l-424 -179l424 -179v-83z" />
<glyph d="M498 235v126h-446v69h515v-195h-69z" />
<glyph d="M93 -170v640h95v-300q0 -53 22.5 -79t61.5 -26q6 0 13 1.5t15 5t14 6t16.5 8.5t15 9t17 10.5t15.5 9.5l20 13v342h95v-360q0 -32 17.5 -51t58.5 -29l-5 -30h-120l-44 74l-115 -89q-111 0 -131 55v-70l49 -140h-110z" />
<glyph horiz-adv-x="919" d="M454 -59q-179 0 -291.5 104.5t-112.5 266.5q0 141 95.5 251t252.5 161l93 31q181 0 282 -82.5t101 -212.5q0 -129 -90.5 -222t-208.5 -93l-59 62l45 118l-151 -182q-60 0 -102.5 39.5t-42.5 102.5q0 84 48.5 152t129.5 105l109 49l119 -67l-83 -341q71 3 137 78.5 t66 188.5q0 109 -77 181.5t-205 72.5q-65 0 -130 -28t-116.5 -76t-84 -120t-32.5 -152q0 -66 19.5 -120.5t52.5 -92t78 -63.5t96 -38t106 -12q75 0 177 47l17 -30q-124 -63 -238 -78zM432 230l115 127l32 122l-77 53q-41 -17 -70.5 -44.5t-44.5 -58t-21.5 -59t-6.5 -55.5 q0 -40 19.5 -62.5t53.5 -22.5z" />
<glyph horiz-adv-x="282" d="M110 -190v963h62v-963h-62z" />
<glyph horiz-adv-x="281" d="M110 343v430h61v-430h-61zM110 -190v430h61v-430h-61z" />
<glyph horiz-adv-x="537" d="M492 265q0 -123 -96 -186l61 -41v-37q0 -146 -203 -186q-50 0 -99.5 16.5t-71.5 39.5v106h57l15 -70q45 -47 118 -47q51 0 78.5 25.5t27.5 73.5v15l-191 126q-74 49 -109.5 94t-35.5 97q0 47 26 81.5t80 64.5q-59 59 -59 115q0 60 53.5 103.5t144.5 59.5q111 -6 151 -49 v-98h-57l-13 62q-34 40 -93 40q-50 0 -78 -22t-28 -62q0 -38 32.5 -72.5t124.5 -96.5l165 -116v-36zM414 223v15l-147 105q-53 36 -91 69q-54 -34 -54 -93q0 -35 26.5 -64.5t99.5 -77.5l113 -75q53 44 53 121z" />
<glyph horiz-adv-x="279" d="M110 -170v888h59v-888h-59z" />
<glyph horiz-adv-x="412" d="M182 0v117h-131v45h131v121h47v-121h131v-45h-131v-117h-47z" />
<glyph horiz-adv-x="412" d="M51 166v45h309v-45h-309zM51 59v44h309v-44h-309z" />
<glyph horiz-adv-x="409" d="M182 335v117h-132v45h132v121h46v-121h131v-45h-131v-117h-46z" />
<glyph horiz-adv-x="409" d="M50 501v45h309v-45h-309zM50 394v44h309v-44h-309z" />
<glyph horiz-adv-x="616" d="M241 -13q-81 0 -135 37t-54 96q0 30 14.5 56t28 38.5t43 33t34.5 24.5q-39 38 -56 63.5t-17 53.5q0 44 36.5 72t121.5 51q57 0 93 -27.5t36 -64.5q0 -27 -18.5 -52.5t-39.5 -40.5t-62 -40l136 -130l55 73l-35 5l4 27l64 -3l77 3l4 -27l-55 -7l-84 -100l98 -93l41 -7 l-5 -28l-61 1l-54 -1l-69 64q-46 -46 -141 -77zM241 314q36 24 50.5 44t14.5 51q0 29 -17 47t-46 18q-28 0 -46.5 -16.5t-18.5 -46.5q0 -29 63 -97zM249 44q54 0 105 49l-155 151q-62 -42 -62 -105q0 -39 32.5 -67t79.5 -28z" />
<glyph horiz-adv-x="258" d="M105 -119v704h49v-704h-49z" />
<glyph horiz-adv-x="257" d="M105 271v314h48v-314h-48zM105 -119v314h48v-314h-48z" />
<glyph horiz-adv-x="502" d="M455 153q0 -113 -174 -158v-53h-37v45q-99 1 -166 50l-18 108h60l28 -64q35 -40 96 -46v190l-58 25q-106 46 -106 125q0 49 43 85t121 57v52h37v-44q84 -2 148 -42v-107h-44l-25 68q-33 31 -79 35v-166l54 -23q59 -27 89.5 -58t30.5 -79zM240 331l4 -2v150 q-36 -4 -56.5 -23t-20.5 -47q0 -48 73 -78zM281 35q40 5 62 27.5t22 56.5q0 55 -80 89l-4 2v-175z" />
<glyph horiz-adv-x="671" d="M170 260q-56 0 -89 34t-33 89q0 58 34.5 90t107.5 44q56 0 89 -34t33 -90q0 -58 -34 -89.5t-108 -43.5zM115 -4l399 520h59l-399 -520h-59zM185 287q55 0 55 89q0 114 -65 114q-55 0 -55 -90q0 -113 65 -113zM481 -3q-56 0 -89.5 34t-33.5 89q0 58 35 90t108 43 q56 0 89 -34t33 -89q0 -58 -34 -90t-108 -43zM495 24q56 0 56 90q0 112 -65 112q-56 0 -56 -89q0 -113 65 -113z" />
<glyph horiz-adv-x="500" d="M411 113h41l-20 -113l-268 2l-111 -2l-4 25l78 33v173h-71v12l29 30h42v93q0 67 40.5 101.5t142.5 55.5q78 0 107 -36v-71h-53l-13 50q-25 20 -55 20q-41 0 -61.5 -31t-20.5 -70v-112h142v-43h-142v-99q0 -32 -7.5 -55t-13.5 -30t-8 -7l188 2z" />
<glyph horiz-adv-x="578" d="M546 484l-60 -9l-141 -276h118v-35h-119v-36h119v-35h-120v-54l92 -10l-4 -30l-134 2l-138 -2l-4 30l94 10v54h-118v35h118v36h-118v35h118l-156 276l-61 9l4 30l113 -2l110 2l4 -30l-66 -10l110 -211l6 -37l111 248l-67 10l4 30l94 -2l87 1z" />
</font>
</defs>
</svg>
